SplineFontDB: 3.0
FontName: Lohit-Telugu
FullName: Lohit Telugu
FamilyName: Lohit Telugu
Weight: Book
Copyright: Copyright (c) 2003, Automatic Control Equipments, Pune, INDIA.\n  Copyright 2006 Modular Infotech Pvt Ltd.\n  Copyright 2009 Red Hat, Inc.\n\n  Licensed under the GNU General Public License, version 2 (see file COPYING) along with the following exception:\n\n  As a special exception, if you create a document which uses this font, and embed this font or unaltered portions of this font into the document, this font does not by itself cause the resulting document to be covered by the GNU General Public License. This exception does not however invalidate any other reasons why the document might be covered by the GNU General Public License. If you modify this font, you may extend this exception to your version of the font, but you are not obligated to do so. If you do not wish to do so, delete this exception statement from your version.
Version: 2.4.5
ItalicAngle: 0
UnderlinePosition: -300
UnderlineWidth: 20
Ascent: 690
Descent: 334
LayerCount: 2
Layer: 0 1 "Back"  1
Layer: 1 1 "Fore"  0
XUID: [1021 648 100124046 8549501]
FSType: 0
OS2Version: 1
OS2_WeightWidthSlopeOnly: 0
OS2_UseTypoMetrics: 1
CreationTime: 1153280036
ModificationTime: 1259131491
PfmFamily: 17
TTFWeight: 400
TTFWidth: 5
LineGap: 200
VLineGap: 0
Panose: 2 0 6 0 0 0 0 0 0 0
OS2TypoAscent: 927
OS2TypoAOffset: 1
OS2TypoDescent: -450
OS2TypoDOffset: 1
OS2TypoLinegap: 20
OS2WinAscent: 0
OS2WinAOffset: 1
OS2WinDescent: 0
OS2WinDOffset: 1
HheadAscent: 0
HheadAOffset: 1
HheadDescent: 0
HheadDOffset: 1
OS2SubXSize: 717
OS2SubYSize: 666
OS2SubXOff: 0
OS2SubYOff: 205
OS2SupXSize: 717
OS2SupYSize: 666
OS2SupXOff: 0
OS2SupYOff: 512
OS2StrikeYSize: 50
OS2StrikeYPos: 250
OS2Vendor: 'MODI'
Lookup: 6 0 0 "'abvs' Above Base Substitutions in Telugu lookup 0"  {"'abvs' Above Base Substitutions in Telugu lookup 0"  } ['abvs' ('telu' <'dflt' > ) ]

StartChar: .notdef
Encoding: 65536 -1 0
Width: 640
VWidth: 819
GlyphClass: 2
Flags: W
LayerCount: 2
Fore
SplineSet
80 0 m 1,0,-1
 80 560 l 1,1,-1
 560 560 l 1,2,-1
 560 0 l 1,3,-1
 80 0 l 1,4,-1
 80 0 l 1,0,-1
120 40 m 1,5,-1
 520 40 l 1,6,-1
 520 520 l 1,7,-1
 120 520 l 1,8,-1
 120 40 l 1,9,-1
 120 40 l 1,5,-1
EndSplineSet
Validated: 5
EndChar

StartChar: uni0214
Encoding: 532 532 5
Width: 640
VWidth: 819
GlyphClass: 2
Flags: W
LayerCount: 2
Fore
SplineSet
80 -248 m 1,0,-1
 80 312 l 1,1,-1
 560 312 l 1,2,-1
 560 -248 l 1,3,-1
 80 -248 l 1,4,-1
 80 -248 l 1,0,-1
120 -208 m 1,5,-1
 520 -208 l 1,6,-1
 520 272 l 1,7,-1
 120 272 l 1,8,-1
 120 -208 l 1,9,-1
 120 -208 l 1,5,-1
EndSplineSet
Validated: 5
EndChar

StartChar: uni021C
Encoding: 540 540 6
Width: 640
VWidth: 819
GlyphClass: 2
Flags: W
LayerCount: 2
Fore
SplineSet
80 -248 m 1,0,-1
 80 312 l 1,1,-1
 560 312 l 1,2,-1
 560 -248 l 1,3,-1
 80 -248 l 1,4,-1
 80 -248 l 1,0,-1
120 -208 m 1,5,-1
 520 -208 l 1,6,-1
 520 272 l 1,7,-1
 120 272 l 1,8,-1
 120 -208 l 1,9,-1
 120 -208 l 1,5,-1
EndSplineSet
Validated: 5
EndChar

StartChar: U0C01
Encoding: 3073 3073 7
Width: 355
VWidth: 819
GlyphClass: 2
Flags: W
LayerCount: 2
Fore
SplineSet
314.4 95.2002 m 1,0,-1
 334.4 33.5996 l 1,1,2
 315.2 17.5996 315.2 17.5996 290.4 8.7998 c 128,-1,3
 265.6 0 265.6 0 239.2 0 c 0,4,5
 154.4 0 154.4 0 94.7998 67.5996 c 128,-1,6
 35.2002 135.2 35.2002 135.2 35.2002 231.2 c 256,7,8
 35.2002 327.2 35.2002 327.2 94.7998 394.8 c 128,-1,9
 154.4 462.4 154.4 462.4 239.2 462.4 c 0,10,11
 268 462.4 268 462.4 292.4 457.2 c 128,-1,12
 316.8 452 316.8 452 334.4 441.6 c 1,13,-1
 314.4 380.8 l 1,14,15
 289.6 389.6 289.6 389.6 270.8 393.2 c 128,-1,16
 252 396.8 252 396.8 239.2 394.4 c 1,17,18
 183.2 394.4 183.2 394.4 143.2 346.8 c 128,-1,19
 103.2 299.2 103.2 299.2 103.2 231.2 c 0,20,21
 103.2 164 103.2 164 143.2 116 c 128,-1,22
 183.2 68 183.2 68 239.2 68 c 0,23,24
 260 68 260 68 279.2 75.2002 c 128,-1,25
 298.4 82.4004 298.4 82.4004 314.4 95.2002 c 1,26,-1
 314.4 95.2002 l 1,0,-1
EndSplineSet
Validated: 37
EndChar

StartChar: U0C02
Encoding: 3074 3074 8
Width: 540
VWidth: 819
GlyphClass: 2
Flags: W
LayerCount: 2
Fore
SplineSet
33.5996 235.2 m 1,0,1
 33.5996 332.8 33.5996 332.8 102.8 401.6 c 128,-1,2
 172 470.4 172 470.4 269.6 470.4 c 256,3,4
 367.2 470.4 367.2 470.4 436.4 401.6 c 128,-1,5
 505.6 332.8 505.6 332.8 505.6 235.2 c 256,6,7
 505.6 137.6 505.6 137.6 436.4 68.7998 c 128,-1,8
 367.2 0 367.2 0 269.6 0 c 256,9,10
 172 0 172 0 102.8 68.7998 c 128,-1,11
 33.5996 137.6 33.5996 137.6 33.5996 235.2 c 1,12,-1
 33.5996 235.2 l 1,0,1
99.2002 235.2 m 1,13,14
 99.2002 164.8 99.2002 164.8 149.2 115.2 c 128,-1,15
 199.2 65.5996 199.2 65.5996 269.6 65.5996 c 256,16,17
 340 65.5996 340 65.5996 389.6 115.2 c 128,-1,18
 439.2 164.8 439.2 164.8 439.2 235.2 c 256,19,20
 439.2 305.6 439.2 305.6 389.6 355.6 c 128,-1,21
 340 405.6 340 405.6 269.6 405.6 c 256,22,23
 199.2 405.6 199.2 405.6 149.2 355.6 c 128,-1,24
 99.2002 305.6 99.2002 305.6 99.2002 235.2 c 1,25,-1
 99.2002 235.2 l 1,13,14
EndSplineSet
Validated: 5
EndChar

StartChar: U0C03
Encoding: 3075 3075 9
Width: 293
VWidth: 819
GlyphClass: 2
Flags: W
LayerCount: 2
Fore
SplineSet
42.4004 365.6 m 1,0,1
 42.4004 408.8 42.4004 408.8 73.2002 439.6 c 128,-1,2
 104 470.4 104 470.4 147.2 470.4 c 256,3,4
 190.4 470.4 190.4 470.4 220.8 439.6 c 128,-1,5
 251.2 408.8 251.2 408.8 251.2 365.6 c 256,6,7
 251.2 322.4 251.2 322.4 220.8 291.6 c 128,-1,8
 190.4 260.8 190.4 260.8 147.2 260.8 c 256,9,10
 104 260.8 104 260.8 73.2002 291.6 c 128,-1,11
 42.4004 322.4 42.4004 322.4 42.4004 365.6 c 1,12,-1
 42.4004 365.6 l 1,0,1
95.2002 365.6 m 1,13,14
 95.2002 344 95.2002 344 110.4 329.2 c 128,-1,15
 125.6 314.4 125.6 314.4 147.2 314.4 c 256,16,17
 168.8 314.4 168.8 314.4 184.4 329.2 c 128,-1,18
 200 344 200 344 200 365.6 c 0,19,20
 200 388 200 388 184.4 403.6 c 128,-1,21
 168.8 419.2 168.8 419.2 147.2 419.2 c 256,22,23
 125.6 419.2 125.6 419.2 110.4 403.6 c 128,-1,24
 95.2002 388 95.2002 388 95.2002 365.6 c 1,25,-1
 95.2002 365.6 l 1,13,14
42.4004 104.8 m 1,26,27
 42.4004 148 42.4004 148 73.2002 178.8 c 128,-1,28
 104 209.6 104 209.6 147.2 209.6 c 256,29,30
 190.4 209.6 190.4 209.6 220.8 178.8 c 128,-1,31
 251.2 148 251.2 148 251.2 104.8 c 256,32,33
 251.2 61.5996 251.2 61.5996 220.8 30.7998 c 128,-1,34
 190.4 0 190.4 0 147.2 0 c 256,35,36
 104 0 104 0 73.2002 30.7998 c 128,-1,37
 42.4004 61.5996 42.4004 61.5996 42.4004 104.8 c 1,38,-1
 42.4004 104.8 l 1,26,27
95.2002 104.8 m 1,39,40
 95.2002 83.2002 95.2002 83.2002 110.4 67.5996 c 128,-1,41
 125.6 52 125.6 52 147.2 52 c 256,42,43
 168.8 52 168.8 52 184.4 67.5996 c 128,-1,44
 200 83.2002 200 83.2002 200 104.8 c 256,45,46
 200 126.4 200 126.4 184.4 141.2 c 128,-1,47
 168.8 156 168.8 156 147.2 156 c 256,48,49
 125.6 156 125.6 156 110.4 141.2 c 128,-1,50
 95.2002 126.4 95.2002 126.4 95.2002 104.8 c 1,51,-1
 95.2002 104.8 l 1,39,40
EndSplineSet
Validated: 5
EndChar

StartChar: U0C05
Encoding: 3077 3077 10
Width: 677
VWidth: 819
GlyphClass: 2
Flags: W
LayerCount: 2
Fore
SplineSet
141.6 365.6 m 1,0,1
 141.6 338.4 141.6 338.4 160.4 319.6 c 128,-1,2
 179.2 300.8 179.2 300.8 206.4 300.8 c 256,3,4
 233.6 300.8 233.6 300.8 252.8 319.6 c 128,-1,5
 272 338.4 272 338.4 272 365.6 c 256,6,7
 272 392.8 272 392.8 252.8 412 c 128,-1,8
 233.6 431.2 233.6 431.2 206.4 431.2 c 256,9,10
 179.2 431.2 179.2 431.2 160.4 412 c 128,-1,11
 141.6 392.8 141.6 392.8 141.6 365.6 c 1,12,-1
 141.6 365.6 l 1,0,1
36.7998 274.4 m 1,13,14
 36.7998 361.6 36.7998 361.6 86.4004 422.8 c 128,-1,15
 136 484 136 484 206.4 484 c 0,16,17
 255.2 484 255.2 484 290 449.2 c 128,-1,18
 324.8 414.4 324.8 414.4 324.8 365.6 c 0,19,20
 324.8 317.6 324.8 317.6 290 283.2 c 128,-1,21
 255.2 248.8 255.2 248.8 206.4 248.8 c 0,22,23
 172.8 248.8 172.8 248.8 146.4 266.8 c 128,-1,24
 120 284.8 120 284.8 112.8 312.8 c 1,25,-1
 108.8 312.8 l 1,26,27
 105.6 304.8 105.6 304.8 103.6 295.2 c 128,-1,28
 101.6 285.6 101.6 285.6 101.6 274.4 c 0,29,30
 101.6 180 101.6 180 166 122.8 c 128,-1,31
 230.4 65.5996 230.4 65.5996 337.6 65.5996 c 0,32,33
 445.6 65.5996 445.6 65.5996 510.4 126.4 c 128,-1,34
 575.2 187.2 575.2 187.2 575.2 288 c 0,35,36
 575.2 347.2 575.2 347.2 555.6 389.2 c 128,-1,37
 536 431.2 536 431.2 508.8 431.2 c 0,38,39
 486.4 431.2 486.4 431.2 470.8 412 c 128,-1,40
 455.2 392.8 455.2 392.8 455.2 365.6 c 0,41,42
 455.2 341.6 455.2 341.6 473.2 319.6 c 128,-1,43
 491.2 297.6 491.2 297.6 520.8 284 c 1,44,-1
 520.8 235.2 l 1,45,-1
 311.2 235.2 l 1,46,-1
 311.2 288 l 1,47,-1
 402.4 288 l 1,48,-1
 436.8 283.2 l 1,49,-1
 440.8 288 l 1,50,51
 423.2 302.4 423.2 302.4 413.6 322.8 c 128,-1,52
 404 343.2 404 343.2 404 365.6 c 0,53,54
 404 414.4 404 414.4 434.8 449.2 c 128,-1,55
 465.6 484 465.6 484 508.8 484 c 0,56,57
 563.2 484 563.2 484 601.2 426.4 c 128,-1,58
 639.2 368.8 639.2 368.8 639.2 288 c 0,59,60
 639.2 157.6 639.2 157.6 557.2 78.7998 c 128,-1,61
 475.2 0 475.2 0 338.4 0 c 256,62,63
 201.6 0 201.6 0 119.2 74.7998 c 128,-1,64
 36.7998 149.6 36.7998 149.6 36.7998 274.4 c 1,65,-1
 36.7998 274.4 l 1,13,14
EndSplineSet
Validated: 5
EndChar

StartChar: U0C06
Encoding: 3078 3078 11
Width: 727
VWidth: 819
GlyphClass: 2
Flags: W
LayerCount: 2
Fore
SplineSet
140 365.6 m 1,0,1
 140 338.4 140 338.4 159.2 319.6 c 128,-1,2
 178.4 300.8 178.4 300.8 205.6 300.8 c 256,3,4
 232.8 300.8 232.8 300.8 251.6 319.6 c 128,-1,5
 270.4 338.4 270.4 338.4 270.4 365.6 c 256,6,7
 270.4 392.8 270.4 392.8 251.6 412 c 128,-1,8
 232.8 431.2 232.8 431.2 205.6 431.2 c 256,9,10
 178.4 431.2 178.4 431.2 159.2 412 c 128,-1,11
 140 392.8 140 392.8 140 365.6 c 1,12,-1
 140 365.6 l 1,0,1
507.2 365.6 m 1,13,14
 507.2 338.4 507.2 338.4 526.4 319.6 c 128,-1,15
 545.6 300.8 545.6 300.8 572.8 300.8 c 0,16,17
 596.8 300.8 596.8 300.8 614 319.6 c 128,-1,18
 631.2 338.4 631.2 338.4 631.2 365.6 c 256,19,20
 631.2 392.8 631.2 392.8 614 412 c 128,-1,21
 596.8 431.2 596.8 431.2 572.8 431.2 c 0,22,23
 545.6 431.2 545.6 431.2 526.4 412 c 128,-1,24
 507.2 392.8 507.2 392.8 507.2 365.6 c 1,25,-1
 507.2 365.6 l 1,13,14
35.2002 274.4 m 1,26,27
 35.2002 361.6 35.2002 361.6 85.2002 422.8 c 128,-1,28
 135.2 484 135.2 484 205.6 484 c 0,29,30
 254.4 484 254.4 484 289.2 449.2 c 128,-1,31
 324 414.4 324 414.4 324 365.6 c 0,32,33
 324 317.6 324 317.6 289.2 283.2 c 128,-1,34
 254.4 248.8 254.4 248.8 205.6 248.8 c 0,35,36
 172.8 248.8 172.8 248.8 146 266.4 c 128,-1,37
 119.2 284 119.2 284 108.8 312.8 c 1,38,-1
 104.8 312.8 l 1,39,40
 103.2 307.2 103.2 307.2 102 297.6 c 128,-1,41
 100.8 288 100.8 288 100.8 274.4 c 0,42,43
 100.8 180 100.8 180 172.4 122.8 c 128,-1,44
 244 65.5996 244 65.5996 363.2 65.5996 c 0,45,46
 465.6 65.5996 465.6 65.5996 538 103.6 c 128,-1,47
 610.4 141.6 610.4 141.6 610.4 196 c 0,48,49
 610.4 209.6 610.4 209.6 599.2 223.6 c 128,-1,50
 588 237.6 588 237.6 568.8 248.8 c 1,51,-1
 310.4 248.8 l 1,52,-1
 310.4 300.8 l 1,53,-1
 441.6 300.8 l 1,54,-1
 480 296.8 l 1,55,-1
 481.6 301.6 l 1,56,57
 468.8 313.6 468.8 313.6 461.6 330 c 128,-1,58
 454.4 346.4 454.4 346.4 454.4 365.6 c 0,59,60
 454.4 414.4 454.4 414.4 489.2 449.2 c 128,-1,61
 524 484 524 484 572.8 484 c 0,62,63
 620.8 484 620.8 484 655.2 449.2 c 128,-1,64
 689.6 414.4 689.6 414.4 689.6 365.6 c 0,65,66
 689.6 329.6 689.6 329.6 673.2 301.6 c 128,-1,67
 656.8 273.6 656.8 273.6 629.6 264 c 1,68,-1
 629.6 260 l 1,69,70
 652 247.2 652 247.2 664.8 227.6 c 128,-1,71
 677.6 208 677.6 208 677.6 186.4 c 0,72,73
 677.6 108.8 677.6 108.8 585.6 54.4004 c 128,-1,74
 493.6 0 493.6 0 363.2 0 c 0,75,76
 214.4 0 214.4 0 124.8 74.7998 c 128,-1,77
 35.2002 149.6 35.2002 149.6 35.2002 274.4 c 1,78,-1
 35.2002 274.4 l 1,26,27
EndSplineSet
Validated: 5
EndChar

StartChar: U0C07
Encoding: 3079 3079 12
Width: 623
VWidth: 819
GlyphClass: 2
Flags: W
LayerCount: 2
Fore
SplineSet
184.8 118.4 m 1,0,1
 184.8 96.7998 184.8 96.7998 212 81.2002 c 128,-1,2
 239.2 65.5996 239.2 65.5996 277.6 65.5996 c 0,3,4
 336 65.5996 336 65.5996 380.8 77.2002 c 128,-1,5
 425.6 88.7998 425.6 88.7998 451.2 110.4 c 1,6,-1
 451.2 114.4 l 1,7,8
 419.2 140.8 419.2 140.8 374.4 155.2 c 128,-1,9
 329.6 169.6 329.6 169.6 277.6 169.6 c 0,10,11
 239.2 169.6 239.2 169.6 212 154.8 c 128,-1,12
 184.8 140 184.8 140 184.8 118.4 c 1,13,-1
 184.8 118.4 l 1,0,1
15.2002 314.4 m 1,14,15
 15.2002 384.8 15.2002 384.8 61.2002 434.4 c 128,-1,16
 107.2 484 107.2 484 172.8 484 c 0,17,18
 208 484 208 484 237.2 468.8 c 128,-1,19
 266.4 453.6 266.4 453.6 281.6 427.2 c 1,20,-1
 288 427.2 l 1,21,22
 303.2 453.6 303.2 453.6 331.6 468.8 c 128,-1,23
 360 484 360 484 394.4 484 c 0,24,25
 470.4 484 470.4 484 524 418.8 c 128,-1,26
 577.6 353.6 577.6 353.6 577.6 260.8 c 0,27,28
 577.6 220 577.6 220 563.2 181.6 c 128,-1,29
 548.8 143.2 548.8 143.2 522.4 111.2 c 1,30,31
 549.6 78.4004 549.6 78.4004 564.4 29.2002 c 128,-1,32
 579.2 -20 579.2 -20 579.2 -79.2002 c 1,33,-1
 512.8 -79.2002 l 1,34,35
 512.8 -29.5996 512.8 -29.5996 504.8 6 c 128,-1,36
 496.8 41.5996 496.8 41.5996 481.6 60 c 1,37,-1
 476 60 l 1,38,39
 441.6 31.2002 441.6 31.2002 390.4 15.5996 c 128,-1,40
 339.2 0 339.2 0 277.6 0 c 0,41,42
 212 0 212 0 166 34.7998 c 128,-1,43
 120 69.5996 120 69.5996 120 118.4 c 0,44,45
 120 166.4 120 166.4 166 200.8 c 128,-1,46
 212 235.2 212 235.2 277.6 235.2 c 0,47,48
 340.8 235.2 340.8 235.2 392.8 214.8 c 128,-1,49
 444.8 194.4 444.8 194.4 476 157.6 c 1,50,-1
 481.6 157.6 l 1,51,52
 496.8 184 496.8 184 504.8 210.4 c 128,-1,53
 512.8 236.8 512.8 236.8 512.8 260.8 c 0,54,55
 512.8 326.4 512.8 326.4 478 372.8 c 128,-1,56
 443.2 419.2 443.2 419.2 394.4 419.2 c 0,57,58
 361.6 419.2 361.6 419.2 338 388.4 c 128,-1,59
 314.4 357.6 314.4 357.6 314.4 314.4 c 1,60,-1
 252.8 314.4 l 1,61,62
 252.8 357.6 252.8 357.6 229.2 388.4 c 128,-1,63
 205.6 419.2 205.6 419.2 172.8 419.2 c 0,64,65
 134.4 419.2 134.4 419.2 106.8 388.4 c 128,-1,66
 79.2002 357.6 79.2002 357.6 79.2002 314.4 c 1,67,-1
 15.2002 314.4 l 1,68,-1
 15.2002 314.4 l 1,14,15
EndSplineSet
Validated: 5
EndChar

StartChar: U0C08
Encoding: 3080 3080 13
Width: 1068
VWidth: 819
GlyphClass: 2
Flags: W
LayerCount: 2
Fore
SplineSet
845.6 156 m 1,0,1
 845.6 128.8 845.6 128.8 864.8 110 c 128,-1,2
 884 91.2002 884 91.2002 911.2 91.2002 c 256,3,4
 938.4 91.2002 938.4 91.2002 957.6 110 c 128,-1,5
 976.8 128.8 976.8 128.8 976.8 156 c 256,6,7
 976.8 183.2 976.8 183.2 957.6 202.4 c 128,-1,8
 938.4 221.6 938.4 221.6 911.2 221.6 c 256,9,10
 884 221.6 884 221.6 864.8 202.4 c 128,-1,11
 845.6 183.2 845.6 183.2 845.6 156 c 1,12,-1
 845.6 156 l 1,0,1
8 274.4 m 1,13,-1
 141.6 274.4 l 1,14,15
 155.2 349.6 155.2 349.6 201.6 402.4 c 128,-1,16
 248 455.2 248 455.2 311.2 466.4 c 1,17,-1
 311.2 468.8 l 1,18,19
 284 478.4 284 478.4 261.2 512 c 128,-1,20
 238.4 545.6 238.4 545.6 225.6 594.4 c 1,21,-1
 278.4 614.4 l 1,22,23
 287.2 563.2 287.2 563.2 316.4 529.6 c 128,-1,24
 345.6 496 345.6 496 380.8 496 c 0,25,26
 395.2 496 395.2 496 412 502.4 c 128,-1,27
 428.8 508.8 428.8 508.8 446.4 520.8 c 2,28,-1
 648.8 662.4 l 1,29,-1
 676 616 l 1,30,-1
 458.4 462.4 l 1,31,-1
 458.4 458.4 l 1,32,33
 516 437.6 516 437.6 555.6 388.4 c 128,-1,34
 595.2 339.2 595.2 339.2 606.4 274.4 c 1,35,-1
 911.2 274.4 l 2,36,37
 938.4 274.4 938.4 274.4 957.6 289.6 c 128,-1,38
 976.8 304.8 976.8 304.8 976.8 326.4 c 256,39,40
 976.8 348 976.8 348 957.6 363.6 c 128,-1,41
 938.4 379.2 938.4 379.2 911.2 379.2 c 0,42,43
 883.2 379.2 883.2 379.2 864.8 354 c 128,-1,44
 846.4 328.8 846.4 328.8 849.6 295.2 c 1,45,-1
 796.8 295.2 l 1,46,47
 787.2 348.8 787.2 348.8 820 390 c 128,-1,48
 852.8 431.2 852.8 431.2 904 431.2 c 256,49,50
 955.2 431.2 955.2 431.2 991.6 400.4 c 128,-1,51
 1028 369.6 1028 369.6 1028 326.4 c 0,52,53
 1028 296.8 1028 296.8 1014.8 275.6 c 128,-1,54
 1001.6 254.4 1001.6 254.4 980.8 250.4 c 1,55,-1
 980.8 244.8 l 1,56,57
 1002.4 232 1002.4 232 1015.2 208.4 c 128,-1,58
 1028 184.8 1028 184.8 1028 156 c 0,59,60
 1028 108 1028 108 993.6 73.5996 c 128,-1,61
 959.2 39.2002 959.2 39.2002 911.2 39.2002 c 0,62,63
 862.4 39.2002 862.4 39.2002 827.6 73.5996 c 128,-1,64
 792.8 108 792.8 108 792.8 156 c 0,65,66
 792.8 173.6 792.8 173.6 799.2 190.4 c 128,-1,67
 805.6 207.2 805.6 207.2 817.6 221.6 c 1,68,-1
 813.6 225.6 l 1,69,-1
 768 221.6 l 1,70,-1
 608 221.6 l 1,71,72
 608 129.6 608 129.6 540 64.7998 c 128,-1,73
 472 0 472 0 375.2 0 c 256,74,75
 278.4 0 278.4 0 210 64.7998 c 128,-1,76
 141.6 129.6 141.6 129.6 141.6 221.6 c 1,77,-1
 8 221.6 l 1,78,-1
 8 274.4 l 1,79,-1
 8 274.4 l 1,13,-1
205.6 274.4 m 1,80,-1
 541.6 274.4 l 1,81,82
 541.6 334.4 541.6 334.4 492.8 376.8 c 128,-1,83
 444 419.2 444 419.2 375.2 419.2 c 0,84,85
 304.8 419.2 304.8 419.2 255.2 376.8 c 128,-1,86
 205.6 334.4 205.6 334.4 205.6 274.4 c 1,87,-1
 205.6 274.4 l 1,80,-1
205.6 221.6 m 1,88,89
 205.6 156.8 205.6 156.8 255.2 111.2 c 128,-1,90
 304.8 65.5996 304.8 65.5996 375.2 65.5996 c 0,91,92
 444 65.5996 444 65.5996 492.8 111.2 c 128,-1,93
 541.6 156.8 541.6 156.8 541.6 221.6 c 1,94,-1
 205.6 221.6 l 1,95,-1
 205.6 221.6 l 1,88,89
EndSplineSet
Validated: 37
EndChar

StartChar: U0C09
Encoding: 3081 3081 14
Width: 654
VWidth: 819
GlyphClass: 2
Flags: W
LayerCount: 2
Fore
SplineSet
466.4 104.8 m 1,0,1
 466.4 83.2002 466.4 83.2002 481.6 67.5996 c 128,-1,2
 496.8 52 496.8 52 518.4 52 c 256,3,4
 540 52 540 52 555.6 67.5996 c 128,-1,5
 571.2 83.2002 571.2 83.2002 571.2 104.8 c 256,6,7
 571.2 126.4 571.2 126.4 555.6 141.2 c 128,-1,8
 540 156 540 156 518.4 156 c 256,9,10
 496.8 156 496.8 156 481.6 141.2 c 128,-1,11
 466.4 126.4 466.4 126.4 466.4 104.8 c 1,12,-1
 466.4 104.8 l 1,0,1
337.6 79.2002 m 1,13,-1
 330.4 79.2002 l 1,14,15
 308.8 42.4004 308.8 42.4004 275.2 21.2002 c 128,-1,16
 241.6 0 241.6 0 204 0 c 0,17,18
 133.6 0 133.6 0 83.5996 57.5996 c 128,-1,19
 33.5996 115.2 33.5996 115.2 33.5996 196 c 0,20,21
 33.5996 307.2 33.5996 307.2 112.4 389.2 c 128,-1,22
 191.2 471.2 191.2 471.2 307.2 481.6 c 1,23,-1
 296.8 600.8 l 1,24,-1
 296.8 654.4 l 1,25,-1
 373.6 654.4 l 1,26,-1
 373.6 600.8 l 1,27,-1
 363.2 478.4 l 1,28,29
 432.8 472 432.8 472 491.2 450.8 c 128,-1,30
 549.6 429.6 549.6 429.6 591.2 394.4 c 1,31,-1
 546.4 349.6 l 1,32,33
 506.4 383.2 506.4 383.2 452 401.2 c 128,-1,34
 397.6 419.2 397.6 419.2 336 419.2 c 0,35,36
 259.2 419.2 259.2 419.2 200.4 386.8 c 128,-1,37
 141.6 354.4 141.6 354.4 122.4 300.8 c 1,38,-1
 609.6 300.8 l 1,39,-1
 609.6 235.2 l 1,40,-1
 104.8 235.2 l 1,41,42
 102.4 230.4 102.4 230.4 100.8 220.4 c 128,-1,43
 99.2002 210.4 99.2002 210.4 99.2002 196 c 0,44,45
 99.2002 141.6 99.2002 141.6 130 103.6 c 128,-1,46
 160.8 65.5996 160.8 65.5996 204 65.5996 c 0,47,48
 248.8 65.5996 248.8 65.5996 280 103.6 c 128,-1,49
 311.2 141.6 311.2 141.6 311.2 196 c 1,50,-1
 359.2 196 l 1,51,52
 359.2 154.4 359.2 154.4 375.2 123.6 c 128,-1,53
 391.2 92.7998 391.2 92.7998 417.6 83.2002 c 1,54,-1
 414.4 104.8 l 1,55,56
 414.4 148 414.4 148 444.8 178.8 c 128,-1,57
 475.2 209.6 475.2 209.6 518.4 209.6 c 256,58,59
 561.6 209.6 561.6 209.6 592.4 178.8 c 128,-1,60
 623.2 148 623.2 148 623.2 104.8 c 256,61,62
 623.2 61.5996 623.2 61.5996 587.6 30.7998 c 128,-1,63
 552 0 552 0 501.6 0 c 0,64,65
 446.4 0 446.4 0 402.8 21.2002 c 128,-1,66
 359.2 42.4004 359.2 42.4004 337.6 79.2002 c 1,67,-1
 337.6 79.2002 l 1,13,-1
EndSplineSet
Validated: 5
EndChar

StartChar: U0C0A
Encoding: 3082 3082 15
Width: 1016
VWidth: 819
GlyphClass: 2
Flags: W
LayerCount: 2
Fore
SplineSet
33.5996 196 m 1,0,1
 33.5996 285.6 33.5996 285.6 87.5996 360 c 128,-1,2
 141.6 434.4 141.6 434.4 229.6 466.4 c 1,3,-1
 217.6 600.8 l 1,4,-1
 217.6 654.4 l 1,5,-1
 296.8 654.4 l 1,6,-1
 296.8 600.8 l 1,7,-1
 284 478.4 l 1,8,-1
 334.4 484 l 2,9,10
 349.6 484 349.6 484 362.4 482 c 128,-1,11
 375.2 480 375.2 480 386.4 476 c 1,12,-1
 373.6 600.8 l 1,13,-1
 373.6 654.4 l 1,14,-1
 452.8 654.4 l 1,15,-1
 452.8 600.8 l 1,16,-1
 440.8 468 l 1,17,18
 479.2 460.8 479.2 460.8 516.8 442.8 c 128,-1,19
 554.4 424.8 554.4 424.8 588.8 396 c 1,20,-1
 548 348 l 1,21,22
 507.2 382.4 507.2 382.4 452.4 400.8 c 128,-1,23
 397.6 419.2 397.6 419.2 336 419.2 c 0,24,25
 259.2 419.2 259.2 419.2 200.4 386.8 c 128,-1,26
 141.6 354.4 141.6 354.4 122.4 300.8 c 1,27,-1
 858.4 300.8 l 2,28,29
 885.6 300.8 885.6 300.8 904.4 316.4 c 128,-1,30
 923.2 332 923.2 332 923.2 353.6 c 256,31,32
 923.2 375.2 923.2 375.2 904.4 390.4 c 128,-1,33
 885.6 405.6 885.6 405.6 858.4 405.6 c 0,34,35
 834.4 405.6 834.4 405.6 817.6 386.4 c 128,-1,36
 800.8 367.2 800.8 367.2 800.8 340 c 1,37,-1
 742.4 340 l 1,38,39
 742.4 388.8 742.4 388.8 776.4 423.6 c 128,-1,40
 810.4 458.4 810.4 458.4 858.4 458.4 c 0,41,42
 907.2 458.4 907.2 458.4 942 427.6 c 128,-1,43
 976.8 396.8 976.8 396.8 976.8 353.6 c 0,44,45
 976.8 328.8 976.8 328.8 963.2 306.4 c 128,-1,46
 949.6 284 949.6 284 926.4 270.4 c 1,47,-1
 926.4 266.4 l 1,48,49
 949.6 252.8 949.6 252.8 963.2 230.4 c 128,-1,50
 976.8 208 976.8 208 976.8 183.2 c 0,51,52
 976.8 140 976.8 140 944 109.6 c 128,-1,53
 911.2 79.2002 911.2 79.2002 864.8 79.2002 c 0,54,55
 816.8 79.2002 816.8 79.2002 782.4 109.6 c 128,-1,56
 748 140 748 140 748 183.2 c 0,57,58
 748 195.2 748 195.2 752 208.4 c 128,-1,59
 756 221.6 756 221.6 764 235.2 c 1,60,-1
 761.6 239.2 l 1,61,-1
 716.8 235.2 l 1,62,-1
 104.8 235.2 l 1,63,64
 102.4 224 102.4 224 100.8 214 c 128,-1,65
 99.2002 204 99.2002 204 99.2002 196 c 0,66,67
 99.2002 141.6 99.2002 141.6 130 103.6 c 128,-1,68
 160.8 65.5996 160.8 65.5996 204 65.5996 c 0,69,70
 248.8 65.5996 248.8 65.5996 280 103.6 c 128,-1,71
 311.2 141.6 311.2 141.6 311.2 196 c 1,72,-1
 359.2 196 l 1,73,74
 359.2 151.2 359.2 151.2 374 118 c 128,-1,75
 388.8 84.7998 388.8 84.7998 413.6 76 c 1,76,-1
 420 83.2002 l 1,77,-1
 413.6 104.8 l 1,78,79
 413.6 148 413.6 148 444.4 178.8 c 128,-1,80
 475.2 209.6 475.2 209.6 518.4 209.6 c 256,81,82
 561.6 209.6 561.6 209.6 592.4 178.8 c 128,-1,83
 623.2 148 623.2 148 623.2 104.8 c 256,84,85
 623.2 61.5996 623.2 61.5996 585.6 30.7998 c 128,-1,86
 548 0 548 0 495.2 0 c 0,87,88
 443.2 0 443.2 0 401.2 21.2002 c 128,-1,89
 359.2 42.4004 359.2 42.4004 337.6 79.2002 c 1,90,-1
 330.4 79.2002 l 1,91,92
 308.8 42.4004 308.8 42.4004 275.2 21.2002 c 128,-1,93
 241.6 0 241.6 0 204 0 c 0,94,95
 133.6 0 133.6 0 83.5996 57.5996 c 128,-1,96
 33.5996 115.2 33.5996 115.2 33.5996 196 c 1,97,-1
 33.5996 196 l 1,0,1
466.4 107.2 m 1,98,99
 466.4 87.2002 466.4 87.2002 481.6 72.7998 c 128,-1,100
 496.8 58.4004 496.8 58.4004 518.4 58.4004 c 256,101,102
 540 58.4004 540 58.4004 555.6 72.7998 c 128,-1,103
 571.2 87.2002 571.2 87.2002 571.2 107.2 c 256,104,105
 571.2 127.2 571.2 127.2 555.6 141.6 c 128,-1,106
 540 156 540 156 518.4 156 c 256,107,108
 496.8 156 496.8 156 481.6 141.6 c 128,-1,109
 466.4 127.2 466.4 127.2 466.4 107.2 c 1,110,-1
 466.4 107.2 l 1,98,99
806.4 183.2 m 1,111,112
 806.4 161.6 806.4 161.6 823.6 146 c 128,-1,113
 840.8 130.4 840.8 130.4 864.8 130.4 c 0,114,115
 889.6 130.4 889.6 130.4 907.2 146 c 128,-1,116
 924.8 161.6 924.8 161.6 924.8 183.2 c 256,117,118
 924.8 204.8 924.8 204.8 907.2 220 c 128,-1,119
 889.6 235.2 889.6 235.2 864.8 235.2 c 0,120,121
 840.8 235.2 840.8 235.2 823.6 220 c 128,-1,122
 806.4 204.8 806.4 204.8 806.4 183.2 c 1,123,-1
 806.4 183.2 l 1,111,112
EndSplineSet
Validated: 5
EndChar

StartChar: U0C0B
Encoding: 3083 3083 16
Width: 1399
VWidth: 819
GlyphClass: 2
Flags: W
LayerCount: 2
Fore
SplineSet
441.6 65.5996 m 1,0,1
 483.2 65.5996 483.2 65.5996 512.4 118 c 128,-1,2
 541.6 170.4 541.6 170.4 541.6 244.8 c 0,3,4
 541.6 320 541.6 320 502.4 372.8 c 128,-1,5
 463.2 425.6 463.2 425.6 408 425.6 c 1,6,-1
 428 489.6 l 1,7,8
 501.6 489.6 501.6 489.6 554 418 c 128,-1,9
 606.4 346.4 606.4 346.4 606.4 244.8 c 1,10,11
 620 167.2 620 167.2 668.8 116.4 c 128,-1,12
 717.6 65.5996 717.6 65.5996 779.2 65.5996 c 0,13,14
 836 65.5996 836 65.5996 876.4 115.6 c 128,-1,15
 916.8 165.6 916.8 165.6 916.8 236.8 c 0,16,17
 916.8 314.4 916.8 314.4 868 368.8 c 128,-1,18
 819.2 423.2 819.2 423.2 749.6 423.2 c 1,19,-1
 764 488 l 1,20,21
 854.4 488 854.4 488 918 414 c 128,-1,22
 981.6 340 981.6 340 981.6 235.2 c 1,23,24
 1008 159.2 1008 159.2 1057.2 112.4 c 128,-1,25
 1106.4 65.5996 1106.4 65.5996 1160 65.5996 c 0,26,27
 1214.4 65.5996 1214.4 65.5996 1252.4 115.6 c 128,-1,28
 1290.4 165.6 1290.4 165.6 1290.4 236.8 c 0,29,30
 1290.4 314.4 1290.4 314.4 1243.6 368.8 c 128,-1,31
 1196.8 423.2 1196.8 423.2 1130.4 423.2 c 1,32,-1
 1144.8 488 l 1,33,34
 1235.2 488 1235.2 488 1298.8 414 c 128,-1,35
 1362.4 340 1362.4 340 1362.4 235.2 c 0,36,37
 1362.4 137.6 1362.4 137.6 1301.2 68.7998 c 128,-1,38
 1240 0 1240 0 1153.6 0 c 0,39,40
 1087.2 0 1087.2 0 1034.4 37.5996 c 128,-1,41
 981.6 75.2002 981.6 75.2002 963.2 136 c 1,42,43
 938.4 74.4004 938.4 74.4004 886.4 37.2002 c 128,-1,44
 834.4 0 834.4 0 772.8 0 c 0,45,46
 709.6 0 709.6 0 658.4 34.7998 c 128,-1,47
 607.2 69.5996 607.2 69.5996 586.4 126.4 c 1,48,49
 564.8 69.5996 564.8 69.5996 524.8 34.7998 c 128,-1,50
 484.8 0 484.8 0 441.6 0 c 0,51,52
 400 0 400 0 366 23.2002 c 128,-1,53
 332 46.4004 332 46.4004 318.4 84 c 1,54,-1
 312.8 83.2002 l 1,55,56
 290.4 44.7998 290.4 44.7998 257.2 22.4004 c 128,-1,57
 224 0 224 0 188 0 c 0,58,59
 128 0 128 0 85.5996 42 c 128,-1,60
 43.2002 84 43.2002 84 43.2002 144 c 0,61,62
 43.2002 186.4 43.2002 186.4 74.7998 224 c 128,-1,63
 106.4 261.6 106.4 261.6 157.6 280 c 0,64,65
 200.8 296 200.8 296 226.8 319.2 c 128,-1,66
 252.8 342.4 252.8 342.4 252.8 365.6 c 0,67,68
 252.8 390.4 252.8 390.4 231.6 408 c 128,-1,69
 210.4 425.6 210.4 425.6 180.8 425.6 c 256,70,71
 151.2 425.6 151.2 425.6 130 408 c 128,-1,72
 108.8 390.4 108.8 390.4 108.8 365.6 c 0,73,74
 108.8 353.6 108.8 353.6 114.4 340.4 c 128,-1,75
 120 327.2 120 327.2 130.4 314.4 c 1,76,-1
 74.4004 293.6 l 1,77,78
 59.2002 308.8 59.2002 308.8 51.2002 327.6 c 128,-1,79
 43.2002 346.4 43.2002 346.4 43.2002 365.6 c 0,80,81
 43.2002 414.4 43.2002 414.4 84.4004 449.2 c 128,-1,82
 125.6 484 125.6 484 183.2 484 c 0,83,84
 239.2 484 239.2 484 278.8 449.2 c 128,-1,85
 318.4 414.4 318.4 414.4 318.4 365.6 c 0,86,87
 318.4 326.4 318.4 326.4 287.2 290.8 c 128,-1,88
 256 255.2 256 255.2 205.6 236.8 c 0,89,90
 162.4 220.8 162.4 220.8 135.6 195.2 c 128,-1,91
 108.8 169.6 108.8 169.6 108.8 144 c 0,92,93
 108.8 111.2 108.8 111.2 132 88.4004 c 128,-1,94
 155.2 65.5996 155.2 65.5996 188 65.5996 c 0,95,96
 232.8 65.5996 232.8 65.5996 264 103.6 c 128,-1,97
 295.2 141.6 295.2 141.6 295.2 196 c 1,98,-1
 342.4 196 l 1,99,100
 342.4 141.6 342.4 141.6 371.6 103.6 c 128,-1,101
 400.8 65.5996 400.8 65.5996 441.6 65.5996 c 1,102,-1
 441.6 65.5996 l 1,0,1
EndSplineSet
Validated: 5
EndChar

StartChar: U0C0C
Encoding: 3084 3084 17
Width: 795
VWidth: 819
GlyphClass: 2
Flags: W
LayerCount: 2
Fore
SplineSet
23.2002 332 m 1,0,1
 23.2002 392 23.2002 392 65.2002 434 c 128,-1,2
 107.2 476 107.2 476 167.2 476 c 0,3,4
 207.2 476 207.2 476 241.2 457.2 c 128,-1,5
 275.2 438.4 275.2 438.4 293.6 406.4 c 1,6,-1
 299.2 405.6 l 1,7,8
 318.4 438.4 318.4 438.4 352.8 457.2 c 128,-1,9
 387.2 476 387.2 476 428 476 c 0,10,11
 488 476 488 476 530.4 434 c 128,-1,12
 572.8 392 572.8 392 572.8 332 c 0,13,14
 572.8 279.2 572.8 279.2 541.2 229.6 c 128,-1,15
 509.6 180 509.6 180 454.4 145.6 c 0,16,17
 412 119.2 412 119.2 387.6 84.4004 c 128,-1,18
 363.2 49.5996 363.2 49.5996 363.2 15.2002 c 0,19,20
 363.2 -29.5996 363.2 -29.5996 400.4 -61.2002 c 128,-1,21
 437.6 -92.7998 437.6 -92.7998 489.6 -92.7998 c 0,22,23
 570.4 -92.7998 570.4 -92.7998 627.2 -13.2002 c 128,-1,24
 684 66.4004 684 66.4004 684 178.4 c 0,25,26
 684 260.8 684 260.8 660 333.6 c 128,-1,27
 636 406.4 636 406.4 590.4 460.8 c 1,28,-1
 664.8 460.8 l 1,29,30
 705.6 398.4 705.6 398.4 726.8 325.6 c 128,-1,31
 748 252.8 748 252.8 748 176.8 c 0,32,33
 748 38.4004 748 38.4004 672 -59.5996 c 128,-1,34
 596 -157.6 596 -157.6 488 -157.6 c 0,35,36
 408.8 -157.6 408.8 -157.6 353.2 -105.2 c 128,-1,37
 297.6 -52.7998 297.6 -52.7998 297.6 21.5996 c 0,38,39
 297.6 64.7998 297.6 64.7998 329.2 109.6 c 128,-1,40
 360.8 154.4 360.8 154.4 416 190.4 c 0,41,42
 458.4 218.4 458.4 218.4 482.8 256 c 128,-1,43
 507.2 293.6 507.2 293.6 507.2 332 c 0,44,45
 507.2 364.8 507.2 364.8 484 387.6 c 128,-1,46
 460.8 410.4 460.8 410.4 428 410.4 c 0,47,48
 383.2 410.4 383.2 410.4 352 372.4 c 128,-1,49
 320.8 334.4 320.8 334.4 320.8 280 c 1,50,-1
 273.6 280 l 1,51,52
 273.6 334.4 273.6 334.4 242.4 372.4 c 128,-1,53
 211.2 410.4 211.2 410.4 167.2 410.4 c 0,54,55
 134.4 410.4 134.4 410.4 111.2 387.6 c 128,-1,56
 88 364.8 88 364.8 88 332 c 0,57,58
 88 311.2 88 311.2 93.2002 291.6 c 128,-1,59
 98.4004 272 98.4004 272 108.8 254.4 c 1,60,-1
 40.7998 254.4 l 1,61,62
 32 269.6 32 269.6 27.5996 289.2 c 128,-1,63
 23.2002 308.8 23.2002 308.8 23.2002 332 c 1,64,-1
 23.2002 332 l 1,0,1
EndSplineSet
Validated: 5
EndChar

StartChar: U0C0E
Encoding: 3086 3086 18
Width: 590
VWidth: 819
GlyphClass: 2
Flags: W
LayerCount: 2
Fore
SplineSet
76 118.4 m 1,0,1
 76 91.2002 76 91.2002 95.2002 71.5996 c 128,-1,2
 114.4 52 114.4 52 141.6 52 c 256,3,4
 168.8 52 168.8 52 187.6 71.5996 c 128,-1,5
 206.4 91.2002 206.4 91.2002 206.4 118.4 c 256,6,7
 206.4 145.6 206.4 145.6 187.6 164.4 c 128,-1,8
 168.8 183.2 168.8 183.2 141.6 183.2 c 256,9,10
 114.4 183.2 114.4 183.2 95.2002 164.4 c 128,-1,11
 76 145.6 76 145.6 76 118.4 c 1,12,-1
 76 118.4 l 1,0,1
23.2002 118.4 m 1,13,14
 23.2002 166.4 23.2002 166.4 58 200.8 c 128,-1,15
 92.7998 235.2 92.7998 235.2 141.6 235.2 c 0,16,17
 177.6 235.2 177.6 235.2 208 215.6 c 128,-1,18
 238.4 196 238.4 196 252.8 163.2 c 0,19,20
 277.6 118.4 277.6 118.4 307.2 92 c 128,-1,21
 336.8 65.5996 336.8 65.5996 363.2 65.5996 c 0,22,23
 412 65.5996 412 65.5996 446.8 130.8 c 128,-1,24
 481.6 196 481.6 196 481.6 288 c 0,25,26
 481.6 417.6 481.6 417.6 400.4 508.8 c 128,-1,27
 319.2 600 319.2 600 204 600 c 1,28,-1
 217.6 664 l 1,29,30
 353.6 664 353.6 664 450 554 c 128,-1,31
 546.4 444 546.4 444 546.4 288 c 0,32,33
 546.4 168.8 546.4 168.8 492.8 84.4004 c 128,-1,34
 439.2 0 439.2 0 363.2 0 c 0,35,36
 333.6 0 333.6 0 304.4 20.7998 c 128,-1,37
 275.2 41.5996 275.2 41.5996 254.4 77.5996 c 1,38,-1
 250.4 77.5996 l 1,39,40
 244.8 44 244.8 44 214 22 c 128,-1,41
 183.2 0 183.2 0 141.6 0 c 0,42,43
 92.7998 0 92.7998 0 58 34.7998 c 128,-1,44
 23.2002 69.5996 23.2002 69.5996 23.2002 118.4 c 1,45,-1
 23.2002 118.4 l 1,13,14
EndSplineSet
Validated: 5
EndChar

StartChar: U0C0F
Encoding: 3087 3087 19
Width: 590
VWidth: 819
GlyphClass: 2
Flags: W
LayerCount: 2
Fore
SplineSet
76 118.4 m 1,0,1
 76 91.2002 76 91.2002 95.2002 71.5996 c 128,-1,2
 114.4 52 114.4 52 141.6 52 c 256,3,4
 168.8 52 168.8 52 187.6 71.5996 c 128,-1,5
 206.4 91.2002 206.4 91.2002 206.4 118.4 c 256,6,7
 206.4 145.6 206.4 145.6 187.6 164.4 c 128,-1,8
 168.8 183.2 168.8 183.2 141.6 183.2 c 256,9,10
 114.4 183.2 114.4 183.2 95.2002 164.4 c 128,-1,11
 76 145.6 76 145.6 76 118.4 c 1,12,-1
 76 118.4 l 1,0,1
23.2002 118.4 m 1,13,14
 23.2002 166.4 23.2002 166.4 58 200.8 c 128,-1,15
 92.7998 235.2 92.7998 235.2 141.6 235.2 c 0,16,17
 178.4 235.2 178.4 235.2 210.8 216 c 128,-1,18
 243.2 196.8 243.2 196.8 262.4 163.2 c 0,19,20
 288.8 117.6 288.8 117.6 315.6 91.5996 c 128,-1,21
 342.4 65.5996 342.4 65.5996 363.2 65.5996 c 0,22,23
 412 65.5996 412 65.5996 446.8 130.8 c 128,-1,24
 481.6 196 481.6 196 481.6 288 c 0,25,26
 481.6 417.6 481.6 417.6 400.4 508.8 c 128,-1,27
 319.2 600 319.2 600 204 600 c 1,28,-1
 224 664 l 1,29,30
 357.6 664 357.6 664 452 554 c 128,-1,31
 546.4 444 546.4 444 546.4 288 c 0,32,33
 546.4 168.8 546.4 168.8 492.8 84.4004 c 128,-1,34
 439.2 0 439.2 0 363.2 0 c 0,35,36
 328 0 328 0 298 21.5996 c 128,-1,37
 268 43.2002 268 43.2002 252.8 79.2002 c 1,38,-1
 247.2 79.2002 l 1,39,40
 237.6 44 237.6 44 208.4 22 c 128,-1,41
 179.2 0 179.2 0 141.6 0 c 0,42,43
 92.7998 0 92.7998 0 58 34.7998 c 128,-1,44
 23.2002 69.5996 23.2002 69.5996 23.2002 118.4 c 1,45,-1
 23.2002 118.4 l 1,13,14
122.4 481.6 m 1,46,47
 68 576 68 576 75.2002 682.4 c 128,-1,48
 82.4004 788.8 82.4004 788.8 149.6 868.8 c 1,49,-1
 210.4 828 l 1,50,51
 153.6 760 153.6 760 146.4 670.4 c 128,-1,52
 139.2 580.8 139.2 580.8 184.8 501.6 c 1,53,-1
 122.4 481.6 l 1,54,-1
 122.4 481.6 l 1,46,47
EndSplineSet
Validated: 37
EndChar

StartChar: U0C10
Encoding: 3088 3088 20
Width: 676
VWidth: 819
GlyphClass: 2
Flags: W
LayerCount: 2
Fore
SplineSet
101.6 120.8 m 1,0,1
 101.6 92 101.6 92 121.2 72 c 128,-1,2
 140.8 52 140.8 52 168.8 52 c 0,3,4
 199.2 52 199.2 52 220.8 71.5996 c 128,-1,5
 242.4 91.2002 242.4 91.2002 242.4 118.4 c 0,6,7
 242.4 148.8 242.4 148.8 221.6 170.4 c 128,-1,8
 200.8 192 200.8 192 171.2 192 c 0,9,10
 142.4 192 142.4 192 122 171.2 c 128,-1,11
 101.6 150.4 101.6 150.4 101.6 120.8 c 1,12,-1
 101.6 120.8 l 1,0,1
35.2002 118.4 m 1,13,14
 35.2002 173.6 35.2002 173.6 74.4004 212.4 c 128,-1,15
 113.6 251.2 113.6 251.2 168.8 251.2 c 0,16,17
 215.2 251.2 215.2 251.2 251.6 225.2 c 128,-1,18
 288 199.2 288 199.2 300.8 157.6 c 0,19,20
 313.6 116.8 313.6 116.8 352.4 91.2002 c 128,-1,21
 391.2 65.5996 391.2 65.5996 440.8 65.5996 c 0,22,23
 495.2 65.5996 495.2 65.5996 534 115.2 c 128,-1,24
 572.8 164.8 572.8 164.8 572.8 235.2 c 0,25,26
 572.8 311.2 572.8 311.2 538 365.2 c 128,-1,27
 503.2 419.2 503.2 419.2 454.4 419.2 c 0,28,29
 412 419.2 412 419.2 381.6 388.4 c 128,-1,30
 351.2 357.6 351.2 357.6 351.2 314.4 c 1,31,-1
 293.6 314.4 l 1,32,33
 293.6 357.6 293.6 357.6 266 388.4 c 128,-1,34
 238.4 419.2 238.4 419.2 200 419.2 c 0,35,36
 163.2 419.2 163.2 419.2 137.2 388.4 c 128,-1,37
 111.2 357.6 111.2 357.6 111.2 314.4 c 1,38,-1
 46.4004 314.4 l 1,39,40
 46.4004 384.8 46.4004 384.8 91.2002 434.4 c 128,-1,41
 136 484 136 484 200 484 c 0,42,43
 238.4 484 238.4 484 270.8 466.8 c 128,-1,44
 303.2 449.6 303.2 449.6 320.8 419.2 c 1,45,-1
 324.8 417.6 l 1,46,47
 342.4 448.8 342.4 448.8 377.2 466.4 c 128,-1,48
 412 484 412 484 454.4 484 c 0,49,50
 530.4 484 530.4 484 584 411.2 c 128,-1,51
 637.6 338.4 637.6 338.4 637.6 235.2 c 0,52,53
 637.6 133.6 637.6 133.6 580 62 c 128,-1,54
 522.4 -9.59961 522.4 -9.59961 440.8 -9.59961 c 0,55,56
 395.2 -9.59961 395.2 -9.59961 356.8 12 c 128,-1,57
 318.4 33.5996 318.4 33.5996 296.8 70.4004 c 1,58,-1
 289.6 70.4004 l 1,59,60
 277.6 34.4004 277.6 34.4004 244 12.4004 c 128,-1,61
 210.4 -9.59961 210.4 -9.59961 168.8 -9.59961 c 0,62,63
 113.6 -9.59961 113.6 -9.59961 74.4004 28 c 128,-1,64
 35.2002 65.5996 35.2002 65.5996 35.2002 118.4 c 1,65,-1
 35.2002 118.4 l 1,13,14
EndSplineSet
Validated: 5
EndChar

StartChar: U0C12
Encoding: 3090 3090 21
Width: 614
VWidth: 819
GlyphClass: 2
Flags: W
LayerCount: 2
Fore
SplineSet
42.4004 144 m 1,0,1
 42.4004 185.6 42.4004 185.6 73.5996 222.8 c 128,-1,2
 104.8 260 104.8 260 156 278.4 c 0,3,4
 199.2 294.4 199.2 294.4 225.2 318 c 128,-1,5
 251.2 341.6 251.2 341.6 251.2 365.6 c 0,6,7
 251.2 388 251.2 388 230 403.6 c 128,-1,8
 208.8 419.2 208.8 419.2 179.2 419.2 c 256,9,10
 149.6 419.2 149.6 419.2 128.4 403.6 c 128,-1,11
 107.2 388 107.2 388 107.2 365.6 c 0,12,13
 107.2 352.8 107.2 352.8 110.4 342.8 c 128,-1,14
 113.6 332.8 113.6 332.8 120 328 c 1,15,-1
 74.4004 300.8 l 1,16,17
 60 311.2 60 311.2 51.5996 328.8 c 128,-1,18
 43.2002 346.4 43.2002 346.4 43.2002 367.2 c 0,19,20
 43.2002 415.2 43.2002 415.2 83.5996 449.6 c 128,-1,21
 124 484 124 484 180.8 484 c 0,22,23
 236.8 484 236.8 484 276.8 451.6 c 128,-1,24
 316.8 419.2 316.8 419.2 316.8 372.8 c 0,25,26
 316.8 330.4 316.8 330.4 285.6 292.8 c 128,-1,27
 254.4 255.2 254.4 255.2 204 236.8 c 0,28,29
 160.8 220.8 160.8 220.8 134 195.2 c 128,-1,30
 107.2 169.6 107.2 169.6 107.2 144 c 0,31,32
 107.2 111.2 107.2 111.2 130.4 88.4004 c 128,-1,33
 153.6 65.5996 153.6 65.5996 186.4 65.5996 c 0,34,35
 231.2 65.5996 231.2 65.5996 262.4 103.6 c 128,-1,36
 293.6 141.6 293.6 141.6 293.6 196 c 1,37,-1
 341.6 196 l 1,38,39
 341.6 141.6 341.6 141.6 372.4 103.6 c 128,-1,40
 403.2 65.5996 403.2 65.5996 447.2 65.5996 c 0,41,42
 480 65.5996 480 65.5996 503.2 88.4004 c 128,-1,43
 526.4 111.2 526.4 111.2 526.4 144 c 0,44,45
 526.4 164.8 526.4 164.8 521.2 184.4 c 128,-1,46
 516 204 516 204 505.6 221.6 c 1,47,-1
 573.6 221.6 l 1,48,49
 582.4 206.4 582.4 206.4 586.8 186.8 c 128,-1,50
 591.2 167.2 591.2 167.2 591.2 144 c 0,51,52
 591.2 84 591.2 84 549.2 42 c 128,-1,53
 507.2 0 507.2 0 447.2 0 c 0,54,55
 404.8 0 404.8 0 370.4 17.5996 c 128,-1,56
 336 35.2002 336 35.2002 318.4 65.5996 c 1,57,-1
 312.8 65.5996 l 1,58,59
 295.2 35.2002 295.2 35.2002 261.2 17.5996 c 128,-1,60
 227.2 0 227.2 0 186.4 0 c 0,61,62
 126.4 0 126.4 0 84.4004 42 c 128,-1,63
 42.4004 84 42.4004 84 42.4004 144 c 1,64,-1
 42.4004 144 l 1,0,1
EndSplineSet
Validated: 5
EndChar

StartChar: U0C13
Encoding: 3091 3091 22
Width: 616
VWidth: 819
GlyphClass: 2
Flags: W
LayerCount: 2
Fore
SplineSet
43.2002 144 m 1,0,1
 43.2002 188 43.2002 188 74.7998 226.4 c 128,-1,2
 106.4 264.8 106.4 264.8 157.6 283.2 c 0,3,4
 200.8 299.2 200.8 299.2 226.8 321.6 c 128,-1,5
 252.8 344 252.8 344 252.8 365.6 c 0,6,7
 252.8 388 252.8 388 231.6 403.6 c 128,-1,8
 210.4 419.2 210.4 419.2 180.8 419.2 c 256,9,10
 151.2 419.2 151.2 419.2 130 403.6 c 128,-1,11
 108.8 388 108.8 388 108.8 365.6 c 0,12,13
 108.8 352.8 108.8 352.8 112 342.8 c 128,-1,14
 115.2 332.8 115.2 332.8 120.8 328 c 1,15,-1
 74.4004 300.8 l 1,16,17
 60 311.2 60 311.2 51.5996 328.4 c 128,-1,18
 43.2002 345.6 43.2002 345.6 43.2002 365.6 c 0,19,20
 43.2002 404.8 43.2002 404.8 71.2002 435.6 c 128,-1,21
 99.2002 466.4 99.2002 466.4 142.4 473.6 c 1,22,-1
 144 477.6 l 1,23,24
 121.6 496.8 121.6 496.8 109.2 522.4 c 128,-1,25
 96.7998 548 96.7998 548 96.7998 575.2 c 0,26,27
 96.7998 618.4 96.7998 618.4 134.8 649.2 c 128,-1,28
 172.8 680 172.8 680 227.2 680 c 0,29,30
 266.4 680 266.4 680 299.6 654.4 c 128,-1,31
 332.8 628.8 332.8 628.8 348 586.4 c 1,32,-1
 291.2 561.6 l 1,33,34
 276.8 586.4 276.8 586.4 259.6 600.4 c 128,-1,35
 242.4 614.4 242.4 614.4 227.2 614.4 c 0,36,37
 200 614.4 200 614.4 180.8 598.8 c 128,-1,38
 161.6 583.2 161.6 583.2 161.6 561.6 c 0,39,40
 161.6 543.2 161.6 543.2 174 522.4 c 128,-1,41
 186.4 501.6 186.4 501.6 209.6 482.4 c 1,42,43
 254.4 482.4 254.4 482.4 286.4 448 c 128,-1,44
 318.4 413.6 318.4 413.6 318.4 365.6 c 0,45,46
 318.4 326.4 318.4 326.4 287.2 290.8 c 128,-1,47
 256 255.2 256 255.2 205.6 236.8 c 0,48,49
 162.4 220.8 162.4 220.8 135.6 195.2 c 128,-1,50
 108.8 169.6 108.8 169.6 108.8 144 c 0,51,52
 108.8 111.2 108.8 111.2 132 88.4004 c 128,-1,53
 155.2 65.5996 155.2 65.5996 188 65.5996 c 0,54,55
 232.8 65.5996 232.8 65.5996 264 103.6 c 128,-1,56
 295.2 141.6 295.2 141.6 295.2 196 c 1,57,-1
 342.4 196 l 1,58,59
 342.4 141.6 342.4 141.6 373.6 103.6 c 128,-1,60
 404.8 65.5996 404.8 65.5996 448.8 65.5996 c 0,61,62
 481.6 65.5996 481.6 65.5996 504.8 88.4004 c 128,-1,63
 528 111.2 528 111.2 528 144 c 0,64,65
 528 164.8 528 164.8 522.8 184.4 c 128,-1,66
 517.6 204 517.6 204 507.2 221.6 c 1,67,-1
 575.2 221.6 l 1,68,69
 584 206.4 584 206.4 588.4 186.8 c 128,-1,70
 592.8 167.2 592.8 167.2 592.8 144 c 0,71,72
 592.8 84 592.8 84 550.8 42 c 128,-1,73
 508.8 0 508.8 0 448.8 0 c 0,74,75
 401.6 0 401.6 0 366.4 20 c 128,-1,76
 331.2 40 331.2 40 322.4 72 c 1,77,-1
 312.8 69.5996 l 1,78,79
 302.4 38.4004 302.4 38.4004 268 19.2002 c 128,-1,80
 233.6 0 233.6 0 188 0 c 0,81,82
 128 0 128 0 85.5996 42 c 128,-1,83
 43.2002 84 43.2002 84 43.2002 144 c 1,84,-1
 43.2002 144 l 1,0,1
EndSplineSet
Validated: 5
EndChar

StartChar: U0C14
Encoding: 3092 3092 23
Width: 734
VWidth: 819
GlyphClass: 2
Flags: W
LayerCount: 2
Fore
SplineSet
40.7998 144 m 1,0,1
 40.7998 183.2 40.7998 183.2 72.7998 218.8 c 128,-1,2
 104.8 254.4 104.8 254.4 157.6 273.6 c 0,3,4
 199.2 288.8 199.2 288.8 224.8 314 c 128,-1,5
 250.4 339.2 250.4 339.2 250.4 365.6 c 0,6,7
 250.4 388 250.4 388 231.2 403.6 c 128,-1,8
 212 419.2 212 419.2 184.8 419.2 c 0,9,10
 152.8 419.2 152.8 419.2 130 403.6 c 128,-1,11
 107.2 388 107.2 388 107.2 365.6 c 0,12,13
 107.2 358.4 107.2 358.4 113.6 346.8 c 128,-1,14
 120 335.2 120 335.2 132 320.8 c 1,15,-1
 85.5996 287.2 l 1,16,17
 67.2002 305.6 67.2002 305.6 57.2002 326 c 128,-1,18
 47.2002 346.4 47.2002 346.4 47.2002 365.6 c 0,19,20
 47.2002 394.4 47.2002 394.4 63.5996 415.6 c 128,-1,21
 80 436.8 80 436.8 104.8 441.6 c 1,22,-1
 104.8 447.2 l 1,23,-1
 81.5996 444.8 l 1,24,-1
 60.7998 444.8 l 1,25,-1
 60.7998 509.6 l 1,26,-1
 224 509.6 l 2,27,28
 240.8 509.6 240.8 509.6 252.4 523.2 c 128,-1,29
 264 536.8 264 536.8 264 556 c 0,30,31
 264 574.4 264 574.4 252 587.6 c 128,-1,32
 240 600.8 240 600.8 223.2 600.8 c 2,33,-1
 -24.7998 600.8 l 1,34,-1
 -24.7998 666.4 l 1,35,-1
 590.4 666.4 l 2,36,37
 650.4 666.4 650.4 666.4 692.4 628.4 c 128,-1,38
 734.4 590.4 734.4 590.4 734.4 536 c 0,39,40
 734.4 488 734.4 488 700 453.6 c 128,-1,41
 665.6 419.2 665.6 419.2 617.6 419.2 c 0,42,43
 568.8 419.2 568.8 419.2 534 453.6 c 128,-1,44
 499.2 488 499.2 488 499.2 536 c 0,45,46
 499.2 552.8 499.2 552.8 505.6 569.6 c 128,-1,47
 512 586.4 512 586.4 524.8 600.8 c 1,48,-1
 523.2 606.4 l 1,49,-1
 482.4 600.8 l 1,50,-1
 315.2 600.8 l 1,51,52
 321.6 592.8 321.6 592.8 325.2 581.2 c 128,-1,53
 328.8 569.6 328.8 569.6 328.8 556 c 0,54,55
 328.8 520 328.8 520 304.4 492.4 c 128,-1,56
 280 464.8 280 464.8 243.2 458.4 c 1,57,-1
 243.2 454.4 l 1,58,59
 274.4 448.8 274.4 448.8 294.8 424.8 c 128,-1,60
 315.2 400.8 315.2 400.8 315.2 368.8 c 0,61,62
 315.2 328 315.2 328 284 291.6 c 128,-1,63
 252.8 255.2 252.8 255.2 202.4 236.8 c 0,64,65
 159.2 220.8 159.2 220.8 133.2 195.6 c 128,-1,66
 107.2 170.4 107.2 170.4 107.2 144 c 0,67,68
 107.2 111.2 107.2 111.2 130 88.4004 c 128,-1,69
 152.8 65.5996 152.8 65.5996 184.8 65.5996 c 0,70,71
 229.6 65.5996 229.6 65.5996 260.8 103.6 c 128,-1,72
 292 141.6 292 141.6 292 196 c 1,73,-1
 340 196 l 1,74,75
 340 141.6 340 141.6 371.2 103.6 c 128,-1,76
 402.4 65.5996 402.4 65.5996 447.2 65.5996 c 0,77,78
 479.2 65.5996 479.2 65.5996 502 88.4004 c 128,-1,79
 524.8 111.2 524.8 111.2 524.8 144 c 0,80,81
 524.8 164.8 524.8 164.8 519.6 184.8 c 128,-1,82
 514.4 204.8 514.4 204.8 504.8 221.6 c 1,83,-1
 572.8 221.6 l 1,84,85
 581.6 206.4 581.6 206.4 586 186.8 c 128,-1,86
 590.4 167.2 590.4 167.2 590.4 144 c 0,87,88
 590.4 84 590.4 84 548.4 42 c 128,-1,89
 506.4 0 506.4 0 447.2 0 c 0,90,91
 406.4 0 406.4 0 371.6 18.7998 c 128,-1,92
 336.8 37.5996 336.8 37.5996 318.4 69.5996 c 1,93,-1
 311.2 69.5996 l 1,94,95
 292.8 37.5996 292.8 37.5996 258.8 18.7998 c 128,-1,96
 224.8 0 224.8 0 184.8 0 c 0,97,98
 124.8 0 124.8 0 82.7998 42 c 128,-1,99
 40.7998 84 40.7998 84 40.7998 144 c 1,100,-1
 40.7998 144 l 1,0,1
550.4 536 m 1,101,102
 550.4 508.8 550.4 508.8 570 489.6 c 128,-1,103
 589.6 470.4 589.6 470.4 617.6 470.4 c 0,104,105
 644.8 470.4 644.8 470.4 663.6 489.6 c 128,-1,106
 682.4 508.8 682.4 508.8 682.4 536 c 256,107,108
 682.4 563.2 682.4 563.2 663.6 582 c 128,-1,109
 644.8 600.8 644.8 600.8 617.6 600.8 c 0,110,111
 589.6 600.8 589.6 600.8 570 582 c 128,-1,112
 550.4 563.2 550.4 563.2 550.4 536 c 1,113,-1
 550.4 536 l 1,101,102
EndSplineSet
Validated: 5
EndChar

StartChar: U0C15
Encoding: 3093 3093 24
Width: 512
VWidth: 819
GlyphClass: 2
Flags: W
AnchorPoint: "Anchor-0" 280 -13.5996 basechar 0
LayerCount: 2
Fore
SplineSet
118.4 353.6 m 1,0,1
 118.4 324 118.4 324 156.4 302.8 c 128,-1,2
 194.4 281.6 194.4 281.6 248.8 281.6 c 0,3,4
 330.4 281.6 330.4 281.6 388.4 241.2 c 128,-1,5
 446.4 200.8 446.4 200.8 446.4 144 c 0,6,7
 446.4 84 446.4 84 386.8 42 c 128,-1,8
 327.2 0 327.2 0 242.4 0 c 0,9,10
 175.2 0 175.2 0 115.6 27.2002 c 128,-1,11
 56 54.4004 56 54.4004 15.2002 103.2 c 1,12,-1
 60 148 l 1,13,14
 92.7998 108.8 92.7998 108.8 140.8 87.2002 c 128,-1,15
 188.8 65.5996 188.8 65.5996 242.4 65.5996 c 0,16,17
 300 65.5996 300 65.5996 340.4 88.4004 c 128,-1,18
 380.8 111.2 380.8 111.2 380.8 144 c 0,19,20
 380.8 179.2 380.8 179.2 336.4 204 c 128,-1,21
 292 228.8 292 228.8 229.6 228.8 c 0,22,23
 156 228.8 156 228.8 104.4 265.2 c 128,-1,24
 52.7998 301.6 52.7998 301.6 52.7998 353.6 c 0,25,26
 52.7998 386.4 52.7998 386.4 77.2002 416.4 c 128,-1,27
 101.6 446.4 101.6 446.4 142.4 464 c 1,28,29
 117.6 490.4 117.6 490.4 104.4 527.6 c 128,-1,30
 91.2002 564.8 91.2002 564.8 91.2002 608 c 1,31,-1
 142.4 608 l 1,32,33
 142.4 556 142.4 556 170.8 519.2 c 128,-1,34
 199.2 482.4 199.2 482.4 239.2 482.4 c 0,35,36
 254.4 482.4 254.4 482.4 270.4 490.4 c 128,-1,37
 286.4 498.4 286.4 498.4 300.8 512.8 c 2,38,-1
 464.8 670.4 l 1,39,-1
 499.2 636.8 l 1,40,-1
 332.8 468.8 l 1,41,42
 360 460.8 360 460.8 383.2 448.4 c 128,-1,43
 406.4 436 406.4 436 425.6 420 c 1,44,-1
 394.4 361.6 l 1,45,46
 360.8 389.6 360.8 389.6 320.4 404.4 c 128,-1,47
 280 419.2 280 419.2 236.8 419.2 c 0,48,49
 188 419.2 188 419.2 153.2 400 c 128,-1,50
 118.4 380.8 118.4 380.8 118.4 353.6 c 1,51,-1
 118.4 353.6 l 1,0,1
EndSplineSet
Validated: 5
MultipleSubs2: "Multiple Substitution lookup 325" U0C15_U0C46.abvs U0C56 U0C15_U0C46.abvs U0C56
EndChar

StartChar: U0C16
Encoding: 3094 3094 25
Width: 672
VWidth: 819
GlyphClass: 2
Flags: W
LayerCount: 2
Fore
SplineSet
124 365.6 m 1,0,1
 124 338.4 124 338.4 142.8 319.6 c 128,-1,2
 161.6 300.8 161.6 300.8 188.8 300.8 c 256,3,4
 216 300.8 216 300.8 235.2 319.6 c 128,-1,5
 254.4 338.4 254.4 338.4 254.4 365.6 c 256,6,7
 254.4 392.8 254.4 392.8 235.2 412 c 128,-1,8
 216 431.2 216 431.2 188.8 431.2 c 256,9,10
 161.6 431.2 161.6 431.2 142.8 412 c 128,-1,11
 124 392.8 124 392.8 124 365.6 c 1,12,-1
 124 365.6 l 1,0,1
88 97.5996 m 1,13,14
 88 84 88 84 103.6 74.7998 c 128,-1,15
 119.2 65.5996 119.2 65.5996 141.6 65.5996 c 0,16,17
 186.4 65.5996 186.4 65.5996 217.6 71.5996 c 128,-1,18
 248.8 77.5996 248.8 77.5996 262.4 89.5996 c 1,19,-1
 262.4 96.7998 l 1,20,21
 237.6 113.6 237.6 113.6 208.4 122.8 c 128,-1,22
 179.2 132 179.2 132 148 132 c 0,23,24
 123.2 132 123.2 132 105.6 122 c 128,-1,25
 88 112 88 112 88 97.5996 c 1,26,-1
 88 97.5996 l 1,13,14
450.4 0 m 1,27,28
 423.2 0 423.2 0 396.8 10 c 128,-1,29
 370.4 20 370.4 20 348 39.2002 c 1,30,-1
 342.4 36.7998 l 1,31,-1
 359.2 -65.5996 l 1,32,-1
 359.2 -118.4 l 1,33,-1
 280 -118.4 l 1,34,-1
 280 -65.5996 l 1,35,-1
 297.6 36.7998 l 1,36,-1
 292 39.2002 l 1,37,38
 269.6 20 269.6 20 230.8 10 c 128,-1,39
 192 0 192 0 141.6 0 c 0,40,41
 92.7998 0 92.7998 0 58 28.4004 c 128,-1,42
 23.2002 56.7998 23.2002 56.7998 23.2002 97.5996 c 256,43,44
 23.2002 138.4 23.2002 138.4 59.5996 167.6 c 128,-1,45
 96 196.8 96 196.8 148 196.8 c 0,46,47
 198.4 196.8 198.4 196.8 238.8 181.2 c 128,-1,48
 279.2 165.6 279.2 165.6 303.2 137.6 c 1,49,-1
 308.8 137.6 l 1,50,51
 320.8 151.2 320.8 151.2 326.8 176.4 c 128,-1,52
 332.8 201.6 332.8 201.6 332.8 235.2 c 0,53,54
 332.8 272.8 332.8 272.8 327.2 300 c 128,-1,55
 321.6 327.2 321.6 327.2 310.4 340 c 1,56,-1
 303.2 338.4 l 1,57,58
 292.8 298.4 292.8 298.4 260.8 273.6 c 128,-1,59
 228.8 248.8 228.8 248.8 188.8 248.8 c 0,60,61
 140 248.8 140 248.8 105.2 283.2 c 128,-1,62
 70.4004 317.6 70.4004 317.6 70.4004 365.6 c 0,63,64
 70.4004 414.4 70.4004 414.4 105.2 449.2 c 128,-1,65
 140 484 140 484 188.8 484 c 0,66,67
 276 484 276 484 337.2 411.2 c 128,-1,68
 398.4 338.4 398.4 338.4 398.4 235.2 c 0,69,70
 398.4 200.8 398.4 200.8 386.4 165.2 c 128,-1,71
 374.4 129.6 374.4 129.6 351.2 96.7998 c 1,72,-1
 351.2 91.2002 l 1,73,74
 372.8 78.4004 372.8 78.4004 398 72 c 128,-1,75
 423.2 65.5996 423.2 65.5996 450.4 65.5996 c 0,76,77
 499.2 65.5996 499.2 65.5996 534 115.2 c 128,-1,78
 568.8 164.8 568.8 164.8 568.8 235.2 c 0,79,80
 568.8 303.2 568.8 303.2 540.4 355.2 c 128,-1,81
 512 407.2 512 407.2 464.8 424 c 1,82,-1
 503.2 482.4 l 1,83,84
 561.6 460.8 561.6 460.8 597.6 392.8 c 128,-1,85
 633.6 324.8 633.6 324.8 633.6 235.2 c 0,86,87
 633.6 137.6 633.6 137.6 580 68.7998 c 128,-1,88
 526.4 0 526.4 0 450.4 0 c 1,89,-1
 450.4 0 l 1,27,28
EndSplineSet
Validated: 5
MultipleSubs2: "Multiple Substitution lookup 325" U0C16_U0C46.abvs U0C56 U0C16_U0C46.abvs U0C56
EndChar

StartChar: U0C17
Encoding: 3095 3095 26
Width: 519
VWidth: 819
GlyphClass: 2
Flags: W
LayerCount: 2
Fore
SplineSet
36.7998 0 m 5,0,1
 36.7998 163.2 36.7998 163.2 75.5996 284.8 c 132,-1,2
 114.4 406.4 114.4 406.4 184.8 460.8 c 5,3,4
 151.2 485.6 151.2 485.6 132.8 528 c 132,-1,5
 114.4 570.4 114.4 570.4 114.4 621.6 c 5,6,-1
 165.6 621.6 l 5,7,8
 165.6 567.2 165.6 567.2 193.2 529.2 c 132,-1,9
 220.8 491.2 220.8 491.2 260 491.2 c 4,10,11
 273.6 491.2 273.6 491.2 290.4 500.4 c 132,-1,12
 307.2 509.6 307.2 509.6 324 526.4 c 6,13,-1
 488 684 l 5,14,-1
 522.4 650.4 l 5,15,-1
 334.4 462.4 l 5,16,17
 404.8 408 404.8 408 443.6 286 c 132,-1,18
 482.4 164 482.4 164 482.4 0 c 5,19,-1
 417.6 0 l 5,20,21
 417.6 173.6 417.6 173.6 371.6 296.4 c 132,-1,22
 325.6 419.2 325.6 419.2 260 419.2 c 260,23,24
 194.4 419.2 194.4 419.2 148 296.4 c 132,-1,25
 101.6 173.6 101.6 173.6 101.6 0 c 5,26,-1
 36.7998 0 l 5,27,-1
 36.7998 0 l 5,0,1
EndSplineSet
Validated: 5
MultipleSubs2: "Multiple Substitution lookup 325" U0C17_U0C46.abvs U0C56 U0C17_U0C46.abvs U0C56
EndChar

StartChar: U0C18
Encoding: 3096 3096 27
Width: 896
VWidth: 819
GlyphClass: 2
Flags: W
LayerCount: 2
Fore
SplineSet
76 118.4 m 1,0,1
 76 91.2002 76 91.2002 95.2002 71.5996 c 128,-1,2
 114.4 52 114.4 52 141.6 52 c 256,3,4
 168.8 52 168.8 52 187.6 71.5996 c 128,-1,5
 206.4 91.2002 206.4 91.2002 206.4 118.4 c 256,6,7
 206.4 145.6 206.4 145.6 187.6 164.4 c 128,-1,8
 168.8 183.2 168.8 183.2 141.6 183.2 c 256,9,10
 114.4 183.2 114.4 183.2 95.2002 164.4 c 128,-1,11
 76 145.6 76 145.6 76 118.4 c 1,12,-1
 76 118.4 l 1,0,1
664.8 65.5996 m 1,13,14
 719.2 65.5996 719.2 65.5996 757.2 107.6 c 128,-1,15
 795.2 149.6 795.2 149.6 795.2 209.6 c 0,16,17
 795.2 289.6 795.2 289.6 746 350 c 128,-1,18
 696.8 410.4 696.8 410.4 621.6 424 c 1,19,-1
 643.2 488 l 1,20,21
 737.6 471.2 737.6 471.2 799.2 392.4 c 128,-1,22
 860.8 313.6 860.8 313.6 860.8 209.6 c 0,23,24
 860.8 122.4 860.8 122.4 803.2 61.2002 c 128,-1,25
 745.6 0 745.6 0 664.8 0 c 0,26,27
 618.4 0 618.4 0 577.6 21.5996 c 128,-1,28
 536.8 43.2002 536.8 43.2002 509.6 81.5996 c 1,29,-1
 503.2 81.5996 l 1,30,31
 485.6 44 485.6 44 447.6 22 c 128,-1,32
 409.6 0 409.6 0 363.2 0 c 0,33,34
 332 0 332 0 307.2 12.4004 c 128,-1,35
 282.4 24.7998 282.4 24.7998 269.6 46.4004 c 1,36,-1
 262.4 46.4004 l 1,37,-1
 285.6 -104.8 l 1,38,-1
 285.6 -157.6 l 1,39,-1
 206.4 -157.6 l 1,40,-1
 206.4 -104.8 l 1,41,-1
 236.8 43.2002 l 1,42,-1
 231.2 46.4004 l 1,43,44
 214.4 24.7998 214.4 24.7998 190.8 12.4004 c 128,-1,45
 167.2 0 167.2 0 141.6 0 c 0,46,47
 92.7998 0 92.7998 0 58 34.7998 c 128,-1,48
 23.2002 69.5996 23.2002 69.5996 23.2002 118.4 c 0,49,50
 23.2002 166.4 23.2002 166.4 58 200.8 c 128,-1,51
 92.7998 235.2 92.7998 235.2 141.6 235.2 c 0,52,53
 180 235.2 180 235.2 214.4 208.4 c 128,-1,54
 248.8 181.6 248.8 181.6 266.4 137.6 c 0,55,56
 279.2 104.8 279.2 104.8 306 85.2002 c 128,-1,57
 332.8 65.5996 332.8 65.5996 363.2 65.5996 c 0,58,59
 406.4 65.5996 406.4 65.5996 437.2 107.6 c 128,-1,60
 468 149.6 468 149.6 468 209.6 c 0,61,62
 468 278.4 468 278.4 420.4 338 c 128,-1,63
 372.8 397.6 372.8 397.6 295.2 425.6 c 1,64,-1
 316.8 482.4 l 1,65,66
 414.4 447.2 414.4 447.2 473.6 372 c 128,-1,67
 532.8 296.8 532.8 296.8 532.8 209.6 c 0,68,69
 532.8 188 532.8 188 531.6 174 c 128,-1,70
 530.4 160 530.4 160 528 153.6 c 1,71,72
 551.2 112.8 551.2 112.8 588 89.2002 c 128,-1,73
 624.8 65.5996 624.8 65.5996 664.8 65.5996 c 1,74,-1
 664.8 65.5996 l 1,13,14
11.2002 633.6 m 1,75,-1
 60.7998 633.6 l 1,76,77
 60.7998 584.8 60.7998 584.8 84.4004 550 c 128,-1,78
 108 515.2 108 515.2 141.6 515.2 c 0,79,80
 158.4 515.2 158.4 515.2 176.4 521.6 c 128,-1,81
 194.4 528 194.4 528 212 540 c 2,82,-1
 427.2 685.6 l 1,83,-1
 458.4 641.6 l 1,84,-1
 239.2 492 l 2,85,86
 214.4 475.2 214.4 475.2 189.6 466 c 128,-1,87
 164.8 456.8 164.8 456.8 141.6 456.8 c 0,88,89
 87.2002 456.8 87.2002 456.8 49.2002 508.4 c 128,-1,90
 11.2002 560 11.2002 560 11.2002 633.6 c 1,91,-1
 11.2002 633.6 l 1,75,-1
EndSplineSet
Validated: 5
MultipleSubs2: "Multiple Substitution lookup 325" U0C18_U0C46.abvs U0C56 U0C18_U0C46.abvs U0C56
EndChar

StartChar: U0C19
Encoding: 3097 3097 28
Width: 618
VWidth: 819
GlyphClass: 2
Flags: W
LayerCount: 2
Fore
SplineSet
43.2002 144 m 1,0,1
 43.2002 188.8 43.2002 188.8 76.7998 228 c 128,-1,2
 110.4 267.2 110.4 267.2 164.8 287.2 c 0,3,4
 204.8 301.6 204.8 301.6 228.8 323.2 c 128,-1,5
 252.8 344.8 252.8 344.8 252.8 365.6 c 0,6,7
 252.8 388 252.8 388 231.6 403.6 c 128,-1,8
 210.4 419.2 210.4 419.2 180.8 419.2 c 256,9,10
 151.2 419.2 151.2 419.2 130 403.6 c 128,-1,11
 108.8 388 108.8 388 108.8 365.6 c 0,12,13
 108.8 357.6 108.8 357.6 114.4 348 c 128,-1,14
 120 338.4 120 338.4 130.4 328 c 1,15,-1
 76 300.8 l 1,16,17
 60 320 60 320 51.5996 336.4 c 128,-1,18
 43.2002 352.8 43.2002 352.8 43.2002 365.6 c 0,19,20
 43.2002 414.4 43.2002 414.4 84 449.2 c 128,-1,21
 124.8 484 124.8 484 182.4 484 c 0,22,23
 232 484 232 484 268.8 458 c 128,-1,24
 305.6 432 305.6 432 312.8 392 c 1,25,-1
 436.8 392 l 1,26,-1
 436.8 470.4 l 1,27,-1
 488 470.4 l 1,28,-1
 488 392 l 1,29,-1
 567.2 392 l 1,30,-1
 567.2 340 l 1,31,-1
 314.4 340 l 1,32,33
 308.8 308.8 308.8 308.8 279.6 280.8 c 128,-1,34
 250.4 252.8 250.4 252.8 205.6 236.8 c 0,35,36
 162.4 220.8 162.4 220.8 135.6 195.2 c 128,-1,37
 108.8 169.6 108.8 169.6 108.8 144 c 0,38,39
 108.8 111.2 108.8 111.2 132 88.4004 c 128,-1,40
 155.2 65.5996 155.2 65.5996 188 65.5996 c 0,41,42
 232.8 65.5996 232.8 65.5996 264 96 c 128,-1,43
 295.2 126.4 295.2 126.4 295.2 168.8 c 1,44,-1
 342.4 168.8 l 1,45,46
 342.4 126.4 342.4 126.4 373.6 96 c 128,-1,47
 404.8 65.5996 404.8 65.5996 448.8 65.5996 c 0,48,49
 481.6 65.5996 481.6 65.5996 504.8 88.4004 c 128,-1,50
 528 111.2 528 111.2 528 144 c 0,51,52
 528 152 528 152 523.6 167.6 c 128,-1,53
 519.2 183.2 519.2 183.2 509.6 209.6 c 1,54,-1
 575.2 209.6 l 1,55,56
 583.2 196 583.2 196 587.2 179.2 c 128,-1,57
 591.2 162.4 591.2 162.4 591.2 144 c 0,58,59
 591.2 84 591.2 84 549.6 42 c 128,-1,60
 508 0 508 0 448.8 0 c 0,61,62
 408 0 408 0 373.6 18.4004 c 128,-1,63
 339.2 36.7998 339.2 36.7998 320.8 68 c 1,64,-1
 316.8 65.5996 l 1,65,66
 299.2 35.2002 299.2 35.2002 264.8 17.5996 c 128,-1,67
 230.4 0 230.4 0 188 0 c 0,68,69
 128 0 128 0 85.5996 42 c 128,-1,70
 43.2002 84 43.2002 84 43.2002 144 c 1,71,-1
 43.2002 144 l 1,0,1
EndSplineSet
Validated: 5
MultipleSubs2: "Multiple Substitution lookup 325" U0C19_U0C46.abvs U0C56 U0C19_U0C46.abvs U0C56
EndChar

StartChar: U0C1A
Encoding: 3098 3098 29
Width: 640
VWidth: 819
GlyphClass: 2
Flags: W
LayerCount: 2
Fore
SplineSet
428 0 m 1,0,1
 396 0 396 0 370 16.4004 c 128,-1,2
 344 32.7998 344 32.7998 334.4 60 c 1,3,-1
 328.8 58.4004 l 1,4,5
 319.2 32 319.2 32 292.8 16 c 128,-1,6
 266.4 0 266.4 0 232.8 0 c 0,7,8
 178.4 0 178.4 0 140 38 c 128,-1,9
 101.6 76 101.6 76 101.6 130.4 c 0,10,11
 101.6 146.4 101.6 146.4 106.8 161.6 c 128,-1,12
 112 176.8 112 176.8 122.4 188.8 c 1,13,-1
 115.2 196 l 1,14,-1
 9.59961 196 l 1,15,-1
 9.59961 260.8 l 1,16,-1
 219.2 260.8 l 1,17,-1
 219.2 216 l 1,18,19
 196 207.2 196 207.2 181.6 184 c 128,-1,20
 167.2 160.8 167.2 160.8 167.2 130.4 c 0,21,22
 167.2 103.2 167.2 103.2 186.4 84.4004 c 128,-1,23
 205.6 65.5996 205.6 65.5996 232.8 65.5996 c 256,24,25
 260 65.5996 260 65.5996 278.8 84.4004 c 128,-1,26
 297.6 103.2 297.6 103.2 297.6 130.4 c 2,27,-1
 297.6 169.6 l 1,28,-1
 363.2 169.6 l 1,29,-1
 363.2 130.4 l 2,30,31
 363.2 103.2 363.2 103.2 382 84.4004 c 128,-1,32
 400.8 65.5996 400.8 65.5996 428 65.5996 c 0,33,34
 474.4 65.5996 474.4 65.5996 507.2 113.6 c 128,-1,35
 540 161.6 540 161.6 540 229.6 c 0,36,37
 540 315.2 540 315.2 479.2 376 c 128,-1,38
 418.4 436.8 418.4 436.8 332 436.8 c 2,39,-1
 310.4 436.8 l 2,40,41
 250.4 436.8 250.4 436.8 207.6 479.6 c 128,-1,42
 164.8 522.4 164.8 522.4 164.8 582.4 c 1,43,-1
 216 582.4 l 1,44,45
 216 544 216 544 243.6 516 c 128,-1,46
 271.2 488 271.2 488 311.2 485.6 c 0,47,48
 324 485.6 324 485.6 340.4 494.8 c 128,-1,49
 356.8 504 356.8 504 373.6 520.8 c 2,50,-1
 538.4 678.4 l 1,51,-1
 572.8 644.8 l 1,52,-1
 400.8 482.4 l 1,53,54
 490.4 460 490.4 460 547.6 389.2 c 128,-1,55
 604.8 318.4 604.8 318.4 604.8 229.6 c 0,56,57
 604.8 134.4 604.8 134.4 553.2 67.2002 c 128,-1,58
 501.6 0 501.6 0 428 0 c 1,59,-1
 428 0 l 1,0,1
EndSplineSet
Validated: 5
MultipleSubs2: "Multiple Substitution lookup 325" U0C1A_U0C46.abvs U0C56 U0C1A_U0C46.abvs U0C56
EndChar

StartChar: U0C1B
Encoding: 3099 3099 30
Width: 641
VWidth: 819
GlyphClass: 2
Flags: W
LayerCount: 2
Fore
SplineSet
428 0 m 1,0,1
 405.6 0 405.6 0 384.8 9.59961 c 128,-1,2
 364 19.2002 364 19.2002 348 36.7998 c 1,3,-1
 344 33.5996 l 1,4,-1
 367.2 -126.4 l 1,5,-1
 367.2 -184.8 l 1,6,-1
 287.2 -184.8 l 1,7,-1
 287.2 -132 l 1,8,-1
 307.2 33.5996 l 1,9,-1
 303.2 35.2002 l 1,10,11
 289.6 18.4004 289.6 18.4004 271.2 9.2002 c 128,-1,12
 252.8 0 252.8 0 232.8 0 c 0,13,14
 178.4 0 178.4 0 140 38 c 128,-1,15
 101.6 76 101.6 76 101.6 130.4 c 0,16,17
 101.6 147.2 101.6 147.2 107.6 163.2 c 128,-1,18
 113.6 179.2 113.6 179.2 124.8 192.8 c 1,19,-1
 122.4 198.4 l 1,20,-1
 93.5996 196 l 1,21,-1
 9.59961 196 l 1,22,-1
 9.59961 260.8 l 1,23,-1
 219.2 260.8 l 1,24,-1
 219.2 216 l 1,25,26
 196 207.2 196 207.2 181.6 184 c 128,-1,27
 167.2 160.8 167.2 160.8 167.2 130.4 c 0,28,29
 167.2 103.2 167.2 103.2 186.4 84.4004 c 128,-1,30
 205.6 65.5996 205.6 65.5996 232.8 65.5996 c 256,31,32
 260 65.5996 260 65.5996 278.8 84.4004 c 128,-1,33
 297.6 103.2 297.6 103.2 297.6 130.4 c 2,34,-1
 297.6 169.6 l 1,35,-1
 363.2 169.6 l 1,36,-1
 363.2 130.4 l 2,37,38
 363.2 103.2 363.2 103.2 384.4 84.4004 c 128,-1,39
 405.6 65.5996 405.6 65.5996 435.2 65.5996 c 0,40,41
 478.4 65.5996 478.4 65.5996 509.2 113.6 c 128,-1,42
 540 161.6 540 161.6 540 229.6 c 0,43,44
 540 308 540 308 488.8 366.8 c 128,-1,45
 437.6 425.6 437.6 425.6 361.6 435.2 c 2,46,-1
 322.4 435.2 l 2,47,48
 264 435.2 264 435.2 222.4 478.4 c 128,-1,49
 180.8 521.6 180.8 521.6 180.8 582.4 c 1,50,-1
 232.8 582.4 l 1,51,52
 232.8 542.4 232.8 542.4 260.4 514 c 128,-1,53
 288 485.6 288 485.6 326.4 485.6 c 0,54,55
 338.4 485.6 338.4 485.6 354 494.8 c 128,-1,56
 369.6 504 369.6 504 386.4 520.8 c 2,57,-1
 556 685.6 l 1,58,-1
 588.8 644.8 l 1,59,-1
 416 481.6 l 1,60,61
 499.2 460.8 499.2 460.8 552 390.4 c 128,-1,62
 604.8 320 604.8 320 604.8 229.6 c 0,63,64
 604.8 134.4 604.8 134.4 553.2 67.2002 c 128,-1,65
 501.6 0 501.6 0 428 0 c 1,66,-1
 428 0 l 1,0,1
EndSplineSet
Validated: 5
MultipleSubs2: "Multiple Substitution lookup 325" U0C1B_U0C46.abvs U0C56 U0C1B_U0C46.abvs U0C56
EndChar

StartChar: U0C1C
Encoding: 3100 3100 31
Width: 651
VWidth: 819
GlyphClass: 2
Flags: W
LayerCount: 2
Fore
SplineSet
43.2002 144 m 1,0,1
 43.2002 188 43.2002 188 74.7998 226.8 c 128,-1,2
 106.4 265.6 106.4 265.6 157.6 284 c 0,3,4
 200.8 300 200.8 300 226.8 322.4 c 128,-1,5
 252.8 344.8 252.8 344.8 252.8 365.6 c 0,6,7
 252.8 388 252.8 388 231.6 403.6 c 128,-1,8
 210.4 419.2 210.4 419.2 180.8 419.2 c 256,9,10
 151.2 419.2 151.2 419.2 130 403.6 c 128,-1,11
 108.8 388 108.8 388 108.8 365.6 c 0,12,13
 108.8 351.2 108.8 351.2 112.8 338 c 128,-1,14
 116.8 324.8 116.8 324.8 124 314.4 c 1,15,-1
 68 300.8 l 1,16,17
 56 315.2 56 315.2 49.5996 332 c 128,-1,18
 43.2002 348.8 43.2002 348.8 43.2002 365.6 c 0,19,20
 43.2002 413.6 43.2002 413.6 83.5996 448 c 128,-1,21
 124 482.4 124 482.4 180.8 482.4 c 0,22,23
 220 482.4 220 482.4 252.4 466 c 128,-1,24
 284.8 449.6 284.8 449.6 300.8 421.6 c 1,25,26
 352 370.4 352 370.4 400.8 342.4 c 128,-1,27
 449.6 314.4 449.6 314.4 488 314.4 c 0,28,29
 515.2 314.4 515.2 314.4 534.4 329.2 c 128,-1,30
 553.6 344 553.6 344 553.6 365.6 c 0,31,32
 553.6 382.4 553.6 382.4 534.4 394 c 128,-1,33
 515.2 405.6 515.2 405.6 488 405.6 c 0,34,35
 480.8 405.6 480.8 405.6 467.6 401.6 c 128,-1,36
 454.4 397.6 454.4 397.6 429.6 388.8 c 1,37,-1
 406.4 440.8 l 1,38,39
 423.2 455.2 423.2 455.2 444.4 462.8 c 128,-1,40
 465.6 470.4 465.6 470.4 488 470.4 c 0,41,42
 542.4 470.4 542.4 470.4 580.4 439.6 c 128,-1,43
 618.4 408.8 618.4 408.8 618.4 365.6 c 0,44,45
 618.4 317.6 618.4 317.6 580.4 283.2 c 128,-1,46
 542.4 248.8 542.4 248.8 488 248.8 c 0,47,48
 444.8 248.8 444.8 248.8 399.2 274.8 c 128,-1,49
 353.6 300.8 353.6 300.8 314.4 348 c 1,50,-1
 307.2 346.4 l 1,51,52
 307.2 313.6 307.2 313.6 279.2 283.6 c 128,-1,53
 251.2 253.6 251.2 253.6 205.6 236.8 c 0,54,55
 162.4 220.8 162.4 220.8 135.6 195.2 c 128,-1,56
 108.8 169.6 108.8 169.6 108.8 144 c 0,57,58
 108.8 111.2 108.8 111.2 132 88.4004 c 128,-1,59
 155.2 65.5996 155.2 65.5996 188 65.5996 c 0,60,61
 232.8 65.5996 232.8 65.5996 264 103.6 c 128,-1,62
 295.2 141.6 295.2 141.6 295.2 196 c 1,63,-1
 342.4 196 l 1,64,65
 342.4 141.6 342.4 141.6 373.6 103.6 c 128,-1,66
 404.8 65.5996 404.8 65.5996 448.8 65.5996 c 0,67,68
 481.6 65.5996 481.6 65.5996 504.8 88.4004 c 128,-1,69
 528 111.2 528 111.2 528 144 c 0,70,71
 528 164.8 528 164.8 522.8 184.4 c 128,-1,72
 517.6 204 517.6 204 507.2 221.6 c 1,73,-1
 576.8 221.6 l 1,74,75
 584.8 200 584.8 200 588.8 180.4 c 128,-1,76
 592.8 160.8 592.8 160.8 592.8 144 c 0,77,78
 592.8 84 592.8 84 550.8 42 c 128,-1,79
 508.8 0 508.8 0 448.8 0 c 0,80,81
 409.6 0 409.6 0 376 19.5996 c 128,-1,82
 342.4 39.2002 342.4 39.2002 322.4 73.5996 c 1,83,-1
 314.4 74.4004 l 1,84,85
 294.4 40 294.4 40 260.4 20 c 128,-1,86
 226.4 0 226.4 0 188 0 c 0,87,88
 128 0 128 0 85.5996 42 c 128,-1,89
 43.2002 84 43.2002 84 43.2002 144 c 1,90,-1
 43.2002 144 l 1,0,1
EndSplineSet
Validated: 5
MultipleSubs2: "Multiple Substitution lookup 325" U0C1C_U0C46.abvs U0C56 U0C1C_U0C46.abvs U0C56
EndChar

StartChar: U0C1D
Encoding: 3101 3101 32
Width: 1183
VWidth: 819
GlyphClass: 2
Flags: W
LayerCount: 2
Fore
SplineSet
97.5996 235.2 m 1,0,1
 97.5996 164.8 97.5996 164.8 147.6 115.2 c 128,-1,2
 197.6 65.5996 197.6 65.5996 268 65.5996 c 256,3,4
 338.4 65.5996 338.4 65.5996 388 115.2 c 128,-1,5
 437.6 164.8 437.6 164.8 437.6 235.2 c 0,6,7
 437.6 308.8 437.6 308.8 388 361.2 c 128,-1,8
 338.4 413.6 338.4 413.6 268 413.6 c 256,9,10
 197.6 413.6 197.6 413.6 147.6 361.2 c 128,-1,11
 97.5996 308.8 97.5996 308.8 97.5996 235.2 c 1,12,-1
 97.5996 235.2 l 1,0,1
32.7998 235.2 m 1,13,14
 32.7998 308 32.7998 308 82 368.8 c 128,-1,15
 131.2 429.6 131.2 429.6 210.4 455.2 c 1,16,17
 169.6 478.4 169.6 478.4 146 521.2 c 128,-1,18
 122.4 564 122.4 564 122.4 614.4 c 1,19,-1
 175.2 614.4 l 1,20,21
 175.2 560 175.2 560 202.4 522 c 128,-1,22
 229.6 484 229.6 484 268 484 c 0,23,24
 280 484 280 484 295.2 490 c 128,-1,25
 310.4 496 310.4 496 326.4 507.2 c 2,26,-1
 507.2 668 l 1,27,-1
 546.4 624 l 1,28,-1
 345.6 460 l 1,29,30
 417.6 433.6 417.6 433.6 461.2 372 c 128,-1,31
 504.8 310.4 504.8 310.4 504.8 235.2 c 0,32,33
 504.8 220 504.8 220 499.6 198 c 128,-1,34
 494.4 176 494.4 176 484 148 c 1,35,36
 506.4 109.6 506.4 109.6 543.2 87.5996 c 128,-1,37
 580 65.5996 580 65.5996 621.6 65.5996 c 0,38,39
 678.4 65.5996 678.4 65.5996 718.8 117.2 c 128,-1,40
 759.2 168.8 759.2 168.8 759.2 242.4 c 256,41,42
 759.2 316 759.2 316 716 368 c 128,-1,43
 672.8 420 672.8 420 612 420 c 1,44,-1
 633.6 476 l 1,45,46
 712.8 476 712.8 476 768.4 408 c 128,-1,47
 824 340 824 340 824 243.2 c 0,48,49
 824 214.4 824 214.4 820.4 192 c 128,-1,50
 816.8 169.6 816.8 169.6 810.4 153.6 c 1,51,52
 824.8 113.6 824.8 113.6 862.8 89.5996 c 128,-1,53
 900.8 65.5996 900.8 65.5996 948 65.5996 c 0,54,55
 1002.4 65.5996 1002.4 65.5996 1041.2 117.2 c 128,-1,56
 1080 168.8 1080 168.8 1080 242.4 c 256,57,58
 1080 316 1080 316 1038.8 368 c 128,-1,59
 997.6 420 997.6 420 940 420 c 1,60,-1
 975.2 477.6 l 1,61,62
 1045.6 477.6 1045.6 477.6 1095.2 408.8 c 128,-1,63
 1144.8 340 1144.8 340 1144.8 242.4 c 0,64,65
 1144.8 141.6 1144.8 141.6 1087.2 70.7998 c 128,-1,66
 1029.6 0 1029.6 0 948 0 c 0,67,68
 908.8 0 908.8 0 869.2 20.7998 c 128,-1,69
 829.6 41.5996 829.6 41.5996 798.4 79.2002 c 1,70,-1
 831.2 -77.5996 l 1,71,-1
 831.2 -130.4 l 1,72,-1
 752 -130.4 l 1,73,-1
 752 -77.5996 l 1,74,-1
 773.6 85.5996 l 1,75,76
 745.6 45.5996 745.6 45.5996 705.2 22.7998 c 128,-1,77
 664.8 0 664.8 0 621.6 0 c 0,78,79
 575.2 0 575.2 0 531.6 25.2002 c 128,-1,80
 488 50.4004 488 50.4004 456.8 95.2002 c 1,81,82
 421.6 50.4004 421.6 50.4004 372 25.2002 c 128,-1,83
 322.4 0 322.4 0 268 0 c 0,84,85
 170.4 0 170.4 0 101.6 68.7998 c 128,-1,86
 32.7998 137.6 32.7998 137.6 32.7998 235.2 c 1,87,-1
 32.7998 235.2 l 1,13,14
EndSplineSet
Validated: 5
MultipleSubs2: "Multiple Substitution lookup 325" U0C1D_U0C46.abvs U0C56 U0C1D_U0C46.abvs U0C56
EndChar

StartChar: U0C1E
Encoding: 3102 3102 33
Width: 808
VWidth: 819
GlyphClass: 2
Flags: W
LayerCount: 2
Fore
SplineSet
15.2002 314.4 m 1,0,1
 15.2002 384.8 15.2002 384.8 62 434.4 c 128,-1,2
 108.8 484 108.8 484 174.4 484 c 0,3,4
 204.8 484 204.8 484 233.2 465.2 c 128,-1,5
 261.6 446.4 261.6 446.4 280 414.4 c 1,6,-1
 285.6 414.4 l 1,7,8
 304 446.4 304 446.4 333.6 465.2 c 128,-1,9
 363.2 484 363.2 484 396 484 c 0,10,11
 444.8 484 444.8 484 486.8 459.2 c 128,-1,12
 528.8 434.4 528.8 434.4 553.6 392 c 1,13,-1
 670.4 392 l 1,14,-1
 670.4 470.4 l 1,15,-1
 723.2 470.4 l 1,16,-1
 723.2 392 l 1,17,-1
 800.8 392 l 1,18,-1
 800.8 340 l 1,19,-1
 571.2 340 l 1,20,21
 575.2 328.8 575.2 328.8 577.2 308.8 c 128,-1,22
 579.2 288.8 579.2 288.8 579.2 260.8 c 0,23,24
 579.2 224 579.2 224 567.2 187.2 c 128,-1,25
 555.2 150.4 555.2 150.4 532.8 118.4 c 1,26,-1
 532.8 111.2 l 1,27,28
 555.2 88.7998 555.2 88.7998 567.2 42.7998 c 128,-1,29
 579.2 -3.2002 579.2 -3.2002 579.2 -65.5996 c 1,30,-1
 514.4 -65.5996 l 1,31,32
 514.4 -24 514.4 -24 507.6 9.59961 c 128,-1,33
 500.8 43.2002 500.8 43.2002 488 65.5996 c 1,34,-1
 481.6 72 l 1,35,36
 440 36.7998 440 36.7998 387.6 18.4004 c 128,-1,37
 335.2 0 335.2 0 278.4 0 c 0,38,39
 212.8 0 212.8 0 166.8 34.7998 c 128,-1,40
 120.8 69.5996 120.8 69.5996 120.8 118.4 c 0,41,42
 120.8 166.4 120.8 166.4 166.8 200.8 c 128,-1,43
 212.8 235.2 212.8 235.2 278.4 235.2 c 0,44,45
 339.2 235.2 339.2 235.2 393.6 216.8 c 128,-1,46
 448 198.4 448 198.4 489.6 163.2 c 1,47,48
 501.6 184 501.6 184 508 208.8 c 128,-1,49
 514.4 233.6 514.4 233.6 514.4 260.8 c 0,50,51
 514.4 326.4 514.4 326.4 479.6 372.8 c 128,-1,52
 444.8 419.2 444.8 419.2 396 419.2 c 0,53,54
 362.4 419.2 362.4 419.2 338.8 388.4 c 128,-1,55
 315.2 357.6 315.2 357.6 315.2 314.4 c 1,56,-1
 254.4 314.4 l 1,57,58
 254.4 357.6 254.4 357.6 230.8 388.4 c 128,-1,59
 207.2 419.2 207.2 419.2 174.4 419.2 c 0,60,61
 135.2 419.2 135.2 419.2 107.2 388.4 c 128,-1,62
 79.2002 357.6 79.2002 357.6 79.2002 314.4 c 1,63,-1
 15.2002 314.4 l 1,64,-1
 15.2002 314.4 l 1,0,1
186.4 118.4 m 1,65,66
 186.4 96.7998 186.4 96.7998 213.2 81.2002 c 128,-1,67
 240 65.5996 240 65.5996 278.4 65.5996 c 0,68,69
 328.8 65.5996 328.8 65.5996 370 77.2002 c 128,-1,70
 411.2 88.7998 411.2 88.7998 437.6 111.2 c 1,71,-1
 437.6 116.8 l 1,72,73
 407.2 142.4 407.2 142.4 366 156 c 128,-1,74
 324.8 169.6 324.8 169.6 278.4 169.6 c 0,75,76
 240 169.6 240 169.6 213.2 154.8 c 128,-1,77
 186.4 140 186.4 140 186.4 118.4 c 1,78,-1
 186.4 118.4 l 1,65,66
EndSplineSet
Validated: 5
MultipleSubs2: "Multiple Substitution lookup 325" U0C1E_U0C46.abvs U0C56 U0C1E_U0C46.abvs U0C56
EndChar

StartChar: U0C1F
Encoding: 3103 3103 34
Width: 744
VWidth: 819
GlyphClass: 2
Flags: W
LayerCount: 2
Fore
SplineSet
116.8 314.4 m 1,0,1
 116.8 287.2 116.8 287.2 136.4 268 c 128,-1,2
 156 248.8 156 248.8 183.2 248.8 c 256,3,4
 210.4 248.8 210.4 248.8 229.6 268 c 128,-1,5
 248.8 287.2 248.8 287.2 248.8 314.4 c 256,6,7
 248.8 341.6 248.8 341.6 229.6 360.4 c 128,-1,8
 210.4 379.2 210.4 379.2 183.2 379.2 c 256,9,10
 156 379.2 156 379.2 136.4 360.4 c 128,-1,11
 116.8 341.6 116.8 341.6 116.8 314.4 c 1,12,-1
 116.8 314.4 l 1,0,1
515.2 0 m 1,13,14
 468.8 0 468.8 0 430.4 27.5996 c 128,-1,15
 392 55.2002 392 55.2002 375.2 100.8 c 1,16,-1
 371.2 99.2002 l 1,17,18
 355.2 54.4004 355.2 54.4004 312 27.2002 c 128,-1,19
 268.8 0 268.8 0 215.2 0 c 0,20,21
 141.6 0 141.6 0 90 64.4004 c 128,-1,22
 38.4004 128.8 38.4004 128.8 38.4004 220 c 0,23,24
 38.4004 306.4 38.4004 306.4 72.7998 367.2 c 128,-1,25
 107.2 428 107.2 428 156 428 c 1,26,-1
 156 546.4 l 1,27,-1
 209.6 546.4 l 1,28,-1
 209.6 428 l 1,29,30
 247.2 428 247.2 428 274 394.8 c 128,-1,31
 300.8 361.6 300.8 361.6 300.8 314.4 c 0,32,33
 300.8 265.6 300.8 265.6 266.4 230.8 c 128,-1,34
 232 196 232 196 183.2 196 c 0,35,36
 157.6 196 157.6 196 136.8 204 c 128,-1,37
 116 212 116 212 103.2 227.2 c 1,38,-1
 99.2002 224 l 1,39,40
 99.2002 158.4 99.2002 158.4 133.2 112 c 128,-1,41
 167.2 65.5996 167.2 65.5996 215.2 65.5996 c 0,42,43
 267.2 65.5996 267.2 65.5996 304.4 107.6 c 128,-1,44
 341.6 149.6 341.6 149.6 341.6 209.6 c 1,45,-1
 402.4 209.6 l 1,46,47
 402.4 149.6 402.4 149.6 436 107.6 c 128,-1,48
 469.6 65.5996 469.6 65.5996 516.8 65.5996 c 0,49,50
 568 65.5996 568 65.5996 604.4 113.6 c 128,-1,51
 640.8 161.6 640.8 161.6 640.8 228.8 c 0,52,53
 640.8 302.4 640.8 302.4 605.6 354 c 128,-1,54
 570.4 405.6 570.4 405.6 520.8 405.6 c 1,55,-1
 534.4 477.6 l 1,56,57
 605.6 477.6 605.6 477.6 655.6 404.8 c 128,-1,58
 705.6 332 705.6 332 705.6 228.8 c 0,59,60
 705.6 134.4 705.6 134.4 650 67.2002 c 128,-1,61
 594.4 0 594.4 0 515.2 0 c 1,62,-1
 515.2 0 l 1,13,14
EndSplineSet
Validated: 5
MultipleSubs2: "Multiple Substitution lookup 325" U0C1F_U0C46.abvs U0C56 U0C1F_U0C46.abvs U0C56
EndChar

StartChar: U0C20
Encoding: 3104 3104 35
Width: 540
VWidth: 819
GlyphClass: 2
Flags: W
LayerCount: 2
Fore
SplineSet
99.2002 242.4 m 1,0,1
 99.2002 168.8 99.2002 168.8 149.2 117.2 c 128,-1,2
 199.2 65.5996 199.2 65.5996 269.6 65.5996 c 256,3,4
 340 65.5996 340 65.5996 389.6 117.2 c 128,-1,5
 439.2 168.8 439.2 168.8 439.2 242.4 c 256,6,7
 439.2 316 439.2 316 389.6 367.6 c 128,-1,8
 340 419.2 340 419.2 269.6 419.2 c 256,9,10
 199.2 419.2 199.2 419.2 149.2 367.6 c 128,-1,11
 99.2002 316 99.2002 316 99.2002 242.4 c 1,12,-1
 99.2002 242.4 l 1,0,1
33.5996 242.4 m 1,13,14
 33.5996 316.8 33.5996 316.8 77.5996 377.2 c 128,-1,15
 121.6 437.6 121.6 437.6 192.8 462.4 c 1,16,17
 160.8 488.8 160.8 488.8 142.8 530.4 c 128,-1,18
 124.8 572 124.8 572 124.8 621.6 c 1,19,-1
 176.8 621.6 l 1,20,21
 176.8 567.2 176.8 567.2 204.4 529.2 c 128,-1,22
 232 491.2 232 491.2 270.4 491.2 c 0,23,24
 284 491.2 284 491.2 300.8 500.4 c 128,-1,25
 317.6 509.6 317.6 509.6 334.4 526.4 c 2,26,-1
 499.2 684 l 1,27,-1
 532.8 650.4 l 1,28,-1
 345.6 462.4 l 1,29,30
 417.6 437.6 417.6 437.6 461.6 375.2 c 128,-1,31
 505.6 312.8 505.6 312.8 505.6 235.2 c 0,32,33
 505.6 137.6 505.6 137.6 436.4 68.7998 c 128,-1,34
 367.2 0 367.2 0 269.6 0 c 256,35,36
 172 0 172 0 102.8 70.7998 c 128,-1,37
 33.5996 141.6 33.5996 141.6 33.5996 242.4 c 1,38,-1
 33.5996 242.4 l 1,13,14
231.2 196 m 1,39,-1
 231.2 288 l 1,40,-1
 308.8 288 l 1,41,-1
 308.8 196 l 1,42,-1
 231.2 196 l 1,43,-1
 231.2 196 l 1,39,-1
EndSplineSet
Validated: 5
MultipleSubs2: "Multiple Substitution lookup 325" U0C20_U0C46.abvs U0C56 U0C20_U0C46.abvs U0C56
EndChar

StartChar: U0C21
Encoding: 3105 3105 36
Width: 672
VWidth: 819
GlyphClass: 2
Flags: W
LayerCount: 2
Fore
SplineSet
468 156 m 1,0,1
 468 128.8 468 128.8 486.8 110 c 128,-1,2
 505.6 91.2002 505.6 91.2002 532.8 91.2002 c 256,3,4
 560 91.2002 560 91.2002 579.2 110 c 128,-1,5
 598.4 128.8 598.4 128.8 598.4 156 c 256,6,7
 598.4 183.2 598.4 183.2 579.2 202.4 c 128,-1,8
 560 221.6 560 221.6 532.8 221.6 c 256,9,10
 505.6 221.6 505.6 221.6 486.8 202.4 c 128,-1,11
 468 183.2 468 183.2 468 156 c 1,12,-1
 468 156 l 1,0,1
35.2002 209.6 m 1,13,14
 35.2002 299.2 35.2002 299.2 94 373.2 c 128,-1,15
 152.8 447.2 152.8 447.2 247.2 476 c 1,16,17
 221.6 502.4 221.6 502.4 208 540 c 128,-1,18
 194.4 577.6 194.4 577.6 194.4 621.6 c 1,19,-1
 246.4 621.6 l 1,20,21
 246.4 567.2 246.4 567.2 274 529.2 c 128,-1,22
 301.6 491.2 301.6 491.2 340 491.2 c 0,23,24
 353.6 491.2 353.6 491.2 370.4 500.4 c 128,-1,25
 387.2 509.6 387.2 509.6 404 526.4 c 2,26,-1
 568.8 684 l 1,27,-1
 609.6 636.8 l 1,28,-1
 435.2 481.6 l 1,29,30
 480.8 473.6 480.8 473.6 519.6 457.6 c 128,-1,31
 558.4 441.6 558.4 441.6 587.2 419.2 c 1,32,-1
 552 365.6 l 1,33,34
 517.6 394.4 517.6 394.4 462.4 410 c 128,-1,35
 407.2 425.6 407.2 425.6 337.6 425.6 c 0,36,37
 239.2 425.6 239.2 425.6 170 362.4 c 128,-1,38
 100.8 299.2 100.8 299.2 100.8 209.6 c 0,39,40
 100.8 149.6 100.8 149.6 131.6 107.6 c 128,-1,41
 162.4 65.5996 162.4 65.5996 206.4 65.5996 c 0,42,43
 251.2 65.5996 251.2 65.5996 282.8 103.6 c 128,-1,44
 314.4 141.6 314.4 141.6 314.4 196 c 1,45,-1
 361.6 196 l 1,46,47
 361.6 139.2 361.6 139.2 388.8 98.7998 c 128,-1,48
 416 58.4004 416 58.4004 454.4 58.4004 c 2,49,-1
 481.6 58.4004 l 1,50,-1
 482.4 62.4004 l 1,51,52
 455.2 72 455.2 72 438.4 98 c 128,-1,53
 421.6 124 421.6 124 421.6 156 c 0,54,55
 421.6 202.4 421.6 202.4 454 235.2 c 128,-1,56
 486.4 268 486.4 268 532.8 268 c 0,57,58
 581.6 268 581.6 268 616 233.6 c 128,-1,59
 650.4 199.2 650.4 199.2 650.4 151.2 c 0,60,61
 650.4 88.7998 650.4 88.7998 598.8 44.4004 c 128,-1,62
 547.2 0 547.2 0 474.4 0 c 0,63,64
 432.8 0 432.8 0 396.8 20.7998 c 128,-1,65
 360.8 41.5996 360.8 41.5996 340 77.5996 c 1,66,-1
 336 76 l 1,67,68
 316 40.7998 316 40.7998 279.2 20.4004 c 128,-1,69
 242.4 0 242.4 0 200 0 c 0,70,71
 132 0 132 0 83.5996 61.2002 c 128,-1,72
 35.2002 122.4 35.2002 122.4 35.2002 209.6 c 1,73,-1
 35.2002 209.6 l 1,13,14
EndSplineSet
Validated: 5
MultipleSubs2: "Multiple Substitution lookup 325" U0C21_U0C46.abvs U0C56 U0C21_U0C46.abvs U0C56
EndChar

StartChar: U0C22
Encoding: 3106 3106 37
Width: 672
VWidth: 819
GlyphClass: 2
Flags: W
LayerCount: 2
Fore
SplineSet
468 156 m 1,0,1
 468 128.8 468 128.8 486.8 110 c 128,-1,2
 505.6 91.2002 505.6 91.2002 532.8 91.2002 c 256,3,4
 560 91.2002 560 91.2002 579.2 110 c 128,-1,5
 598.4 128.8 598.4 128.8 598.4 156 c 256,6,7
 598.4 183.2 598.4 183.2 579.2 202.4 c 128,-1,8
 560 221.6 560 221.6 532.8 221.6 c 256,9,10
 505.6 221.6 505.6 221.6 486.8 202.4 c 128,-1,11
 468 183.2 468 183.2 468 156 c 1,12,-1
 468 156 l 1,0,1
35.2002 209.6 m 1,13,14
 35.2002 300 35.2002 300 92 374 c 128,-1,15
 148.8 448 148.8 448 240.8 476 c 1,16,17
 215.2 503.2 215.2 503.2 201.6 540.8 c 128,-1,18
 188 578.4 188 578.4 188 621.6 c 1,19,-1
 239.2 621.6 l 1,20,21
 239.2 567.2 239.2 567.2 266.8 529.2 c 128,-1,22
 294.4 491.2 294.4 491.2 332.8 491.2 c 0,23,24
 346.4 491.2 346.4 491.2 363.2 500.4 c 128,-1,25
 380 509.6 380 509.6 396.8 526.4 c 2,26,-1
 561.6 684 l 1,27,-1
 596 650.4 l 1,28,-1
 429.6 482.4 l 1,29,30
 479.2 474.4 479.2 474.4 519.6 458.4 c 128,-1,31
 560 442.4 560 442.4 587.2 419.2 c 1,32,-1
 552 365.6 l 1,33,34
 517.6 394.4 517.6 394.4 462.4 410 c 128,-1,35
 407.2 425.6 407.2 425.6 337.6 425.6 c 0,36,37
 239.2 425.6 239.2 425.6 170 362.4 c 128,-1,38
 100.8 299.2 100.8 299.2 100.8 209.6 c 0,39,40
 100.8 149.6 100.8 149.6 131.6 107.6 c 128,-1,41
 162.4 65.5996 162.4 65.5996 206.4 65.5996 c 0,42,43
 245.6 65.5996 245.6 65.5996 273.2 103.6 c 128,-1,44
 300.8 141.6 300.8 141.6 300.8 196 c 1,45,-1
 355.2 196 l 1,46,47
 355.2 139.2 355.2 139.2 384.4 98.7998 c 128,-1,48
 413.6 58.4004 413.6 58.4004 454.4 58.4004 c 2,49,-1
 478.4 58.4004 l 1,50,-1
 478.4 62.4004 l 1,51,52
 449.6 72.7998 449.6 72.7998 432 98.4004 c 128,-1,53
 414.4 124 414.4 124 414.4 156 c 0,54,55
 414.4 204.8 414.4 204.8 449.2 239.6 c 128,-1,56
 484 274.4 484 274.4 532.8 274.4 c 256,57,58
 581.6 274.4 581.6 274.4 616 238.4 c 128,-1,59
 650.4 202.4 650.4 202.4 650.4 151.2 c 0,60,61
 650.4 88.7998 650.4 88.7998 592.8 44.4004 c 128,-1,62
 535.2 0 535.2 0 454.4 0 c 0,63,64
 424 0 424 0 396.8 11.2002 c 128,-1,65
 369.6 22.4004 369.6 22.4004 349.6 43.2002 c 1,66,-1
 344 40.7998 l 1,67,-1
 369.6 -91.2002 l 1,68,-1
 369.6 -144 l 1,69,-1
 278.4 -144 l 1,70,-1
 278.4 -91.2002 l 1,71,-1
 303.2 40.7998 l 1,72,-1
 299.2 43.2002 l 1,73,74
 283.2 22.4004 283.2 22.4004 258.8 11.2002 c 128,-1,75
 234.4 0 234.4 0 206.4 0 c 0,76,77
 135.2 0 135.2 0 85.2002 61.2002 c 128,-1,78
 35.2002 122.4 35.2002 122.4 35.2002 209.6 c 1,79,-1
 35.2002 209.6 l 1,13,14
EndSplineSet
Validated: 5
MultipleSubs2: "Multiple Substitution lookup 325" U0C22_U0C46.abvs U0C56 U0C22_U0C46.abvs U0C56
EndChar

StartChar: U0C23
Encoding: 3107 3107 38
Width: 761
VWidth: 819
GlyphClass: 2
Flags: W
LayerCount: 2
Fore
SplineSet
488 111.2 m 1,0,1
 488 84 488 84 507.2 64.4004 c 128,-1,2
 526.4 44.7998 526.4 44.7998 553.6 44.7998 c 256,3,4
 580.8 44.7998 580.8 44.7998 599.6 64.4004 c 128,-1,5
 618.4 84 618.4 84 618.4 111.2 c 256,6,7
 618.4 138.4 618.4 138.4 599.6 157.6 c 128,-1,8
 580.8 176.8 580.8 176.8 553.6 176.8 c 256,9,10
 526.4 176.8 526.4 176.8 507.2 157.6 c 128,-1,11
 488 138.4 488 138.4 488 111.2 c 1,12,-1
 488 111.2 l 1,0,1
43.2002 346.4 m 1,13,14
 43.2002 400.8 43.2002 400.8 93.2002 439.2 c 128,-1,15
 143.2 477.6 143.2 477.6 213.6 477.6 c 0,16,17
 263.2 477.6 263.2 477.6 304.8 454.8 c 128,-1,18
 346.4 432 346.4 432 368.8 392.8 c 1,19,-1
 372.8 394.4 l 1,20,21
 395.2 432.8 395.2 432.8 433.2 455.2 c 128,-1,22
 471.2 477.6 471.2 477.6 515.2 477.6 c 0,23,24
 601.6 477.6 601.6 477.6 662.4 400.8 c 128,-1,25
 723.2 324 723.2 324 723.2 215.2 c 0,26,27
 723.2 123.2 723.2 123.2 673.6 58.4004 c 128,-1,28
 624 -6.40039 624 -6.40039 553.6 -6.40039 c 0,29,30
 505.6 -6.40039 505.6 -6.40039 471.2 28 c 128,-1,31
 436.8 62.4004 436.8 62.4004 436.8 111.2 c 256,32,33
 436.8 160 436.8 160 471.2 194.4 c 128,-1,34
 505.6 228.8 505.6 228.8 553.6 228.8 c 0,35,36
 586.4 228.8 586.4 228.8 612 212.4 c 128,-1,37
 637.6 196 637.6 196 647.2 169.6 c 1,38,-1
 651.2 169.6 l 1,39,40
 654.4 179.2 654.4 179.2 656.4 190.8 c 128,-1,41
 658.4 202.4 658.4 202.4 658.4 215.2 c 0,42,43
 658.4 296.8 658.4 296.8 616.4 354.4 c 128,-1,44
 574.4 412 574.4 412 515.2 412 c 0,45,46
 471.2 412 471.2 412 436.4 378.4 c 128,-1,47
 401.6 344.8 401.6 344.8 392.8 293.6 c 1,48,-1
 348 293.6 l 1,49,50
 339.2 344.8 339.2 344.8 301.2 378.4 c 128,-1,51
 263.2 412 263.2 412 213.6 412 c 0,52,53
 170.4 412 170.4 412 139.6 392.8 c 128,-1,54
 108.8 373.6 108.8 373.6 108.8 346.4 c 0,55,56
 108.8 313.6 108.8 313.6 154.8 290 c 128,-1,57
 200.8 266.4 200.8 266.4 266.4 266.4 c 1,58,-1
 266.4 217.6 l 1,59,60
 200.8 217.6 200.8 217.6 154.8 192 c 128,-1,61
 108.8 166.4 108.8 166.4 108.8 130.4 c 0,62,63
 108.8 103.2 108.8 103.2 143.6 84.4004 c 128,-1,64
 178.4 65.5996 178.4 65.5996 227.2 65.5996 c 0,65,66
 254.4 65.5996 254.4 65.5996 279.2 73.2002 c 128,-1,67
 304 80.7998 304 80.7998 324.8 95.2002 c 1,68,-1
 349.6 25.5996 l 1,69,70
 322.4 9.59961 322.4 9.59961 291.2 1.59961 c 128,-1,71
 260 -6.40039 260 -6.40039 227.2 -6.40039 c 0,72,73
 151.2 -6.40039 151.2 -6.40039 97.2002 33.5996 c 128,-1,74
 43.2002 73.5996 43.2002 73.5996 43.2002 130.4 c 0,75,76
 43.2002 165.6 43.2002 165.6 64.7998 194.8 c 128,-1,77
 86.4004 224 86.4004 224 122.4 236.8 c 1,78,-1
 122.4 243.2 l 1,79,80
 88 249.6 88 249.6 65.5996 278.8 c 128,-1,81
 43.2002 308 43.2002 308 43.2002 346.4 c 1,82,-1
 43.2002 346.4 l 1,13,14
EndSplineSet
Validated: 5
MultipleSubs2: "Multiple Substitution lookup 325" U0C23_U0C46.abvs U0C56 U0C23_U0C46.abvs U0C56
EndChar

StartChar: U0C24
Encoding: 3108 3108 39
Width: 654
VWidth: 819
GlyphClass: 2
Flags: W
AnchorPoint: "Anchor-0" 321.6 -30.4004 basechar 0
LayerCount: 2
Fore
SplineSet
97.5996 300.8 m 1,0,1
 97.5996 273.6 97.5996 273.6 117.2 254.4 c 128,-1,2
 136.8 235.2 136.8 235.2 164.8 235.2 c 0,3,4
 192 235.2 192 235.2 210.8 254.4 c 128,-1,5
 229.6 273.6 229.6 273.6 229.6 300.8 c 256,6,7
 229.6 328 229.6 328 210.8 346.8 c 128,-1,8
 192 365.6 192 365.6 164.8 365.6 c 0,9,10
 136.8 365.6 136.8 365.6 117.2 346.8 c 128,-1,11
 97.5996 328 97.5996 328 97.5996 300.8 c 1,12,-1
 97.5996 300.8 l 1,0,1
425.6 300.8 m 1,13,14
 425.6 273.6 425.6 273.6 444.8 254.4 c 128,-1,15
 464 235.2 464 235.2 491.2 235.2 c 256,16,17
 518.4 235.2 518.4 235.2 537.2 254.4 c 128,-1,18
 556 273.6 556 273.6 556 300.8 c 256,19,20
 556 328 556 328 537.2 346.8 c 128,-1,21
 518.4 365.6 518.4 365.6 491.2 365.6 c 256,22,23
 464 365.6 464 365.6 444.8 346.8 c 128,-1,24
 425.6 328 425.6 328 425.6 300.8 c 1,25,-1
 425.6 300.8 l 1,13,14
179.2 582.4 m 1,26,-1
 231.2 582.4 l 1,27,28
 231.2 542.4 231.2 542.4 258.8 514 c 128,-1,29
 286.4 485.6 286.4 485.6 324.8 485.6 c 0,30,31
 338.4 485.6 338.4 485.6 355.2 494.8 c 128,-1,32
 372 504 372 504 388.8 520.8 c 2,33,-1
 553.6 678.4 l 1,34,-1
 587.2 644.8 l 1,35,-1
 420 478.4 l 1,36,37
 508.8 456 508.8 456 565.2 399.2 c 128,-1,38
 621.6 342.4 621.6 342.4 621.6 274.4 c 0,39,40
 621.6 149.6 621.6 149.6 539.6 74.7998 c 128,-1,41
 457.6 0 457.6 0 320.8 0 c 0,42,43
 190.4 0 190.4 0 111.6 71.2002 c 128,-1,44
 32.7998 142.4 32.7998 142.4 32.7998 260.8 c 0,45,46
 32.7998 326.4 32.7998 326.4 71.5996 372.8 c 128,-1,47
 110.4 419.2 110.4 419.2 164.8 419.2 c 0,48,49
 212.8 419.2 212.8 419.2 247.2 384.4 c 128,-1,50
 281.6 349.6 281.6 349.6 281.6 300.8 c 256,51,52
 281.6 252 281.6 252 247.2 217.6 c 128,-1,53
 212.8 183.2 212.8 183.2 164.8 183.2 c 0,54,55
 148 183.2 148 183.2 135.2 186.8 c 128,-1,56
 122.4 190.4 122.4 190.4 114.4 196.8 c 1,57,-1
 107.2 196 l 1,58,59
 107.2 136.8 107.2 136.8 165.6 101.2 c 128,-1,60
 224 65.5996 224 65.5996 320.8 65.5996 c 0,61,62
 421.6 65.5996 421.6 65.5996 482 101.2 c 128,-1,63
 542.4 136.8 542.4 136.8 542.4 196 c 1,64,-1
 536.8 196.8 l 1,65,66
 531.2 190.4 531.2 190.4 519.2 186.8 c 128,-1,67
 507.2 183.2 507.2 183.2 491.2 183.2 c 0,68,69
 442.4 183.2 442.4 183.2 407.6 217.6 c 128,-1,70
 372.8 252 372.8 252 372.8 300.8 c 0,71,72
 372.8 340 372.8 340 400.8 369.2 c 128,-1,73
 428.8 398.4 428.8 398.4 470.4 402.4 c 1,74,-1
 470.4 406.4 l 1,75,76
 444 420.8 444 420.8 407.6 428 c 128,-1,77
 371.2 435.2 371.2 435.2 328 435.2 c 0,78,79
 266.4 435.2 266.4 435.2 222.8 478.4 c 128,-1,80
 179.2 521.6 179.2 521.6 179.2 582.4 c 1,81,-1
 179.2 582.4 l 1,26,-1
EndSplineSet
Validated: 5
MultipleSubs2: "Multiple Substitution lookup 325" U0C24_U0C46.abvs U0C56 U0C24_U0C46.abvs U0C56
EndChar

StartChar: U0C25
Encoding: 3109 3109 40
Width: 645
VWidth: 819
GlyphClass: 2
Flags: W
LayerCount: 2
Fore
SplineSet
100.8 196 m 1,0,1
 100.8 141.6 100.8 141.6 127.6 103.6 c 128,-1,2
 154.4 65.5996 154.4 65.5996 192.8 65.5996 c 0,3,4
 236.8 65.5996 236.8 65.5996 268 103.6 c 128,-1,5
 299.2 141.6 299.2 141.6 299.2 196 c 1,6,-1
 348 196 l 1,7,8
 348 141.6 348 141.6 379.2 103.6 c 128,-1,9
 410.4 65.5996 410.4 65.5996 454.4 65.5996 c 0,10,11
 492 65.5996 492 65.5996 518.8 103.6 c 128,-1,12
 545.6 141.6 545.6 141.6 545.6 196 c 0,13,14
 545.6 288.8 545.6 288.8 480.8 354 c 128,-1,15
 416 419.2 416 419.2 324 419.2 c 0,16,17
 231.2 419.2 231.2 419.2 166 354 c 128,-1,18
 100.8 288.8 100.8 288.8 100.8 196 c 1,19,-1
 100.8 196 l 1,0,1
35.2002 196 m 1,20,21
 35.2002 289.6 35.2002 289.6 93.5996 364.8 c 128,-1,22
 152 440 152 440 244.8 466.4 c 1,23,24
 214.4 492.8 214.4 492.8 197.6 533.6 c 128,-1,25
 180.8 574.4 180.8 574.4 180.8 621.6 c 1,26,-1
 232.8 621.6 l 1,27,28
 232.8 567.2 232.8 567.2 260.4 529.2 c 128,-1,29
 288 491.2 288 491.2 326.4 491.2 c 0,30,31
 340 491.2 340 491.2 356.8 500.4 c 128,-1,32
 373.6 509.6 373.6 509.6 390.4 526.4 c 2,33,-1
 555.2 684 l 1,34,-1
 588.8 650.4 l 1,35,-1
 408 468 l 1,36,37
 497.6 442.4 497.6 442.4 554 366.8 c 128,-1,38
 610.4 291.2 610.4 291.2 610.4 196 c 0,39,40
 610.4 115.2 610.4 115.2 564.8 57.5996 c 128,-1,41
 519.2 0 519.2 0 454.4 0 c 0,42,43
 420 0 420 0 390.8 11.5996 c 128,-1,44
 361.6 23.2002 361.6 23.2002 342.4 44.7998 c 1,45,-1
 338.4 42.4004 l 1,46,-1
 363.2 -91.2002 l 1,47,-1
 363.2 -144 l 1,48,-1
 284 -144 l 1,49,-1
 284 -91.2002 l 1,50,-1
 305.6 40.7998 l 1,51,-1
 301.6 44.7998 l 1,52,53
 282.4 23.2002 282.4 23.2002 254 11.5996 c 128,-1,54
 225.6 0 225.6 0 192.8 0 c 0,55,56
 127.2 0 127.2 0 81.2002 57.5996 c 128,-1,57
 35.2002 115.2 35.2002 115.2 35.2002 196 c 1,58,-1
 35.2002 196 l 1,20,21
284 248.8 m 1,59,-1
 284 326.4 l 1,60,-1
 363.2 326.4 l 1,61,-1
 363.2 248.8 l 1,62,-1
 284 248.8 l 1,63,-1
 284 248.8 l 1,59,-1
EndSplineSet
Validated: 5
MultipleSubs2: "Multiple Substitution lookup 325" U0C25_U0C46.abvs U0C56 U0C25_U0C46.abvs U0C56
EndChar

StartChar: U0C26
Encoding: 3110 3110 41
Width: 645
VWidth: 819
GlyphClass: 2
Flags: W
LayerCount: 2
Fore
SplineSet
100.8 196 m 1,0,1
 100.8 141.6 100.8 141.6 127.6 103.6 c 128,-1,2
 154.4 65.5996 154.4 65.5996 192.8 65.5996 c 0,3,4
 236.8 65.5996 236.8 65.5996 268 103.6 c 128,-1,5
 299.2 141.6 299.2 141.6 299.2 196 c 1,6,-1
 348 196 l 1,7,8
 348 141.6 348 141.6 379.2 103.6 c 128,-1,9
 410.4 65.5996 410.4 65.5996 454.4 65.5996 c 0,10,11
 492 65.5996 492 65.5996 518.8 103.6 c 128,-1,12
 545.6 141.6 545.6 141.6 545.6 196 c 0,13,14
 545.6 288.8 545.6 288.8 480.8 354 c 128,-1,15
 416 419.2 416 419.2 324 419.2 c 0,16,17
 231.2 419.2 231.2 419.2 166 354 c 128,-1,18
 100.8 288.8 100.8 288.8 100.8 196 c 1,19,-1
 100.8 196 l 1,0,1
35.2002 196 m 1,20,21
 35.2002 289.6 35.2002 289.6 93.5996 364.8 c 128,-1,22
 152 440 152 440 244.8 466.4 c 1,23,24
 214.4 492.8 214.4 492.8 197.6 533.6 c 128,-1,25
 180.8 574.4 180.8 574.4 180.8 621.6 c 1,26,-1
 232.8 621.6 l 1,27,28
 232.8 567.2 232.8 567.2 260.4 529.2 c 128,-1,29
 288 491.2 288 491.2 326.4 491.2 c 0,30,31
 340 491.2 340 491.2 356.8 500.4 c 128,-1,32
 373.6 509.6 373.6 509.6 390.4 526.4 c 2,33,-1
 555.2 684 l 1,34,-1
 588.8 650.4 l 1,35,-1
 408 468 l 1,36,37
 497.6 442.4 497.6 442.4 554 366.8 c 128,-1,38
 610.4 291.2 610.4 291.2 610.4 196 c 0,39,40
 610.4 115.2 610.4 115.2 562 57.5996 c 128,-1,41
 513.6 0 513.6 0 444.8 0 c 0,42,43
 404.8 0 404.8 0 372 21.5996 c 128,-1,44
 339.2 43.2002 339.2 43.2002 326.4 79.2002 c 1,45,-1
 320.8 77.5996 l 1,46,47
 308 42.4004 308 42.4004 272.8 21.2002 c 128,-1,48
 237.6 0 237.6 0 192.8 0 c 0,49,50
 127.2 0 127.2 0 81.2002 57.5996 c 128,-1,51
 35.2002 115.2 35.2002 115.2 35.2002 196 c 1,52,-1
 35.2002 196 l 1,20,21
EndSplineSet
Validated: 5
MultipleSubs2: "Multiple Substitution lookup 325" U0C26_U0C46.abvs U0C56 U0C26_U0C46.abvs U0C56
EndChar

StartChar: U0C27
Encoding: 3111 3111 42
Width: 645
VWidth: 819
GlyphClass: 2
Flags: W
LayerCount: 2
Fore
SplineSet
100.8 196 m 1,0,1
 100.8 141.6 100.8 141.6 127.6 103.6 c 128,-1,2
 154.4 65.5996 154.4 65.5996 192.8 65.5996 c 0,3,4
 236.8 65.5996 236.8 65.5996 268 103.6 c 128,-1,5
 299.2 141.6 299.2 141.6 299.2 196 c 1,6,-1
 348 196 l 1,7,8
 348 141.6 348 141.6 379.2 103.6 c 128,-1,9
 410.4 65.5996 410.4 65.5996 454.4 65.5996 c 0,10,11
 492 65.5996 492 65.5996 518.8 103.6 c 128,-1,12
 545.6 141.6 545.6 141.6 545.6 196 c 0,13,14
 545.6 288.8 545.6 288.8 480.8 354 c 128,-1,15
 416 419.2 416 419.2 324 419.2 c 0,16,17
 231.2 419.2 231.2 419.2 166 354 c 128,-1,18
 100.8 288.8 100.8 288.8 100.8 196 c 1,19,-1
 100.8 196 l 1,0,1
35.2002 196 m 1,20,21
 35.2002 289.6 35.2002 289.6 93.5996 364.8 c 128,-1,22
 152 440 152 440 244.8 466.4 c 1,23,24
 214.4 492.8 214.4 492.8 197.6 533.6 c 128,-1,25
 180.8 574.4 180.8 574.4 180.8 621.6 c 1,26,-1
 232.8 621.6 l 1,27,28
 232.8 567.2 232.8 567.2 260.4 529.2 c 128,-1,29
 288 491.2 288 491.2 326.4 491.2 c 0,30,31
 340 491.2 340 491.2 356.8 500.4 c 128,-1,32
 373.6 509.6 373.6 509.6 390.4 526.4 c 2,33,-1
 555.2 684 l 1,34,-1
 588.8 650.4 l 1,35,-1
 408 468 l 1,36,37
 497.6 442.4 497.6 442.4 554 366.8 c 128,-1,38
 610.4 291.2 610.4 291.2 610.4 196 c 0,39,40
 610.4 115.2 610.4 115.2 564.8 57.5996 c 128,-1,41
 519.2 0 519.2 0 454.4 0 c 0,42,43
 422.4 0 422.4 0 394.4 11.2002 c 128,-1,44
 366.4 22.4004 366.4 22.4004 346.4 42.4004 c 1,45,-1
 342.4 39.2002 l 1,46,-1
 372.8 -77.5996 l 1,47,-1
 372.8 -130.4 l 1,48,-1
 281.6 -130.4 l 1,49,-1
 281.6 -77.5996 l 1,50,-1
 308.8 36.7998 l 1,51,-1
 304.8 42.4004 l 1,52,53
 287.2 22.4004 287.2 22.4004 258 11.2002 c 128,-1,54
 228.8 0 228.8 0 192.8 0 c 0,55,56
 127.2 0 127.2 0 81.2002 57.5996 c 128,-1,57
 35.2002 115.2 35.2002 115.2 35.2002 196 c 1,58,-1
 35.2002 196 l 1,20,21
EndSplineSet
Validated: 5
MultipleSubs2: "Multiple Substitution lookup 325" U0C27_U0C46.abvs U0C56 U0C27_U0C46.abvs U0C56
EndChar

StartChar: U0C28
Encoding: 3112 3112 43
Width: 606
VWidth: 819
GlyphClass: 2
Flags: W
LayerCount: 2
Fore
SplineSet
394.4 65.5996 m 1,0,1
 440.8 65.5996 440.8 65.5996 473.2 117.2 c 128,-1,2
 505.6 168.8 505.6 168.8 505.6 242.4 c 0,3,4
 505.6 322.4 505.6 322.4 442.8 378.8 c 128,-1,5
 380 435.2 380 435.2 291.2 435.2 c 2,6,-1
 201.6 435.2 l 2,7,8
 142.4 435.2 142.4 435.2 100.4 478.4 c 128,-1,9
 58.4004 521.6 58.4004 521.6 58.4004 582.4 c 1,10,-1
 110.4 582.4 l 1,11,12
 110.4 542.4 110.4 542.4 138 514 c 128,-1,13
 165.6 485.6 165.6 485.6 204 485.6 c 0,14,15
 217.6 485.6 217.6 485.6 234.4 494.8 c 128,-1,16
 251.2 504 251.2 504 268 520.8 c 2,17,-1
 432.8 678.4 l 1,18,-1
 466.4 644.8 l 1,19,-1
 308.8 489.6 l 1,20,21
 419.2 484 419.2 484 495.2 412.4 c 128,-1,22
 571.2 340.8 571.2 340.8 571.2 242.4 c 0,23,24
 571.2 141.6 571.2 141.6 519.6 70.7998 c 128,-1,25
 468 0 468 0 394.4 0 c 0,26,27
 338.4 0 338.4 0 296.4 34.4004 c 128,-1,28
 254.4 68.7998 254.4 68.7998 244.8 120.8 c 0,29,30
 238.4 159.2 238.4 159.2 214 184.4 c 128,-1,31
 189.6 209.6 189.6 209.6 159.2 209.6 c 0,32,33
 132 209.6 132 209.6 112.4 182.4 c 128,-1,34
 92.7998 155.2 92.7998 155.2 92.7998 116.8 c 0,35,36
 92.7998 102.4 92.7998 102.4 102.8 77.5996 c 128,-1,37
 112.8 52.7998 112.8 52.7998 132 19.2002 c 1,38,-1
 73.5996 -2.40039 l 1,39,40
 51.2002 36.7998 51.2002 36.7998 39.2002 67.2002 c 128,-1,41
 27.2002 97.5996 27.2002 97.5996 27.2002 116.8 c 0,42,43
 27.2002 182.4 27.2002 182.4 66 228.4 c 128,-1,44
 104.8 274.4 104.8 274.4 159.2 274.4 c 0,45,46
 212.8 274.4 212.8 274.4 252.4 240 c 128,-1,47
 292 205.6 292 205.6 296.8 155.2 c 0,48,49
 300 116.8 300 116.8 328 91.2002 c 128,-1,50
 356 65.5996 356 65.5996 394.4 65.5996 c 1,51,-1
 394.4 65.5996 l 1,0,1
EndSplineSet
Validated: 5
MultipleSubs2: "Multiple Substitution lookup 325" U0C28_U0C46.abvs U0C56 U0C28_U0C46.abvs U0C56
EndChar

StartChar: U0C2A
Encoding: 3114 3114 44
Width: 572
VWidth: 819
GlyphClass: 2
Flags: W
LayerCount: 2
Fore
SplineSet
76 118.4 m 1,0,1
 76 91.2002 76 91.2002 95.2002 71.5996 c 128,-1,2
 114.4 52 114.4 52 141.6 52 c 256,3,4
 168.8 52 168.8 52 187.6 71.5996 c 128,-1,5
 206.4 91.2002 206.4 91.2002 206.4 118.4 c 256,6,7
 206.4 145.6 206.4 145.6 187.6 164.4 c 128,-1,8
 168.8 183.2 168.8 183.2 141.6 183.2 c 256,9,10
 114.4 183.2 114.4 183.2 95.2002 164.4 c 128,-1,11
 76 145.6 76 145.6 76 118.4 c 1,12,-1
 76 118.4 l 1,0,1
363.2 65.5996 m 1,13,14
 409.6 65.5996 409.6 65.5996 442 115.6 c 128,-1,15
 474.4 165.6 474.4 165.6 474.4 236.8 c 0,16,17
 474.4 320.8 474.4 320.8 427.6 380 c 128,-1,18
 380.8 439.2 380.8 439.2 315.2 439.2 c 1,19,-1
 337.6 496 l 1,20,21
 418.4 496 418.4 496 475.6 420 c 128,-1,22
 532.8 344 532.8 344 532.8 236.8 c 0,23,24
 532.8 138.4 532.8 138.4 483.2 69.2002 c 128,-1,25
 433.6 0 433.6 0 363.2 0 c 0,26,27
 329.6 0 329.6 0 299.6 18.4004 c 128,-1,28
 269.6 36.7998 269.6 36.7998 251.2 68 c 1,29,-1
 244.8 66.4004 l 1,30,31
 233.6 36.7998 233.6 36.7998 205.2 18.4004 c 128,-1,32
 176.8 0 176.8 0 141.6 0 c 0,33,34
 92.7998 0 92.7998 0 58 34.7998 c 128,-1,35
 23.2002 69.5996 23.2002 69.5996 23.2002 118.4 c 0,36,37
 23.2002 166.4 23.2002 166.4 58 200.8 c 128,-1,38
 92.7998 235.2 92.7998 235.2 141.6 235.2 c 0,39,40
 184 235.2 184 235.2 219.2 208.4 c 128,-1,41
 254.4 181.6 254.4 181.6 270.4 137.6 c 0,42,43
 282.4 104.8 282.4 104.8 308 85.2002 c 128,-1,44
 333.6 65.5996 333.6 65.5996 363.2 65.5996 c 1,45,-1
 363.2 65.5996 l 1,13,14
11.2002 633.6 m 1,46,-1
 60.7998 633.6 l 1,47,48
 60.7998 584.8 60.7998 584.8 84.4004 550 c 128,-1,49
 108 515.2 108 515.2 141.6 515.2 c 0,50,51
 158.4 515.2 158.4 515.2 176.4 521.6 c 128,-1,52
 194.4 528 194.4 528 212 540 c 2,53,-1
 427.2 685.6 l 1,54,-1
 458.4 641.6 l 1,55,-1
 239.2 492 l 2,56,57
 214.4 475.2 214.4 475.2 189.6 466 c 128,-1,58
 164.8 456.8 164.8 456.8 141.6 456.8 c 0,59,60
 87.2002 456.8 87.2002 456.8 49.2002 508.4 c 128,-1,61
 11.2002 560 11.2002 560 11.2002 633.6 c 1,62,-1
 11.2002 633.6 l 1,46,-1
EndSplineSet
Validated: 5
MultipleSubs2: "Multiple Substitution lookup 325" U0C2A_U0C46.abvs U0C56 U0C2A_U0C46.abvs U0C56
EndChar

StartChar: U0C2B
Encoding: 3115 3115 45
Width: 577
VWidth: 819
GlyphClass: 2
Flags: W
LayerCount: 2
Fore
SplineSet
76 118.4 m 1,0,1
 76 91.2002 76 91.2002 95.2002 71.5996 c 128,-1,2
 114.4 52 114.4 52 141.6 52 c 256,3,4
 168.8 52 168.8 52 187.6 71.5996 c 128,-1,5
 206.4 91.2002 206.4 91.2002 206.4 118.4 c 256,6,7
 206.4 145.6 206.4 145.6 187.6 164.4 c 128,-1,8
 168.8 183.2 168.8 183.2 141.6 183.2 c 256,9,10
 114.4 183.2 114.4 183.2 95.2002 164.4 c 128,-1,11
 76 145.6 76 145.6 76 118.4 c 1,12,-1
 76 118.4 l 1,0,1
369.6 65.5996 m 1,13,14
 416 65.5996 416 65.5996 448.8 117.6 c 128,-1,15
 481.6 169.6 481.6 169.6 481.6 243.2 c 0,16,17
 481.6 324 481.6 324 430.8 381.6 c 128,-1,18
 380 439.2 380 439.2 308.8 439.2 c 1,19,-1
 324 496 l 1,20,21
 413.6 496 413.6 496 476.8 422 c 128,-1,22
 540 348 540 348 540 243.2 c 0,23,24
 540 142.4 540 142.4 488.4 71.2002 c 128,-1,25
 436.8 0 436.8 0 363.2 0 c 0,26,27
 336.8 0 336.8 0 312 10.7998 c 128,-1,28
 287.2 21.5996 287.2 21.5996 268 40.7998 c 1,29,-1
 264 35.2002 l 1,30,-1
 289.6 -104.8 l 1,31,-1
 289.6 -157.6 l 1,32,-1
 210.4 -157.6 l 1,33,-1
 210.4 -104.8 l 1,34,-1
 236.8 33.5996 l 1,35,-1
 231.2 39.2002 l 1,36,37
 215.2 20.7998 215.2 20.7998 192 10.4004 c 128,-1,38
 168.8 0 168.8 0 141.6 0 c 0,39,40
 92.7998 0 92.7998 0 58 34.7998 c 128,-1,41
 23.2002 69.5996 23.2002 69.5996 23.2002 118.4 c 0,42,43
 23.2002 166.4 23.2002 166.4 58 200.8 c 128,-1,44
 92.7998 235.2 92.7998 235.2 141.6 235.2 c 0,45,46
 188 235.2 188 235.2 223.2 207.6 c 128,-1,47
 258.4 180 258.4 180 264.8 137.6 c 0,48,49
 269.6 106.4 269.6 106.4 299.6 86 c 128,-1,50
 329.6 65.5996 329.6 65.5996 369.6 65.5996 c 1,51,-1
 369.6 65.5996 l 1,13,14
11.2002 633.6 m 1,52,-1
 60.7998 633.6 l 1,53,54
 60.7998 584.8 60.7998 584.8 84.4004 550 c 128,-1,55
 108 515.2 108 515.2 141.6 515.2 c 0,56,57
 158.4 515.2 158.4 515.2 176.4 521.6 c 128,-1,58
 194.4 528 194.4 528 212 540 c 2,59,-1
 427.2 685.6 l 1,60,-1
 458.4 641.6 l 1,61,-1
 239.2 492 l 2,62,63
 214.4 475.2 214.4 475.2 189.6 466 c 128,-1,64
 164.8 456.8 164.8 456.8 141.6 456.8 c 0,65,66
 87.2002 456.8 87.2002 456.8 49.2002 508.4 c 128,-1,67
 11.2002 560 11.2002 560 11.2002 633.6 c 1,68,-1
 11.2002 633.6 l 1,52,-1
EndSplineSet
Validated: 5
MultipleSubs2: "Multiple Substitution lookup 325" U0C2B_U0C46.abvs U0C56 U0C2B_U0C46.abvs U0C56
EndChar

StartChar: U0C2C
Encoding: 3116 3116 46
Width: 645
VWidth: 819
GlyphClass: 2
Flags: W
LayerCount: 2
Fore
SplineSet
441.6 65.5996 m 1,0,1
 483.2 65.5996 483.2 65.5996 512.4 118 c 128,-1,2
 541.6 170.4 541.6 170.4 541.6 244.8 c 0,3,4
 541.6 320 541.6 320 502.4 372.8 c 128,-1,5
 463.2 425.6 463.2 425.6 408 425.6 c 1,6,-1
 428 489.6 l 1,7,8
 501.6 489.6 501.6 489.6 554 418 c 128,-1,9
 606.4 346.4 606.4 346.4 606.4 244.8 c 256,10,11
 606.4 143.2 606.4 143.2 558 71.5996 c 128,-1,12
 509.6 0 509.6 0 441.6 0 c 0,13,14
 400 0 400 0 366 23.2002 c 128,-1,15
 332 46.4004 332 46.4004 318.4 84 c 1,16,-1
 312.8 83.2002 l 1,17,18
 290.4 44.7998 290.4 44.7998 257.2 22.4004 c 128,-1,19
 224 0 224 0 188 0 c 0,20,21
 128 0 128 0 85.5996 42 c 128,-1,22
 43.2002 84 43.2002 84 43.2002 144 c 0,23,24
 43.2002 186.4 43.2002 186.4 74.7998 224 c 128,-1,25
 106.4 261.6 106.4 261.6 157.6 280 c 0,26,27
 200.8 296 200.8 296 226.8 319.2 c 128,-1,28
 252.8 342.4 252.8 342.4 252.8 365.6 c 0,29,30
 252.8 390.4 252.8 390.4 231.6 408 c 128,-1,31
 210.4 425.6 210.4 425.6 180.8 425.6 c 256,32,33
 151.2 425.6 151.2 425.6 130 408 c 128,-1,34
 108.8 390.4 108.8 390.4 108.8 365.6 c 0,35,36
 108.8 353.6 108.8 353.6 114.4 340.4 c 128,-1,37
 120 327.2 120 327.2 130.4 314.4 c 1,38,-1
 74.4004 293.6 l 1,39,40
 59.2002 308.8 59.2002 308.8 51.2002 327.6 c 128,-1,41
 43.2002 346.4 43.2002 346.4 43.2002 365.6 c 0,42,43
 43.2002 414.4 43.2002 414.4 84.4004 449.2 c 128,-1,44
 125.6 484 125.6 484 183.2 484 c 0,45,46
 239.2 484 239.2 484 278.8 449.2 c 128,-1,47
 318.4 414.4 318.4 414.4 318.4 365.6 c 0,48,49
 318.4 326.4 318.4 326.4 287.2 290.8 c 128,-1,50
 256 255.2 256 255.2 205.6 236.8 c 0,51,52
 162.4 220.8 162.4 220.8 135.6 195.2 c 128,-1,53
 108.8 169.6 108.8 169.6 108.8 144 c 0,54,55
 108.8 111.2 108.8 111.2 132 88.4004 c 128,-1,56
 155.2 65.5996 155.2 65.5996 188 65.5996 c 0,57,58
 232.8 65.5996 232.8 65.5996 264 103.6 c 128,-1,59
 295.2 141.6 295.2 141.6 295.2 196 c 1,60,-1
 342.4 196 l 1,61,62
 342.4 141.6 342.4 141.6 371.6 103.6 c 128,-1,63
 400.8 65.5996 400.8 65.5996 441.6 65.5996 c 1,64,-1
 441.6 65.5996 l 1,0,1
EndSplineSet
Validated: 5
MultipleSubs2: "Multiple Substitution lookup 325" U0C2C_U0C46.abvs U0C56 U0C2C_U0C46.abvs U0C56
EndChar

StartChar: U0C2D
Encoding: 3117 3117 47
Width: 645
VWidth: 819
GlyphClass: 2
Flags: W
LayerCount: 2
Fore
SplineSet
450.4 65.5996 m 1,0,1
 488.8 65.5996 488.8 65.5996 515.6 111.2 c 128,-1,2
 542.4 156.8 542.4 156.8 542.4 221.6 c 0,3,4
 542.4 310.4 542.4 310.4 496.4 372.8 c 128,-1,5
 450.4 435.2 450.4 435.2 384.8 435.2 c 0,6,7
 324.8 437.6 324.8 437.6 282.8 491.6 c 128,-1,8
 240.8 545.6 240.8 545.6 240.8 621.6 c 1,9,-1
 292 621.6 l 1,10,11
 292 567.2 292 567.2 319.6 529.2 c 128,-1,12
 347.2 491.2 347.2 491.2 386.4 491.2 c 0,13,14
 400 491.2 400 491.2 416.8 500.4 c 128,-1,15
 433.6 509.6 433.6 509.6 450.4 526.4 c 2,16,-1
 614.4 684 l 1,17,-1
 648.8 650.4 l 1,18,-1
 468 468 l 1,19,20
 532 436.8 532 436.8 570 370 c 128,-1,21
 608 303.2 608 303.2 608 221.6 c 0,22,23
 608 129.6 608 129.6 562 64.7998 c 128,-1,24
 516 0 516 0 450.4 0 c 0,25,26
 419.2 0 419.2 0 389.6 15.2002 c 128,-1,27
 360 30.4004 360 30.4004 337.6 58.4004 c 1,28,-1
 334.4 54.4004 l 1,29,-1
 359.2 -91.2002 l 1,30,-1
 359.2 -144 l 1,31,-1
 280 -144 l 1,32,-1
 280 -91.2002 l 1,33,-1
 305.6 52.7998 l 1,34,-1
 303.2 58.4004 l 1,35,36
 280.8 30.4004 280.8 30.4004 250.8 15.2002 c 128,-1,37
 220.8 0 220.8 0 188.8 0 c 0,38,39
 128.8 0 128.8 0 86.7998 42 c 128,-1,40
 44.7998 84 44.7998 84 44.7998 144 c 0,41,42
 44.7998 188.8 44.7998 188.8 76.4004 228 c 128,-1,43
 108 267.2 108 267.2 159.2 285.6 c 0,44,45
 202.4 301.6 202.4 301.6 228.4 323.2 c 128,-1,46
 254.4 344.8 254.4 344.8 254.4 365.6 c 0,47,48
 254.4 388 254.4 388 232 403.6 c 128,-1,49
 209.6 419.2 209.6 419.2 178.4 419.2 c 0,50,51
 150.4 419.2 150.4 419.2 130.4 403.6 c 128,-1,52
 110.4 388 110.4 388 110.4 365.6 c 0,53,54
 110.4 352.8 110.4 352.8 116 341.2 c 128,-1,55
 121.6 329.6 121.6 329.6 132 320.8 c 1,56,-1
 83.2002 287.2 l 1,57,58
 64.7998 302.4 64.7998 302.4 54.7998 324.8 c 128,-1,59
 44.7998 347.2 44.7998 347.2 44.7998 372.8 c 0,60,61
 44.7998 416 44.7998 416 83.5996 446.8 c 128,-1,62
 122.4 477.6 122.4 477.6 176.8 477.6 c 0,63,64
 236 477.6 236 477.6 277.6 444.8 c 128,-1,65
 319.2 412 319.2 412 319.2 365.6 c 0,66,67
 319.2 326.4 319.2 326.4 288 290.8 c 128,-1,68
 256.8 255.2 256.8 255.2 206.4 236.8 c 0,69,70
 163.2 220.8 163.2 220.8 136.8 195.6 c 128,-1,71
 110.4 170.4 110.4 170.4 110.4 144 c 0,72,73
 110.4 111.2 110.4 111.2 133.2 88.4004 c 128,-1,74
 156 65.5996 156 65.5996 188.8 65.5996 c 0,75,76
 233.6 65.5996 233.6 65.5996 265.2 103.6 c 128,-1,77
 296.8 141.6 296.8 141.6 296.8 196 c 1,78,-1
 344 196 l 1,79,80
 344 141.6 344 141.6 375.2 103.6 c 128,-1,81
 406.4 65.5996 406.4 65.5996 450.4 65.5996 c 1,82,-1
 450.4 65.5996 l 1,0,1
EndSplineSet
Validated: 5
MultipleSubs2: "Multiple Substitution lookup 325" U0C2D_U0C46.abvs U0C56 U0C2D_U0C46.abvs U0C56
EndChar

StartChar: U0C2E
Encoding: 3118 3118 48
Width: 956
VWidth: 819
GlyphClass: 2
Flags: W
LayerCount: 2
Fore
SplineSet
76 118.4 m 1,0,1
 76 91.2002 76 91.2002 95.2002 71.5996 c 128,-1,2
 114.4 52 114.4 52 141.6 52 c 256,3,4
 168.8 52 168.8 52 187.6 71.5996 c 128,-1,5
 206.4 91.2002 206.4 91.2002 206.4 118.4 c 256,6,7
 206.4 145.6 206.4 145.6 187.6 164.4 c 128,-1,8
 168.8 183.2 168.8 183.2 141.6 183.2 c 256,9,10
 114.4 183.2 114.4 183.2 95.2002 164.4 c 128,-1,11
 76 145.6 76 145.6 76 118.4 c 1,12,-1
 76 118.4 l 1,0,1
23.2002 118.4 m 1,13,14
 23.2002 166.4 23.2002 166.4 58 200.8 c 128,-1,15
 92.7998 235.2 92.7998 235.2 141.6 235.2 c 0,16,17
 183.2 235.2 183.2 235.2 216 207.6 c 128,-1,18
 248.8 180 248.8 180 260 136 c 0,19,20
 268 104.8 268 104.8 296.8 85.2002 c 128,-1,21
 325.6 65.5996 325.6 65.5996 363.2 65.5996 c 0,22,23
 409.6 65.5996 409.6 65.5996 442 115.6 c 128,-1,24
 474.4 165.6 474.4 165.6 474.4 236.8 c 0,25,26
 474.4 320 474.4 320 419.6 378.4 c 128,-1,27
 364.8 436.8 364.8 436.8 287.2 436.8 c 2,28,-1
 216 436.8 l 2,29,30
 157.6 436.8 157.6 436.8 116 479.6 c 128,-1,31
 74.4004 522.4 74.4004 522.4 74.4004 582.4 c 1,32,-1
 126.4 582.4 l 1,33,34
 126.4 542.4 126.4 542.4 154 514 c 128,-1,35
 181.6 485.6 181.6 485.6 220 485.6 c 0,36,37
 233.6 485.6 233.6 485.6 250.4 494.8 c 128,-1,38
 267.2 504 267.2 504 284 520.8 c 2,39,-1
 448.8 678.4 l 1,40,-1
 482.4 644.8 l 1,41,-1
 324 488 l 1,42,43
 416.8 475.2 416.8 475.2 478.4 403.6 c 128,-1,44
 540 332 540 332 540 236.8 c 2,45,-1
 538.4 206.4 l 1,46,47
 560 143.2 560 143.2 609.6 104.4 c 128,-1,48
 659.2 65.5996 659.2 65.5996 718.4 65.5996 c 0,49,50
 772.8 65.5996 772.8 65.5996 810.8 115.6 c 128,-1,51
 848.8 165.6 848.8 165.6 848.8 236.8 c 0,52,53
 848.8 314.4 848.8 314.4 801.6 368.8 c 128,-1,54
 754.4 423.2 754.4 423.2 688 423.2 c 1,55,-1
 703.2 488 l 1,56,57
 795.2 480 795.2 480 858 407.2 c 128,-1,58
 920.8 334.4 920.8 334.4 920.8 235.2 c 0,59,60
 920.8 137.6 920.8 137.6 859.6 68.7998 c 128,-1,61
 798.4 0 798.4 0 711.2 0 c 0,62,63
 653.6 0 653.6 0 602.8 33.5996 c 128,-1,64
 552 67.2002 552 67.2002 522.4 124.8 c 1,65,66
 501.6 68.7998 501.6 68.7998 458 34.4004 c 128,-1,67
 414.4 0 414.4 0 363.2 0 c 0,68,69
 328 0 328 0 297.6 18.4004 c 128,-1,70
 267.2 36.7998 267.2 36.7998 248.8 68 c 1,71,-1
 246.4 66.4004 l 1,72,73
 235.2 36.7998 235.2 36.7998 206.4 18.4004 c 128,-1,74
 177.6 0 177.6 0 141.6 0 c 0,75,76
 92.7998 0 92.7998 0 58 34.7998 c 128,-1,77
 23.2002 69.5996 23.2002 69.5996 23.2002 118.4 c 1,78,-1
 23.2002 118.4 l 1,13,14
EndSplineSet
Validated: 5
MultipleSubs2: "Multiple Substitution lookup 325" U0C2E_U0C46.abvs U0C56 U0C2E_U0C46.abvs U0C56
EndChar

StartChar: U0C2F
Encoding: 3119 3119 49
Width: 1233
VWidth: 819
GlyphClass: 2
Flags: W
AnchorPoint: "Anchor-0" 626.4 -17.5996 basechar 0
LayerCount: 2
Fore
SplineSet
99.2002 235.2 m 1,0,1
 99.2002 164.8 99.2002 164.8 149.2 115.2 c 128,-1,2
 199.2 65.5996 199.2 65.5996 269.6 65.5996 c 256,3,4
 340 65.5996 340 65.5996 389.6 115.2 c 128,-1,5
 439.2 164.8 439.2 164.8 439.2 235.2 c 0,6,7
 439.2 311.2 439.2 311.2 389.6 365.2 c 128,-1,8
 340 419.2 340 419.2 269.6 419.2 c 256,9,10
 199.2 419.2 199.2 419.2 149.2 365.2 c 128,-1,11
 99.2002 311.2 99.2002 311.2 99.2002 235.2 c 1,12,-1
 99.2002 235.2 l 1,0,1
753.6 243.2 m 1,13,14
 753.6 322.4 753.6 322.4 704 378.8 c 128,-1,15
 654.4 435.2 654.4 435.2 584.8 435.2 c 0,16,17
 524 435.2 524 435.2 480.8 489.6 c 128,-1,18
 437.6 544 437.6 544 437.6 621.6 c 1,19,-1
 489.6 621.6 l 1,20,21
 489.6 567.2 489.6 567.2 517.2 529.2 c 128,-1,22
 544.8 491.2 544.8 491.2 583.2 491.2 c 0,23,24
 596.8 491.2 596.8 491.2 613.6 500.4 c 128,-1,25
 630.4 509.6 630.4 509.6 647.2 526.4 c 2,26,-1
 812 684 l 1,27,-1
 845.6 650.4 l 1,28,-1
 670.4 473.6 l 1,29,30
 740.8 446.4 740.8 446.4 783.2 383.2 c 128,-1,31
 825.6 320 825.6 320 825.6 243.2 c 2,32,-1
 821.6 190.4 l 1,33,34
 845.6 133.6 845.6 133.6 892.8 99.5996 c 128,-1,35
 940 65.5996 940 65.5996 994.4 65.5996 c 256,36,37
 1048.8 65.5996 1048.8 65.5996 1086.8 115.6 c 128,-1,38
 1124.8 165.6 1124.8 165.6 1124.8 236.8 c 0,39,40
 1124.8 314.4 1124.8 314.4 1077.6 368.8 c 128,-1,41
 1030.4 423.2 1030.4 423.2 964 423.2 c 1,42,-1
 979.2 488 l 1,43,44
 1069.6 488 1069.6 488 1133.2 414 c 128,-1,45
 1196.8 340 1196.8 340 1196.8 235.2 c 0,46,47
 1196.8 137.6 1196.8 137.6 1135.6 68.7998 c 128,-1,48
 1074.4 0 1074.4 0 987.2 0 c 0,49,50
 924 0 924 0 872.8 34.4004 c 128,-1,51
 821.6 68.7998 821.6 68.7998 800.8 124.8 c 1,52,53
 774.4 68 774.4 68 726 34 c 128,-1,54
 677.6 0 677.6 0 623.2 0 c 0,55,56
 572 0 572 0 528.8 24.4004 c 128,-1,57
 485.6 48.7998 485.6 48.7998 460.8 91.2002 c 1,58,-1
 452.8 91.2002 l 1,59,60
 421.6 48 421.6 48 373.2 24 c 128,-1,61
 324.8 0 324.8 0 269.6 0 c 0,62,63
 172 0 172 0 102.8 68.7998 c 128,-1,64
 33.5996 137.6 33.5996 137.6 33.5996 235.2 c 0,65,66
 33.5996 338.4 33.5996 338.4 102.8 411.2 c 128,-1,67
 172 484 172 484 269.6 484 c 256,68,69
 367.2 484 367.2 484 436.4 411.2 c 128,-1,70
 505.6 338.4 505.6 338.4 505.6 235.2 c 0,71,72
 505.6 208 505.6 208 502.4 185.6 c 128,-1,73
 499.2 163.2 499.2 163.2 493.6 147.2 c 1,74,75
 515.2 109.6 515.2 109.6 550 87.5996 c 128,-1,76
 584.8 65.5996 584.8 65.5996 623.2 65.5996 c 0,77,78
 677.6 65.5996 677.6 65.5996 715.6 117.6 c 128,-1,79
 753.6 169.6 753.6 169.6 753.6 243.2 c 1,80,-1
 753.6 243.2 l 1,13,14
EndSplineSet
Validated: 5
MultipleSubs2: "Multiple Substitution lookup 325" U0C2F_U0C46.abvs U0C56 U0C2F_U0C46.abvs U0C56
EndChar

StartChar: U0C30
Encoding: 3120 3120 50
Width: 540
VWidth: 819
GlyphClass: 2
Flags: W
LayerCount: 2
Fore
SplineSet
99.2002 242.4 m 5,0,1
 99.2002 168.8 99.2002 168.8 149.2 117.2 c 132,-1,2
 199.2 65.5996 199.2 65.5996 269.6 65.5996 c 260,3,4
 340 65.5996 340 65.5996 389.6 117.2 c 132,-1,5
 439.2 168.8 439.2 168.8 439.2 242.4 c 260,6,7
 439.2 316 439.2 316 389.6 367.6 c 132,-1,8
 340 419.2 340 419.2 269.6 419.2 c 260,9,10
 199.2 419.2 199.2 419.2 149.2 367.6 c 132,-1,11
 99.2002 316 99.2002 316 99.2002 242.4 c 5,12,-1
 99.2002 242.4 l 5,0,1
33.5996 242.4 m 5,13,14
 33.5996 316.8 33.5996 316.8 77.5996 377.2 c 132,-1,15
 121.6 437.6 121.6 437.6 192.8 462.4 c 5,16,17
 160.8 488.8 160.8 488.8 142.8 530.4 c 132,-1,18
 124.8 572 124.8 572 124.8 621.6 c 5,19,-1
 176.8 621.6 l 5,20,21
 176.8 567.2 176.8 567.2 204.4 529.2 c 132,-1,22
 232 491.2 232 491.2 270.4 491.2 c 4,23,24
 284 491.2 284 491.2 300.8 500.4 c 132,-1,25
 317.6 509.6 317.6 509.6 334.4 526.4 c 6,26,-1
 499.2 684 l 5,27,-1
 532.8 650.4 l 5,28,-1
 345.6 462.4 l 5,29,30
 417.6 437.6 417.6 437.6 461.6 375.2 c 132,-1,31
 505.6 312.8 505.6 312.8 505.6 235.2 c 4,32,33
 505.6 137.6 505.6 137.6 436.4 68.7998 c 132,-1,34
 367.2 0 367.2 0 269.6 0 c 260,35,36
 172 0 172 0 102.8 70.7998 c 132,-1,37
 33.5996 141.6 33.5996 141.6 33.5996 242.4 c 5,38,-1
 33.5996 242.4 l 5,13,14
EndSplineSet
Validated: 5
MultipleSubs2: "Multiple Substitution lookup 325" U0C30_U0C46.abvs U0C56 U0C30_U0C46.abvs U0C56
EndChar

StartChar: U0C31
Encoding: 3121 3121 51
Width: 756
VWidth: 819
GlyphClass: 2
Flags: W
LayerCount: 2
Fore
SplineSet
142.4 365.6 m 1,0,1
 142.4 338.4 142.4 338.4 161.6 319.6 c 128,-1,2
 180.8 300.8 180.8 300.8 208 300.8 c 256,3,4
 235.2 300.8 235.2 300.8 254.4 319.6 c 128,-1,5
 273.6 338.4 273.6 338.4 273.6 365.6 c 256,6,7
 273.6 392.8 273.6 392.8 254.4 412 c 128,-1,8
 235.2 431.2 235.2 431.2 208 431.2 c 256,9,10
 180.8 431.2 180.8 431.2 161.6 412 c 128,-1,11
 142.4 392.8 142.4 392.8 142.4 365.6 c 1,12,-1
 142.4 365.6 l 1,0,1
38.4004 247.2 m 1,13,14
 38.4004 345.6 38.4004 345.6 88 414.8 c 128,-1,15
 137.6 484 137.6 484 208 484 c 0,16,17
 256.8 484 256.8 484 291.6 449.2 c 128,-1,18
 326.4 414.4 326.4 414.4 326.4 365.6 c 0,19,20
 326.4 317.6 326.4 317.6 291.2 283.2 c 128,-1,21
 256 248.8 256 248.8 206.4 248.8 c 0,22,23
 169.6 248.8 169.6 248.8 141.6 272 c 128,-1,24
 113.6 295.2 113.6 295.2 107.2 330.4 c 1,25,-1
 103.2 330.4 l 1,26,27
 97.5996 319.2 97.5996 319.2 97.5996 284.8 c 128,-1,28
 97.5996 250.4 97.5996 250.4 97.5996 247.2 c 0,29,30
 97.5996 172 97.5996 172 137.6 118.8 c 128,-1,31
 177.6 65.5996 177.6 65.5996 233.6 65.5996 c 0,32,33
 284 65.5996 284 65.5996 319.6 103.6 c 128,-1,34
 355.2 141.6 355.2 141.6 355.2 196 c 1,35,-1
 402.4 196 l 1,36,37
 402.4 141.6 402.4 141.6 437.6 103.6 c 128,-1,38
 472.8 65.5996 472.8 65.5996 523.2 65.5996 c 0,39,40
 576.8 65.5996 576.8 65.5996 614.8 118.8 c 128,-1,41
 652.8 172 652.8 172 652.8 247.2 c 0,42,43
 652.8 323.2 652.8 323.2 622 377.2 c 128,-1,44
 591.2 431.2 591.2 431.2 548 431.2 c 0,45,46
 520.8 431.2 520.8 431.2 501.6 412 c 128,-1,47
 482.4 392.8 482.4 392.8 482.4 365.6 c 0,48,49
 482.4 334.4 482.4 334.4 513.6 314 c 128,-1,50
 544.8 293.6 544.8 293.6 587.2 297.6 c 1,51,-1
 587.2 248.8 l 1,52,-1
 324 248.8 l 1,53,-1
 324 300.8 l 1,54,-1
 425.6 300.8 l 1,55,-1
 462.4 297.6 l 1,56,-1
 464.8 300.8 l 1,57,58
 448.8 312 448.8 312 440 329.2 c 128,-1,59
 431.2 346.4 431.2 346.4 431.2 365.6 c 0,60,61
 431.2 419.2 431.2 419.2 463.2 451.6 c 128,-1,62
 495.2 484 495.2 484 548 484 c 0,63,64
 618.4 484 618.4 484 668.4 414.8 c 128,-1,65
 718.4 345.6 718.4 345.6 718.4 247.2 c 0,66,67
 718.4 144.8 718.4 144.8 661.2 72.4004 c 128,-1,68
 604 0 604 0 523.2 0 c 0,69,70
 476 0 476 0 437.6 18.7998 c 128,-1,71
 399.2 37.5996 399.2 37.5996 380.8 69.5996 c 1,72,-1
 373.6 69.5996 l 1,73,74
 355.2 37.5996 355.2 37.5996 317.6 18.7998 c 128,-1,75
 280 0 280 0 233.6 0 c 0,76,77
 152.8 0 152.8 0 95.5996 72.4004 c 128,-1,78
 38.4004 144.8 38.4004 144.8 38.4004 247.2 c 1,79,-1
 38.4004 247.2 l 1,13,14
EndSplineSet
Validated: 37
MultipleSubs2: "Multiple Substitution lookup 325" U0C31_U0C46.abvs U0C56 U0C31_U0C46.abvs U0C56
EndChar

StartChar: U0C32
Encoding: 3122 3122 52
Width: 594
VWidth: 819
GlyphClass: 2
Flags: W
AnchorPoint: "Anchor-0" 300 -12 basechar 0
LayerCount: 2
Fore
SplineSet
153.6 365.6 m 1,0,1
 153.6 338.4 153.6 338.4 172.8 319.6 c 128,-1,2
 192 300.8 192 300.8 219.2 300.8 c 256,3,4
 246.4 300.8 246.4 300.8 265.2 319.6 c 128,-1,5
 284 338.4 284 338.4 284 365.6 c 256,6,7
 284 392.8 284 392.8 265.2 412 c 128,-1,8
 246.4 431.2 246.4 431.2 219.2 431.2 c 256,9,10
 192 431.2 192 431.2 172.8 412 c 128,-1,11
 153.6 392.8 153.6 392.8 153.6 365.6 c 1,12,-1
 153.6 365.6 l 1,0,1
297.6 65.5996 m 1,13,14
 378.4 65.5996 378.4 65.5996 436 122.8 c 128,-1,15
 493.6 180 493.6 180 493.6 260.8 c 0,16,17
 493.6 317.6 493.6 317.6 464 362.8 c 128,-1,18
 434.4 408 434.4 408 386.4 425.6 c 1,19,-1
 408 489.6 l 1,20,21
 476 464.8 476 464.8 517.6 402 c 128,-1,22
 559.2 339.2 559.2 339.2 559.2 260.8 c 0,23,24
 559.2 152.8 559.2 152.8 482.4 76.4004 c 128,-1,25
 405.6 0 405.6 0 297.6 0 c 0,26,27
 188.8 0 188.8 0 112 76.4004 c 128,-1,28
 35.2002 152.8 35.2002 152.8 35.2002 260.8 c 0,29,30
 35.2002 353.6 35.2002 353.6 89.2002 418.8 c 128,-1,31
 143.2 484 143.2 484 219.2 484 c 0,32,33
 268 484 268 484 302.8 449.2 c 128,-1,34
 337.6 414.4 337.6 414.4 337.6 365.6 c 0,35,36
 337.6 317.6 337.6 317.6 302.8 283.2 c 128,-1,37
 268 248.8 268 248.8 219.2 248.8 c 0,38,39
 179.2 248.8 179.2 248.8 149.2 272.4 c 128,-1,40
 119.2 296 119.2 296 112.8 332 c 1,41,-1
 108.8 332 l 1,42,43
 104.8 322.4 104.8 322.4 102.8 304.4 c 128,-1,44
 100.8 286.4 100.8 286.4 100.8 260.8 c 0,45,46
 100.8 180 100.8 180 158.4 122.8 c 128,-1,47
 216 65.5996 216 65.5996 297.6 65.5996 c 1,48,-1
 297.6 65.5996 l 1,13,14
EndSplineSet
Validated: 5
MultipleSubs2: "Multiple Substitution lookup 325" U0C32_U0C46.abvs U0C56 U0C32_U0C46.abvs U0C56
EndChar

StartChar: U0C33
Encoding: 3123 3123 53
Width: 561
VWidth: 819
GlyphClass: 2
Flags: W
LayerCount: 2
Fore
SplineSet
77.5996 288 m 1,0,1
 77.5996 260.8 77.5996 260.8 96.4004 241.2 c 128,-1,2
 115.2 221.6 115.2 221.6 142.4 221.6 c 256,3,4
 169.6 221.6 169.6 221.6 188.8 241.2 c 128,-1,5
 208 260.8 208 260.8 208 288 c 256,6,7
 208 315.2 208 315.2 188.8 334.4 c 128,-1,8
 169.6 353.6 169.6 353.6 142.4 353.6 c 256,9,10
 115.2 353.6 115.2 353.6 96.4004 334.4 c 128,-1,11
 77.5996 315.2 77.5996 315.2 77.5996 288 c 1,12,-1
 77.5996 288 l 1,0,1
247.2 84 m 1,13,14
 247.2 76 247.2 76 258.8 70.7998 c 128,-1,15
 270.4 65.5996 270.4 65.5996 287.2 65.5996 c 0,16,17
 303.2 65.5996 303.2 65.5996 314.8 70.7998 c 128,-1,18
 326.4 76 326.4 76 326.4 84 c 0,19,20
 326.4 92.7998 326.4 92.7998 314.8 98.7998 c 128,-1,21
 303.2 104.8 303.2 104.8 287.2 104.8 c 0,22,23
 270.4 104.8 270.4 104.8 258.8 98.7998 c 128,-1,24
 247.2 92.7998 247.2 92.7998 247.2 84 c 1,25,-1
 247.2 84 l 1,13,14
287.2 169.6 m 1,26,27
 362.4 169.6 362.4 169.6 415.6 212 c 128,-1,28
 468.8 254.4 468.8 254.4 468.8 314.4 c 0,29,30
 468.8 364.8 468.8 364.8 424.8 400 c 128,-1,31
 380.8 435.2 380.8 435.2 319.2 435.2 c 2,32,-1
 278.4 435.2 l 2,33,34
 220 435.2 220 435.2 178.8 478.4 c 128,-1,35
 137.6 521.6 137.6 521.6 137.6 582.4 c 1,36,-1
 188.8 582.4 l 1,37,38
 188.8 542.4 188.8 542.4 216.4 514 c 128,-1,39
 244 485.6 244 485.6 283.2 485.6 c 0,40,41
 296.8 485.6 296.8 485.6 313.2 494.8 c 128,-1,42
 329.6 504 329.6 504 346.4 520.8 c 2,43,-1
 511.2 678.4 l 1,44,-1
 545.6 644.8 l 1,45,-1
 376.8 484 l 1,46,47
 445.6 469.6 445.6 469.6 490 421.6 c 128,-1,48
 534.4 373.6 534.4 373.6 534.4 314.4 c 0,49,50
 534.4 245.6 534.4 245.6 487.6 192.4 c 128,-1,51
 440.8 139.2 440.8 139.2 368.8 126.4 c 1,52,-1
 367.2 124 l 1,53,54
 376 113.6 376 113.6 380.4 103.6 c 128,-1,55
 384.8 93.5996 384.8 93.5996 384.8 84 c 0,56,57
 384.8 49.5996 384.8 49.5996 356.4 24.7998 c 128,-1,58
 328 0 328 0 287.2 0 c 0,59,60
 240.8 0 240.8 0 208 24.7998 c 128,-1,61
 175.2 49.5996 175.2 49.5996 175.2 84 c 0,62,63
 175.2 89.5996 175.2 89.5996 178.4 96.4004 c 128,-1,64
 181.6 103.2 181.6 103.2 188 110.4 c 1,65,-1
 188 114.4 l 1,66,67
 117.6 127.2 117.6 127.2 71.2002 176 c 128,-1,68
 24.7998 224.8 24.7998 224.8 24.7998 288 c 0,69,70
 24.7998 336.8 24.7998 336.8 59.2002 371.2 c 128,-1,71
 93.5996 405.6 93.5996 405.6 142.4 405.6 c 256,72,73
 191.2 405.6 191.2 405.6 225.6 371.2 c 128,-1,74
 260 336.8 260 336.8 260 288 c 0,75,76
 260 249.6 260 249.6 237.2 220.4 c 128,-1,77
 214.4 191.2 214.4 191.2 179.2 184.8 c 1,78,-1
 179.2 179.2 l 1,79,80
 190.4 172.8 190.4 172.8 213.2 171.2 c 128,-1,81
 236 169.6 236 169.6 287.2 169.6 c 1,82,-1
 287.2 169.6 l 1,26,27
EndSplineSet
Validated: 5
MultipleSubs2: "Multiple Substitution lookup 325" U0C33_U0C46.abvs U0C56 U0C33_U0C46.abvs U0C56
EndChar

StartChar: U0C35
Encoding: 3125 3125 54
Width: 576
VWidth: 819
GlyphClass: 2
Flags: W
AnchorPoint: "Anchor-0" 280 -2.40039 basechar 0
LayerCount: 2
Fore
SplineSet
76 118.4 m 1,0,1
 76 91.2002 76 91.2002 95.2002 71.5996 c 128,-1,2
 114.4 52 114.4 52 141.6 52 c 256,3,4
 168.8 52 168.8 52 187.6 71.5996 c 128,-1,5
 206.4 91.2002 206.4 91.2002 206.4 118.4 c 256,6,7
 206.4 145.6 206.4 145.6 187.6 164.4 c 128,-1,8
 168.8 183.2 168.8 183.2 141.6 183.2 c 256,9,10
 114.4 183.2 114.4 183.2 95.2002 164.4 c 128,-1,11
 76 145.6 76 145.6 76 118.4 c 1,12,-1
 76 118.4 l 1,0,1
23.2002 118.4 m 1,13,14
 23.2002 166.4 23.2002 166.4 58 200.8 c 128,-1,15
 92.7998 235.2 92.7998 235.2 141.6 235.2 c 0,16,17
 183.2 235.2 183.2 235.2 216 207.6 c 128,-1,18
 248.8 180 248.8 180 260 136 c 0,19,20
 268 104.8 268 104.8 296.8 85.2002 c 128,-1,21
 325.6 65.5996 325.6 65.5996 363.2 65.5996 c 0,22,23
 409.6 65.5996 409.6 65.5996 442 115.6 c 128,-1,24
 474.4 165.6 474.4 165.6 474.4 236.8 c 0,25,26
 474.4 320 474.4 320 419.6 378.4 c 128,-1,27
 364.8 436.8 364.8 436.8 287.2 436.8 c 2,28,-1
 220 436.8 l 2,29,30
 160 436.8 160 436.8 117.2 479.6 c 128,-1,31
 74.4004 522.4 74.4004 522.4 74.4004 582.4 c 1,32,-1
 126.4 582.4 l 1,33,34
 126.4 542.4 126.4 542.4 154 514 c 128,-1,35
 181.6 485.6 181.6 485.6 220 485.6 c 0,36,37
 233.6 485.6 233.6 485.6 250.4 494.8 c 128,-1,38
 267.2 504 267.2 504 284 520.8 c 2,39,-1
 448.8 678.4 l 1,40,-1
 482.4 644.8 l 1,41,-1
 319.2 488 l 1,42,43
 413.6 476 413.6 476 476.8 404.4 c 128,-1,44
 540 332.8 540 332.8 540 236.8 c 0,45,46
 540 138.4 540 138.4 488.4 69.2002 c 128,-1,47
 436.8 0 436.8 0 363.2 0 c 0,48,49
 328 0 328 0 297.6 18.4004 c 128,-1,50
 267.2 36.7998 267.2 36.7998 248.8 68 c 1,51,-1
 246.4 66.4004 l 1,52,53
 235.2 36.7998 235.2 36.7998 206.4 18.4004 c 128,-1,54
 177.6 0 177.6 0 141.6 0 c 0,55,56
 92.7998 0 92.7998 0 58 34.7998 c 128,-1,57
 23.2002 69.5996 23.2002 69.5996 23.2002 118.4 c 1,58,-1
 23.2002 118.4 l 1,13,14
EndSplineSet
Validated: 5
MultipleSubs2: "Multiple Substitution lookup 325" U0C35_U0C46.abvs U0C56 U0C35_U0C46.abvs U0C56
EndChar

StartChar: U0C36
Encoding: 3126 3126 55
Width: 500
VWidth: 819
GlyphClass: 2
Flags: W
LayerCount: 2
Fore
SplineSet
216 147.2 m 1,0,1
 216 113.6 216 113.6 240.4 89.5996 c 128,-1,2
 264.8 65.5996 264.8 65.5996 299.2 65.5996 c 256,3,4
 333.6 65.5996 333.6 65.5996 358.4 89.5996 c 128,-1,5
 383.2 113.6 383.2 113.6 383.2 147.2 c 0,6,7
 383.2 181.6 383.2 181.6 358.4 205.6 c 128,-1,8
 333.6 229.6 333.6 229.6 299.2 229.6 c 256,9,10
 264.8 229.6 264.8 229.6 240.4 205.6 c 128,-1,11
 216 181.6 216 181.6 216 147.2 c 1,12,-1
 216 147.2 l 1,0,1
157.6 151.2 m 1,13,14
 157.6 184 157.6 184 171.2 210.4 c 128,-1,15
 184.8 236.8 184.8 236.8 208 250.4 c 1,16,-1
 208 254.4 l 1,17,18
 197.6 261.6 197.6 261.6 179.2 265.6 c 128,-1,19
 160.8 269.6 160.8 269.6 136 269.6 c 0,20,21
 114.4 269.6 114.4 269.6 99.2002 257.2 c 128,-1,22
 84 244.8 84 244.8 84 227.2 c 0,23,24
 84 214.4 84 214.4 88.4004 202.4 c 128,-1,25
 92.7998 190.4 92.7998 190.4 100.8 180.8 c 1,26,-1
 36.7998 159.2 l 1,27,28
 28 183.2 28 183.2 23.5996 200.4 c 128,-1,29
 19.2002 217.6 19.2002 217.6 19.2002 227.2 c 0,30,31
 19.2002 269.6 19.2002 269.6 53.5996 300 c 128,-1,32
 88 330.4 88 330.4 136 330.4 c 0,33,34
 182.4 330.4 182.4 330.4 222 319.2 c 128,-1,35
 261.6 308 261.6 308 292 287.2 c 1,36,37
 349.6 308 349.6 308 384.4 333.2 c 128,-1,38
 419.2 358.4 419.2 358.4 419.2 378.4 c 0,39,40
 419.2 402.4 419.2 402.4 365.2 418.8 c 128,-1,41
 311.2 435.2 311.2 435.2 233.6 435.2 c 2,42,-1
 192 435.2 l 2,43,44
 133.6 435.2 133.6 435.2 92 478.4 c 128,-1,45
 50.4004 521.6 50.4004 521.6 50.4004 582.4 c 1,46,-1
 101.6 582.4 l 1,47,48
 101.6 542.4 101.6 542.4 129.2 514 c 128,-1,49
 156.8 485.6 156.8 485.6 196 485.6 c 0,50,51
 209.6 485.6 209.6 485.6 226.4 494.8 c 128,-1,52
 243.2 504 243.2 504 260 520.8 c 2,53,-1
 424 678.4 l 1,54,-1
 458.4 644.8 l 1,55,-1
 293.6 487.2 l 1,56,57
 372 477.6 372 477.6 424.8 446.4 c 128,-1,58
 477.6 415.2 477.6 415.2 477.6 378.4 c 0,59,60
 477.6 352.8 477.6 352.8 447.2 323.2 c 128,-1,61
 416.8 293.6 416.8 293.6 364.8 269.6 c 1,62,-1
 364.8 264 l 1,63,64
 398.4 244.8 398.4 244.8 418 212.4 c 128,-1,65
 437.6 180 437.6 180 437.6 144 c 0,66,67
 437.6 84 437.6 84 396 42 c 128,-1,68
 354.4 0 354.4 0 295.2 0 c 0,69,70
 238.4 0 238.4 0 198 44.4004 c 128,-1,71
 157.6 88.7998 157.6 88.7998 157.6 151.2 c 1,72,-1
 157.6 151.2 l 1,13,14
EndSplineSet
Validated: 5
MultipleSubs2: "Multiple Substitution lookup 325" U0C36_U0C46.abvs U0C56 U0C36_U0C46.abvs U0C56
EndChar

StartChar: U0C37
Encoding: 3127 3127 56
Width: 600
VWidth: 819
GlyphClass: 2
Flags: W
LayerCount: 2
Fore
SplineSet
76 118.4 m 5,0,1
 76 91.2002 76 91.2002 95.2002 71.5996 c 132,-1,2
 114.4 52 114.4 52 141.6 52 c 260,3,4
 168.8 52 168.8 52 187.6 71.5996 c 132,-1,5
 206.4 91.2002 206.4 91.2002 206.4 118.4 c 260,6,7
 206.4 145.6 206.4 145.6 187.6 164.4 c 132,-1,8
 168.8 183.2 168.8 183.2 141.6 183.2 c 260,9,10
 114.4 183.2 114.4 183.2 95.2002 164.4 c 132,-1,11
 76 145.6 76 145.6 76 118.4 c 5,12,-1
 76 118.4 l 5,0,1
363.2 65.5996 m 5,13,14
 406.4 65.5996 406.4 65.5996 437.2 114.8 c 132,-1,15
 468 164 468 164 468 233.6 c 4,16,17
 468 312.8 468 312.8 429.2 369.2 c 132,-1,18
 390.4 425.6 390.4 425.6 336 425.6 c 5,19,-1
 351.2 482.4 l 5,20,21
 426.4 482.4 426.4 482.4 479.6 410.8 c 132,-1,22
 532.8 339.2 532.8 339.2 532.8 237.6 c 6,23,-1
 532.8 183.2 l 6,24,25
 532.8 72.7998 532.8 72.7998 584.8 -4.40039 c 132,-1,26
 636.8 -81.5996 636.8 -81.5996 703.2 -69.5996 c 5,27,-1
 703.2 -134.4 l 5,28,29
 628 -134.4 628 -134.4 568 -72 c 132,-1,30
 508 -9.59961 508 -9.59961 491.2 85.5996 c 5,31,-1
 485.6 85.5996 l 5,32,33
 462.4 45.5996 462.4 45.5996 429.6 22.7998 c 132,-1,34
 396.8 0 396.8 0 363.2 0 c 4,35,36
 328 0 328 0 297.2 17.5996 c 132,-1,37
 266.4 35.2002 266.4 35.2002 248.8 66.4004 c 5,38,-1
 244.8 66.4004 l 5,39,40
 233.6 36.7998 233.6 36.7998 205.2 18.4004 c 132,-1,41
 176.8 0 176.8 0 141.6 0 c 4,42,43
 92.7998 0 92.7998 0 58 34.7998 c 132,-1,44
 23.2002 69.5996 23.2002 69.5996 23.2002 118.4 c 4,45,46
 23.2002 166.4 23.2002 166.4 58 200.8 c 132,-1,47
 92.7998 235.2 92.7998 235.2 141.6 235.2 c 4,48,49
 183.2 235.2 183.2 235.2 217.2 208 c 132,-1,50
 251.2 180.8 251.2 180.8 264.8 137.6 c 4,51,52
 274.4 105.6 274.4 105.6 301.6 85.5996 c 132,-1,53
 328.8 65.5996 328.8 65.5996 363.2 65.5996 c 5,54,-1
 363.2 65.5996 l 5,13,14
11.2002 633.6 m 5,55,-1
 60.7998 633.6 l 5,56,57
 60.7998 584.8 60.7998 584.8 84.4004 550 c 132,-1,58
 108 515.2 108 515.2 141.6 515.2 c 4,59,60
 158.4 515.2 158.4 515.2 176.4 521.6 c 132,-1,61
 194.4 528 194.4 528 212 540 c 6,62,-1
 427.2 685.6 l 5,63,-1
 458.4 641.6 l 5,64,-1
 239.2 492 l 6,65,66
 214.4 475.2 214.4 475.2 189.6 466 c 132,-1,67
 164.8 456.8 164.8 456.8 141.6 456.8 c 4,68,69
 87.2002 456.8 87.2002 456.8 49.2002 508.4 c 132,-1,70
 11.2002 560 11.2002 560 11.2002 633.6 c 5,71,-1
 11.2002 633.6 l 5,55,-1
EndSplineSet
Validated: 37
MultipleSubs2: "Multiple Substitution lookup 325" U0C37_U0C46.abvs U0C56 U0C37_U0C46.abvs U0C56
EndChar

StartChar: U0C38
Encoding: 3128 3128 57
Width: 590
VWidth: 819
GlyphClass: 2
Flags: W
LayerCount: 2
Fore
SplineSet
380.8 65.5996 m 1,0,1
 424 65.5996 424 65.5996 454.8 115.2 c 128,-1,2
 485.6 164.8 485.6 164.8 485.6 235.2 c 0,3,4
 485.6 312.8 485.6 312.8 439.6 368 c 128,-1,5
 393.6 423.2 393.6 423.2 328.8 423.2 c 1,6,-1
 356 489.6 l 1,7,8
 436.8 489.6 436.8 489.6 493.6 415.2 c 128,-1,9
 550.4 340.8 550.4 340.8 550.4 235.2 c 0,10,11
 550.4 137.6 550.4 137.6 500.8 68.7998 c 128,-1,12
 451.2 0 451.2 0 380.8 0 c 0,13,14
 322.4 0 322.4 0 279.2 36.7998 c 128,-1,15
 236 73.5996 236 73.5996 231.2 128 c 0,16,17
 228 162.4 228 162.4 209.2 186 c 128,-1,18
 190.4 209.6 190.4 209.6 165.6 209.6 c 0,19,20
 135.2 209.6 135.2 209.6 114 182.4 c 128,-1,21
 92.7998 155.2 92.7998 155.2 92.7998 116.8 c 0,22,23
 92.7998 96.7998 92.7998 96.7998 104.8 71.5996 c 128,-1,24
 116.8 46.4004 116.8 46.4004 140 19.2002 c 1,25,-1
 80 -9.59961 l 1,26,27
 54.4004 20.7998 54.4004 20.7998 40.7998 53.5996 c 128,-1,28
 27.2002 86.4004 27.2002 86.4004 27.2002 116.8 c 0,29,30
 27.2002 182.4 27.2002 182.4 67.5996 228.4 c 128,-1,31
 108 274.4 108 274.4 165.6 274.4 c 0,32,33
 213.6 274.4 213.6 274.4 249.2 240 c 128,-1,34
 284.8 205.6 284.8 205.6 289.6 155.2 c 0,35,36
 292.8 116.8 292.8 116.8 319.2 91.2002 c 128,-1,37
 345.6 65.5996 345.6 65.5996 380.8 65.5996 c 1,38,-1
 380.8 65.5996 l 1,0,1
15.2002 633.6 m 1,39,-1
 65.5996 633.6 l 1,40,41
 65.5996 584.8 65.5996 584.8 89.2002 550 c 128,-1,42
 112.8 515.2 112.8 515.2 145.6 515.2 c 0,43,44
 162.4 515.2 162.4 515.2 180.4 521.6 c 128,-1,45
 198.4 528 198.4 528 216 540 c 2,46,-1
 431.2 685.6 l 1,47,-1
 462.4 641.6 l 1,48,-1
 243.2 492 l 2,49,50
 218.4 475.2 218.4 475.2 193.6 466 c 128,-1,51
 168.8 456.8 168.8 456.8 145.6 456.8 c 0,52,53
 91.2002 456.8 91.2002 456.8 53.2002 508.4 c 128,-1,54
 15.2002 560 15.2002 560 15.2002 633.6 c 1,55,-1
 15.2002 633.6 l 1,39,-1
EndSplineSet
Validated: 5
MultipleSubs2: "Multiple Substitution lookup 325" U0C38_U0C46.abvs U0C56 U0C38_U0C46.abvs U0C56
EndChar

StartChar: U0C39
Encoding: 3129 3129 58
Width: 882
VWidth: 819
GlyphClass: 2
Flags: W
LayerCount: 2
Fore
SplineSet
76 118.4 m 1,0,1
 76 91.2002 76 91.2002 95.2002 71.5996 c 128,-1,2
 114.4 52 114.4 52 141.6 52 c 256,3,4
 168.8 52 168.8 52 187.6 71.5996 c 128,-1,5
 206.4 91.2002 206.4 91.2002 206.4 118.4 c 256,6,7
 206.4 145.6 206.4 145.6 187.6 164.4 c 128,-1,8
 168.8 183.2 168.8 183.2 141.6 183.2 c 256,9,10
 114.4 183.2 114.4 183.2 95.2002 164.4 c 128,-1,11
 76 145.6 76 145.6 76 118.4 c 1,12,-1
 76 118.4 l 1,0,1
677.6 365.6 m 1,13,14
 677.6 338.4 677.6 338.4 696.4 319.6 c 128,-1,15
 715.2 300.8 715.2 300.8 742.4 300.8 c 256,16,17
 769.6 300.8 769.6 300.8 788.8 319.6 c 128,-1,18
 808 338.4 808 338.4 808 365.6 c 256,19,20
 808 392.8 808 392.8 788.8 412 c 128,-1,21
 769.6 431.2 769.6 431.2 742.4 431.2 c 256,22,23
 715.2 431.2 715.2 431.2 696.4 412 c 128,-1,24
 677.6 392.8 677.6 392.8 677.6 365.6 c 1,25,-1
 677.6 365.6 l 1,13,14
23.2002 118.4 m 1,26,27
 23.2002 166.4 23.2002 166.4 58 200.8 c 128,-1,28
 92.7998 235.2 92.7998 235.2 141.6 235.2 c 0,29,30
 187.2 235.2 187.2 235.2 220.4 206.4 c 128,-1,31
 253.6 177.6 253.6 177.6 258.4 134.4 c 1,32,33
 272 103.2 272 103.2 300.8 84.4004 c 128,-1,34
 329.6 65.5996 329.6 65.5996 363.2 65.5996 c 0,35,36
 417.6 65.5996 417.6 65.5996 456.4 120.8 c 128,-1,37
 495.2 176 495.2 176 495.2 254.4 c 0,38,39
 495.2 328 495.2 328 455.2 379.6 c 128,-1,40
 415.2 431.2 415.2 431.2 359.2 431.2 c 1,41,-1
 388.8 489.6 l 1,42,-1
 716.8 489.6 l 2,43,44
 776.8 489.6 776.8 489.6 818.8 453.2 c 128,-1,45
 860.8 416.8 860.8 416.8 860.8 365.6 c 0,46,47
 860.8 316.8 860.8 316.8 826 282 c 128,-1,48
 791.2 247.2 791.2 247.2 742.4 247.2 c 0,49,50
 694.4 247.2 694.4 247.2 660 282 c 128,-1,51
 625.6 316.8 625.6 316.8 625.6 365.6 c 0,52,53
 625.6 382.4 625.6 382.4 632 399.6 c 128,-1,54
 638.4 416.8 638.4 416.8 651.2 431.2 c 1,55,-1
 650.4 435.2 l 1,56,-1
 616 431.2 l 1,57,-1
 528 431.2 l 1,58,-1
 488 435.2 l 1,59,-1
 485.6 431.2 l 1,60,61
 520.8 401.6 520.8 401.6 540.4 354.8 c 128,-1,62
 560 308 560 308 560 252.8 c 0,63,64
 560 148 560 148 502.4 74 c 128,-1,65
 444.8 0 444.8 0 363.2 0 c 0,66,67
 328 0 328 0 297.2 17.5996 c 128,-1,68
 266.4 35.2002 266.4 35.2002 248.8 66.4004 c 1,69,-1
 244.8 66.4004 l 1,70,71
 233.6 36.7998 233.6 36.7998 205.2 18.4004 c 128,-1,72
 176.8 0 176.8 0 141.6 0 c 0,73,74
 92.7998 0 92.7998 0 58 34.7998 c 128,-1,75
 23.2002 69.5996 23.2002 69.5996 23.2002 118.4 c 1,76,-1
 23.2002 118.4 l 1,26,27
11.2002 633.6 m 1,77,-1
 60.7998 633.6 l 1,78,79
 60.7998 584.8 60.7998 584.8 84.4004 550 c 128,-1,80
 108 515.2 108 515.2 141.6 515.2 c 0,81,82
 158.4 515.2 158.4 515.2 176.4 521.6 c 128,-1,83
 194.4 528 194.4 528 212 540 c 2,84,-1
 427.2 685.6 l 1,85,-1
 458.4 641.6 l 1,86,-1
 239.2 492 l 2,87,88
 214.4 475.2 214.4 475.2 189.6 466 c 128,-1,89
 164.8 456.8 164.8 456.8 141.6 456.8 c 0,90,91
 87.2002 456.8 87.2002 456.8 49.2002 508.4 c 128,-1,92
 11.2002 560 11.2002 560 11.2002 633.6 c 1,93,-1
 11.2002 633.6 l 1,77,-1
EndSplineSet
Validated: 5
MultipleSubs2: "Multiple Substitution lookup 325" U0C39_U0C46.abvs U0C56 U0C39_U0C46.abvs U0C56
EndChar

StartChar: U0C3E
Encoding: 3134 3134 59
Width: 601
VWidth: 819
GlyphClass: 2
Flags: W
LayerCount: 2
Fore
SplineSet
366.4 369.6 m 5,0,1
 366.4 389.6 366.4 389.6 371.6 406.8 c 132,-1,2
 376.8 424 376.8 424 386.4 435.2 c 5,3,-1
 384 441.6 l 5,4,-1
 332 435.2 l 5,5,-1
 -274.4 435.2 l 5,6,-1
 -274.4 500.8 l 5,7,-1
 456.8 500.8 l 6,8,9
 516.8 500.8 516.8 500.8 559.2 462.4 c 132,-1,10
 601.6 424 601.6 424 601.6 369.6 c 4,11,12
 601.6 320.8 601.6 320.8 567.2 286 c 132,-1,13
 532.8 251.2 532.8 251.2 484 251.2 c 260,14,15
 435.2 251.2 435.2 251.2 400.8 286 c 132,-1,16
 366.4 320.8 366.4 320.8 366.4 369.6 c 5,17,-1
 366.4 369.6 l 5,0,1
419.2 369.6 m 5,18,19
 419.2 342.4 419.2 342.4 438 323.6 c 132,-1,20
 456.8 304.8 456.8 304.8 484 304.8 c 260,21,22
 511.2 304.8 511.2 304.8 530.4 323.6 c 132,-1,23
 549.6 342.4 549.6 342.4 549.6 369.6 c 260,24,25
 549.6 396.8 549.6 396.8 530.4 416 c 132,-1,26
 511.2 435.2 511.2 435.2 484 435.2 c 260,27,28
 456.8 435.2 456.8 435.2 438 416 c 132,-1,29
 419.2 396.8 419.2 396.8 419.2 369.6 c 5,30,-1
 419.2 369.6 l 5,18,19
EndSplineSet
Validated: 5
EndChar

StartChar: U0C3F
Encoding: 3135 3135 60
Width: 0
VWidth: 819
GlyphClass: 2
Flags: W
LayerCount: 2
Fore
SplineSet
-101.6 520.8 m 1,0,1
 -78.4004 505.6 -78.4004 505.6 -52.7998 497.6 c 128,-1,2
 -27.2002 489.6 -27.2002 489.6 -1.59961 489.6 c 0,3,4
 47.2002 489.6 47.2002 489.6 82 518.8 c 128,-1,5
 116.8 548 116.8 548 116.8 588.8 c 1,6,-1
 110.4 591.2 l 1,7,8
 95.2002 571.2 95.2002 571.2 68.4004 560.4 c 128,-1,9
 41.5996 549.6 41.5996 549.6 8 549.6 c 0,10,11
 -55.2002 549.6 -55.2002 549.6 -99.5996 580.4 c 128,-1,12
 -144 611.2 -144 611.2 -144 654.4 c 0,13,14
 -144 700.8 -144 700.8 -99.2002 733.2 c 128,-1,15
 -54.4004 765.6 -54.4004 765.6 9.59961 765.6 c 1,16,17
 82.4004 755.2 82.4004 755.2 130.4 710.4 c 128,-1,18
 178.4 665.6 178.4 665.6 178.4 608 c 0,19,20
 178.4 537.6 178.4 537.6 125.6 487.6 c 128,-1,21
 72.7998 437.6 72.7998 437.6 -1.59961 437.6 c 0,22,23
 -40.7998 437.6 -40.7998 437.6 -74.4004 448 c 128,-1,24
 -108 458.4 -108 458.4 -132.8 477.6 c 1,25,-1
 -101.6 520.8 l 1,26,-1
 -101.6 520.8 l 1,0,1
-77.5996 660.8 m 1,27,28
 -77.5996 633.6 -77.5996 633.6 -52.4004 614.8 c 128,-1,29
 -27.2002 596 -27.2002 596 8 596 c 0,30,31
 40 596 40 596 62.4004 613.2 c 128,-1,32
 84.7998 630.4 84.7998 630.4 84.7998 654.4 c 256,33,34
 84.7998 678.4 84.7998 678.4 62.4004 695.6 c 128,-1,35
 40 712.8 40 712.8 8 712.8 c 0,36,37
 -27.2002 712.8 -27.2002 712.8 -52.4004 697.6 c 128,-1,38
 -77.5996 682.4 -77.5996 682.4 -77.5996 660.8 c 1,39,-1
 -77.5996 660.8 l 1,27,28
EndSplineSet
Validated: 5
EndChar

StartChar: U0C40
Encoding: 3136 3136 61
Width: 0
VWidth: 819
GlyphClass: 2
Flags: W
LayerCount: 2
Fore
SplineSet
-108.8 528 m 1,0,1
 -88.7998 512.8 -88.7998 512.8 -60.7998 504.4 c 128,-1,2
 -32.7998 496 -32.7998 496 0.799805 496 c 0,3,4
 45.5996 496 45.5996 496 77.5996 523.2 c 128,-1,5
 109.6 550.4 109.6 550.4 109.6 588.8 c 1,6,-1
 104.8 594.4 l 1,7,8
 88 576 88 576 60.7998 566 c 128,-1,9
 33.5996 556 33.5996 556 0.799805 556 c 0,10,11
 -62.4004 556 -62.4004 556 -106.8 586.8 c 128,-1,12
 -151.2 617.6 -151.2 617.6 -151.2 660.8 c 0,13,14
 -151.2 687.2 -151.2 687.2 -132 709.6 c 128,-1,15
 -112.8 732 -112.8 732 -81.5996 740.8 c 1,16,-1
 -81.5996 746.4 l 1,17,18
 -105.6 753.6 -105.6 753.6 -120.4 773.2 c 128,-1,19
 -135.2 792.8 -135.2 792.8 -135.2 817.6 c 0,20,21
 -135.2 860.8 -135.2 860.8 -95.2002 891.6 c 128,-1,22
 -55.2002 922.4 -55.2002 922.4 0.799805 922.4 c 0,23,24
 63.2002 922.4 63.2002 922.4 106 886.8 c 128,-1,25
 148.8 851.2 148.8 851.2 144 804 c 1,26,-1
 72.7998 804 l 1,27,28
 72.7998 831.2 72.7998 831.2 51.5996 850 c 128,-1,29
 30.4004 868.8 30.4004 868.8 0.799805 868.8 c 0,30,31
 -27.2002 868.8 -27.2002 868.8 -47.2002 854 c 128,-1,32
 -67.2002 839.2 -67.2002 839.2 -67.2002 817.6 c 0,33,34
 -67.2002 799.2 -67.2002 799.2 -46.7998 783.6 c 128,-1,35
 -26.4004 768 -26.4004 768 4 764 c 0,36,37
 76 753.6 76 753.6 123.6 709.2 c 128,-1,38
 171.2 664.8 171.2 664.8 171.2 608 c 0,39,40
 171.2 537.6 171.2 537.6 121.2 487.6 c 128,-1,41
 71.2002 437.6 71.2002 437.6 0.799805 437.6 c 0,42,43
 -32 437.6 -32 437.6 -67.5996 446 c 128,-1,44
 -103.2 454.4 -103.2 454.4 -140 470.4 c 1,45,-1
 -108.8 528 l 1,46,-1
 -108.8 528 l 1,0,1
-84.7998 660.8 m 1,47,48
 -84.7998 639.2 -84.7998 639.2 -59.5996 624.4 c 128,-1,49
 -34.4004 609.6 -34.4004 609.6 0.799805 609.6 c 0,50,51
 32.7998 609.6 32.7998 609.6 55.2002 624.4 c 128,-1,52
 77.5996 639.2 77.5996 639.2 77.5996 660.8 c 256,53,54
 77.5996 682.4 77.5996 682.4 55.2002 697.6 c 128,-1,55
 32.7998 712.8 32.7998 712.8 0.799805 712.8 c 0,56,57
 -34.4004 712.8 -34.4004 712.8 -59.5996 697.6 c 128,-1,58
 -84.7998 682.4 -84.7998 682.4 -84.7998 660.8 c 1,59,-1
 -84.7998 660.8 l 1,47,48
EndSplineSet
Validated: 37
EndChar

StartChar: U0C41
Encoding: 3137 3137 62
Width: 368
VWidth: 819
GlyphClass: 2
Flags: W
LayerCount: 2
Fore
SplineSet
-69.5996 141.6 m 1,0,-1
 -56 224 l 1,1,2
 -37.5996 153.6 -37.5996 153.6 14.4004 109.6 c 128,-1,3
 66.4004 65.5996 66.4004 65.5996 129.6 65.5996 c 0,4,5
 184 65.5996 184 65.5996 222 115.6 c 128,-1,6
 260 165.6 260 165.6 260 236.8 c 0,7,8
 260 314.4 260 314.4 212.8 368.8 c 128,-1,9
 165.6 423.2 165.6 423.2 99.2002 423.2 c 1,10,-1
 114.4 488 l 1,11,12
 204.8 488 204.8 488 268.4 414 c 128,-1,13
 332 340 332 340 332 235.2 c 0,14,15
 332 137.6 332 137.6 270.8 68.7998 c 128,-1,16
 209.6 0 209.6 0 122.4 0 c 0,17,18
 54.4004 0 54.4004 0 0.799805 39.5996 c 128,-1,19
 -52.7998 79.2002 -52.7998 79.2002 -69.5996 141.6 c 1,20,-1
 -69.5996 141.6 l 1,0,-1
EndSplineSet
Validated: 5
EndChar

StartChar: U0C42
Encoding: 3138 3138 63
Width: 724
VWidth: 819
GlyphClass: 2
Flags: W
LayerCount: 2
Fore
SplineSet
518.4 379.2 m 1,0,1
 518.4 352 518.4 352 537.2 333.2 c 128,-1,2
 556 314.4 556 314.4 583.2 314.4 c 256,3,4
 610.4 314.4 610.4 314.4 629.6 333.2 c 128,-1,5
 648.8 352 648.8 352 648.8 379.2 c 256,6,7
 648.8 406.4 648.8 406.4 629.6 425.6 c 128,-1,8
 610.4 444.8 610.4 444.8 583.2 444.8 c 256,9,10
 556 444.8 556 444.8 537.2 425.6 c 128,-1,11
 518.4 406.4 518.4 406.4 518.4 379.2 c 1,12,-1
 518.4 379.2 l 1,0,1
103.2 509.6 m 1,13,-1
 557.6 509.6 l 2,14,15
 617.6 509.6 617.6 509.6 659.6 471.6 c 128,-1,16
 701.6 433.6 701.6 433.6 701.6 379.2 c 0,17,18
 701.6 330.4 701.6 330.4 666.8 295.6 c 128,-1,19
 632 260.8 632 260.8 583.2 260.8 c 256,20,21
 534.4 260.8 534.4 260.8 500 295.6 c 128,-1,22
 465.6 330.4 465.6 330.4 465.6 379.2 c 0,23,24
 465.6 395.2 465.6 395.2 472.8 412 c 128,-1,25
 480 428.8 480 428.8 492.8 444.8 c 1,26,-1
 489.6 448.8 l 1,27,-1
 444.8 444.8 l 1,28,-1
 275.2 444.8 l 1,29,-1
 240.8 448.8 l 1,30,-1
 238.4 444.8 l 1,31,32
 276 418.4 276 418.4 297.2 362.8 c 128,-1,33
 318.4 307.2 318.4 307.2 318.4 235.2 c 0,34,35
 318.4 137.6 318.4 137.6 259.2 68.7998 c 128,-1,36
 200 0 200 0 116 0 c 0,37,38
 47.2002 0 47.2002 0 -5.2002 44 c 128,-1,39
 -57.5996 88 -57.5996 88 -69.5996 155.2 c 1,40,-1
 -69.5996 224 l 1,41,42
 -57.5996 155.2 -57.5996 155.2 -4.7998 110.4 c 128,-1,43
 48 65.5996 48 65.5996 116 65.5996 c 0,44,45
 176 65.5996 176 65.5996 218 115.2 c 128,-1,46
 260 164.8 260 164.8 260 235.2 c 0,47,48
 260 324 260 324 214 387.2 c 128,-1,49
 168 450.4 168 450.4 103.2 450.4 c 1,50,-1
 103.2 509.6 l 1,51,-1
 103.2 509.6 l 1,13,-1
EndSplineSet
Validated: 5
EndChar

StartChar: U0C43
Encoding: 3139 3139 64
Width: 321
VWidth: 819
GlyphClass: 2
Flags: W
LayerCount: 2
Fore
SplineSet
-106.4 -217.6 m 1,0,1
 -106.4 -242.4 -106.4 -242.4 -88.4004 -260.4 c 128,-1,2
 -70.4004 -278.4 -70.4004 -278.4 -45.5996 -278.4 c 0,3,4
 -20 -278.4 -20 -278.4 -2 -260.4 c 128,-1,5
 16 -242.4 16 -242.4 16 -217.6 c 0,6,7
 16 -192 16 -192 -2 -174 c 128,-1,8
 -20 -156 -20 -156 -45.5996 -156 c 0,9,10
 -70.4004 -156 -70.4004 -156 -88.4004 -174 c 128,-1,11
 -106.4 -192 -106.4 -192 -106.4 -217.6 c 1,12,-1
 -106.4 -217.6 l 1,0,1
-160.8 -217.6 m 1,13,14
 -160.8 -169.6 -160.8 -169.6 -127.2 -135.6 c 128,-1,15
 -93.5996 -101.6 -93.5996 -101.6 -45.5996 -101.6 c 256,16,17
 2.40039 -101.6 2.40039 -101.6 36.4004 -135.6 c 128,-1,18
 70.4004 -169.6 70.4004 -169.6 70.4004 -217.6 c 0,19,20
 70.4004 -262.4 70.4004 -262.4 36.4004 -294.4 c 128,-1,21
 2.40039 -326.4 2.40039 -326.4 -45.5996 -326.4 c 1,22,-1
 -48 -330.4 l 1,23,24
 -38.4004 -344 -38.4004 -344 -16 -352 c 128,-1,25
 6.40039 -360 6.40039 -360 36 -360 c 0,26,27
 120.8 -360 120.8 -360 180.4 -266.4 c 128,-1,28
 240 -172.8 240 -172.8 240 -40.7998 c 0,29,30
 240 86.4004 240 86.4004 178 196 c 128,-1,31
 116 305.6 116 305.6 8.7998 367.2 c 1,32,-1
 49.5996 421.6 l 1,33,34
 166.4 354.4 166.4 354.4 234 230.4 c 128,-1,35
 301.6 106.4 301.6 106.4 301.6 -40.7998 c 0,36,37
 301.6 -198.4 301.6 -198.4 224 -310 c 128,-1,38
 146.4 -421.6 146.4 -421.6 36 -421.6 c 0,39,40
 -45.5996 -421.6 -45.5996 -421.6 -103.2 -362 c 128,-1,41
 -160.8 -302.4 -160.8 -302.4 -160.8 -217.6 c 1,42,-1
 -160.8 -217.6 l 1,13,14
EndSplineSet
Validated: 5
EndChar

StartChar: U0C44
Encoding: 3140 3140 65
Width: 612
VWidth: 819
GlyphClass: 2
Flags: W
LayerCount: 2
Fore
SplineSet
408 260.8 m 1,0,1
 408 233.6 408 233.6 426.8 214.8 c 128,-1,2
 445.6 196 445.6 196 472.8 196 c 256,3,4
 500 196 500 196 519.2 214.8 c 128,-1,5
 538.4 233.6 538.4 233.6 538.4 260.8 c 256,6,7
 538.4 288 538.4 288 519.2 307.2 c 128,-1,8
 500 326.4 500 326.4 472.8 326.4 c 256,9,10
 445.6 326.4 445.6 326.4 426.8 307.2 c 128,-1,11
 408 288 408 288 408 260.8 c 1,12,-1
 408 260.8 l 1,0,1
356 260.8 m 1,13,14
 356 284 356 284 362.8 301.6 c 128,-1,15
 369.6 319.2 369.6 319.2 381.6 326.4 c 1,16,-1
 380.8 332 l 1,17,-1
 331.2 326.4 l 1,18,-1
 208.8 326.4 l 1,19,-1
 167.2 330.4 l 1,20,-1
 163.2 326.4 l 1,21,22
 228 254.4 228 254.4 262.8 159.6 c 128,-1,23
 297.6 64.7998 297.6 64.7998 297.6 -40.7998 c 0,24,25
 297.6 -198.4 297.6 -198.4 220 -310 c 128,-1,26
 142.4 -421.6 142.4 -421.6 32 -421.6 c 0,27,28
 -49.5996 -421.6 -49.5996 -421.6 -107.2 -362 c 128,-1,29
 -164.8 -302.4 -164.8 -302.4 -164.8 -217.6 c 0,30,31
 -164.8 -169.6 -164.8 -169.6 -131.2 -135.6 c 128,-1,32
 -97.5996 -101.6 -97.5996 -101.6 -49.5996 -101.6 c 256,33,34
 -1.59961 -101.6 -1.59961 -101.6 32.4004 -135.6 c 128,-1,35
 66.4004 -169.6 66.4004 -169.6 66.4004 -217.6 c 0,36,37
 66.4004 -262.4 66.4004 -262.4 31.2002 -294.4 c 128,-1,38
 -4 -326.4 -4 -326.4 -54.4004 -326.4 c 1,39,-1
 -57.5996 -330.4 l 1,40,41
 -48 -344 -48 -344 -24 -352 c 128,-1,42
 0 -360 0 -360 32 -360 c 0,43,44
 116.8 -360 116.8 -360 176.4 -266.4 c 128,-1,45
 236 -172.8 236 -172.8 236 -40.7998 c 0,46,47
 236 84.7998 236 84.7998 174.4 192.4 c 128,-1,48
 112.8 300 112.8 300 6.40039 361.6 c 1,49,-1
 25.5996 384.8 l 1,50,-1
 447.2 384.8 l 2,51,52
 507.2 384.8 507.2 384.8 549.2 348.4 c 128,-1,53
 591.2 312 591.2 312 591.2 260.8 c 0,54,55
 591.2 212 591.2 212 556.4 177.2 c 128,-1,56
 521.6 142.4 521.6 142.4 472.8 142.4 c 0,57,58
 424.8 142.4 424.8 142.4 390.4 177.2 c 128,-1,59
 356 212 356 212 356 260.8 c 1,60,-1
 356 260.8 l 1,13,14
-110.4 -217.6 m 1,61,62
 -110.4 -242.4 -110.4 -242.4 -92.4004 -260.4 c 128,-1,63
 -74.4004 -278.4 -74.4004 -278.4 -49.5996 -278.4 c 0,64,65
 -24 -278.4 -24 -278.4 -6 -260.4 c 128,-1,66
 12 -242.4 12 -242.4 12 -217.6 c 0,67,68
 12 -192 12 -192 -6 -174 c 128,-1,69
 -24 -156 -24 -156 -49.5996 -156 c 0,70,71
 -74.4004 -156 -74.4004 -156 -92.4004 -174 c 128,-1,72
 -110.4 -192 -110.4 -192 -110.4 -217.6 c 1,73,-1
 -110.4 -217.6 l 1,61,62
EndSplineSet
Validated: 5
EndChar

StartChar: U0C46
Encoding: 3142 3142 66
Width: 0
VWidth: 819
GlyphClass: 2
Flags: W
LayerCount: 2
Fore
SplineSet
-334.4 659.2 m 1,0,-1
 48.7998 659.2 l 2,1,2
 94.4004 659.2 94.4004 659.2 126.8 627.2 c 128,-1,3
 159.2 595.2 159.2 595.2 159.2 549.6 c 0,4,5
 159.2 503.2 159.2 503.2 125.6 470 c 128,-1,6
 92 436.8 92 436.8 44.7998 436.8 c 2,7,-1
 -78.4004 436.8 l 1,8,-1
 -78.4004 503.2 l 1,9,-1
 54.4004 503.2 l 2,10,11
 70.4004 503.2 70.4004 503.2 82 516.8 c 128,-1,12
 93.5996 530.4 93.5996 530.4 93.5996 549.6 c 0,13,14
 93.5996 568 93.5996 568 81.5996 581.2 c 128,-1,15
 69.5996 594.4 69.5996 594.4 52.7998 594.4 c 2,16,-1
 -334.4 594.4 l 1,17,-1
 -334.4 659.2 l 1,18,-1
 -334.4 659.2 l 1,0,-1
EndSplineSet
Validated: 5
EndChar

StartChar: U0C47
Encoding: 3143 3143 67
Width: 0
VWidth: 819
GlyphClass: 2
Flags: W
LayerCount: 2
Fore
SplineSet
-334.4 656.8 m 1,0,-1
 -60.7998 656.8 l 1,1,-1
 -25.5996 652.8 l 1,2,-1
 -23.2002 656.8 l 1,3,4
 -35.2002 668.8 -35.2002 668.8 -42 684.4 c 128,-1,5
 -48.7998 700 -48.7998 700 -48.7998 716.8 c 0,6,7
 -48.7998 757.6 -48.7998 757.6 -18.4004 786 c 128,-1,8
 12 814.4 12 814.4 54.4004 814.4 c 0,9,10
 100 814.4 100 814.4 132.4 779.6 c 128,-1,11
 164.8 744.8 164.8 744.8 164.8 696 c 1,12,-1
 112 696 l 1,13,14
 112 723.2 112 723.2 97.2002 742.4 c 128,-1,15
 82.4004 761.6 82.4004 761.6 61.5996 761.6 c 0,16,17
 40 761.6 40 761.6 24.7998 746.4 c 128,-1,18
 9.59961 731.2 9.59961 731.2 9.59961 709.6 c 0,19,20
 9.59961 695.2 9.59961 695.2 25.2002 680.8 c 128,-1,21
 40.7998 666.4 40.7998 666.4 66.4004 656.8 c 0,22,23
 108 641.6 108 641.6 133.6 611.2 c 128,-1,24
 159.2 580.8 159.2 580.8 159.2 546.4 c 0,25,26
 159.2 500 159.2 500 125.6 467.6 c 128,-1,27
 92 435.2 92 435.2 44.7998 435.2 c 2,28,-1
 -153.6 435.2 l 1,29,-1
 -153.6 500.8 l 1,30,-1
 54.4004 500.8 l 2,31,32
 70.4004 500.8 70.4004 500.8 82 514 c 128,-1,33
 93.5996 527.2 93.5996 527.2 93.5996 546.4 c 0,34,35
 93.5996 564.8 93.5996 564.8 81.5996 578 c 128,-1,36
 69.5996 591.2 69.5996 591.2 52.7998 591.2 c 2,37,-1
 -334.4 591.2 l 1,38,-1
 -334.4 656.8 l 1,39,-1
 -334.4 656.8 l 1,0,-1
EndSplineSet
Validated: 5
EndChar

StartChar: U0C48
Encoding: 3144 3144 68
Width: 734
VWidth: 819
GlyphClass: 2
Flags: W
LayerCount: 2
Fore
SplineSet
172.8 659.2 m 1,0,-1
 556 659.2 l 2,1,2
 601.6 659.2 601.6 659.2 634 627.2 c 128,-1,3
 666.4 595.2 666.4 595.2 666.4 549.6 c 0,4,5
 666.4 503.2 666.4 503.2 632.8 470 c 128,-1,6
 599.2 436.8 599.2 436.8 552 436.8 c 2,7,-1
 428 436.8 l 1,8,-1
 428 503.2 l 1,9,-1
 561.6 503.2 l 2,10,11
 577.6 503.2 577.6 503.2 589.2 516.8 c 128,-1,12
 600.8 530.4 600.8 530.4 600.8 549.6 c 0,13,14
 600.8 568 600.8 568 588.8 581.2 c 128,-1,15
 576.8 594.4 576.8 594.4 560 594.4 c 2,16,-1
 172.8 594.4 l 1,17,-1
 172.8 659.2 l 1,18,-1
 172.8 659.2 l 1,0,-1
120 -163.2 m 1,19,20
 120 -190.4 120 -190.4 138.8 -209.6 c 128,-1,21
 157.6 -228.8 157.6 -228.8 184.8 -228.8 c 256,22,23
 212 -228.8 212 -228.8 231.2 -209.6 c 128,-1,24
 250.4 -190.4 250.4 -190.4 250.4 -163.2 c 256,25,26
 250.4 -136 250.4 -136 231.2 -116.8 c 128,-1,27
 212 -97.5996 212 -97.5996 184.8 -97.5996 c 256,28,29
 157.6 -97.5996 157.6 -97.5996 138.8 -116.8 c 128,-1,30
 120 -136 120 -136 120 -163.2 c 1,31,-1
 120 -163.2 l 1,19,20
68 -163.2 m 1,32,33
 68 -115.2 68 -115.2 102.4 -80.7998 c 128,-1,34
 136.8 -46.4004 136.8 -46.4004 184.8 -46.4004 c 0,35,36
 233.6 -46.4004 233.6 -46.4004 268.4 -80.7998 c 128,-1,37
 303.2 -115.2 303.2 -115.2 303.2 -163.2 c 0,38,39
 303.2 -178.4 303.2 -178.4 295.6 -195.2 c 128,-1,40
 288 -212 288 -212 274.4 -228.8 c 1,41,-1
 276 -233.6 l 1,42,-1
 332 -228.8 l 1,43,-1
 632 -228.8 l 1,44,-1
 632 -295.2 l 1,45,-1
 196.8 -295.2 l 2,46,47
 143.2 -295.2 143.2 -295.2 105.6 -256.4 c 128,-1,48
 68 -217.6 68 -217.6 68 -163.2 c 1,49,-1
 68 -163.2 l 1,32,33
EndSplineSet
Validated: 5
Substitution2: "'abvs' Above Base Substitutions in Telugu lookup 2" .null
EndChar

StartChar: U0C4A
Encoding: 3146 3146 69
Width: 580
VWidth: 819
GlyphClass: 2
Flags: W
LayerCount: 2
Fore
SplineSet
345.6 561.6 m 1,0,1
 345.6 582.4 345.6 582.4 350.8 599.6 c 128,-1,2
 356 616.8 356 616.8 365.6 628 c 1,3,-1
 363.2 632 l 1,4,-1
 328.8 628 l 1,5,-1
 278.4 628 l 2,6,7
 236 628 236 628 205.6 608.4 c 128,-1,8
 175.2 588.8 175.2 588.8 175.2 561.6 c 1,9,-1
 114.4 561.6 l 1,10,11
 114.4 588.8 114.4 588.8 77.2002 608.4 c 128,-1,12
 40 628 40 628 -12 628 c 0,13,14
 -64.7998 628 -64.7998 628 -102 608 c 128,-1,15
 -139.2 588 -139.2 588 -139.2 559.2 c 256,16,17
 -139.2 530.4 -139.2 530.4 -113.6 510 c 128,-1,18
 -88 489.6 -88 489.6 -52 489.6 c 2,19,-1
 9.59961 489.6 l 1,20,-1
 9.59961 435.2 l 1,21,-1
 -52 435.2 l 2,22,23
 -115.2 435.2 -115.2 435.2 -159.6 471.2 c 128,-1,24
 -204 507.2 -204 507.2 -204 557.6 c 0,25,26
 -204 613.6 -204 613.6 -147.6 653.6 c 128,-1,27
 -91.2002 693.6 -91.2002 693.6 -12 693.6 c 0,28,29
 42.4004 693.6 42.4004 693.6 82.7998 681.2 c 128,-1,30
 123.2 668.8 123.2 668.8 142.4 645.6 c 1,31,-1
 148 645.6 l 1,32,33
 167.2 668.8 167.2 668.8 201.2 681.2 c 128,-1,34
 235.2 693.6 235.2 693.6 277.6 693.6 c 2,35,-1
 462.4 693.6 l 2,36,37
 511.2 693.6 511.2 693.6 546 654.8 c 128,-1,38
 580.8 616 580.8 616 580.8 561.6 c 0,39,40
 580.8 513.6 580.8 513.6 546 479.2 c 128,-1,41
 511.2 444.8 511.2 444.8 462.4 444.8 c 0,42,43
 414.4 444.8 414.4 444.8 380 479.2 c 128,-1,44
 345.6 513.6 345.6 513.6 345.6 561.6 c 1,45,-1
 345.6 561.6 l 1,0,1
396.8 561.6 m 1,46,47
 396.8 534.4 396.8 534.4 416 515.2 c 128,-1,48
 435.2 496 435.2 496 462.4 496 c 256,49,50
 489.6 496 489.6 496 509.2 515.2 c 128,-1,51
 528.8 534.4 528.8 534.4 528.8 561.6 c 256,52,53
 528.8 588.8 528.8 588.8 509.2 608.4 c 128,-1,54
 489.6 628 489.6 628 462.4 628 c 256,55,56
 435.2 628 435.2 628 416 608.4 c 128,-1,57
 396.8 588.8 396.8 588.8 396.8 561.6 c 1,58,-1
 396.8 561.6 l 1,46,47
EndSplineSet
Validated: 5
EndChar

StartChar: U0C4B
Encoding: 3147 3147 70
Width: 577
VWidth: 819
GlyphClass: 2
Flags: W
LayerCount: 2
Fore
SplineSet
342.4 561.6 m 1,0,1
 342.4 581.6 342.4 581.6 347.6 598.8 c 128,-1,2
 352.8 616 352.8 616 363.2 628 c 1,3,-1
 360 632 l 1,4,-1
 320.8 628 l 1,5,-1
 276 628 l 2,6,7
 233.6 628 233.6 628 203.2 608.4 c 128,-1,8
 172.8 588.8 172.8 588.8 172.8 561.6 c 1,9,-1
 111.2 561.6 l 1,10,11
 111.2 588.8 111.2 588.8 76.4004 608.4 c 128,-1,12
 41.5996 628 41.5996 628 -7.2002 628 c 0,13,14
 -60 628 -60 628 -97.2002 606.8 c 128,-1,15
 -134.4 585.6 -134.4 585.6 -134.4 555.2 c 0,16,17
 -134.4 528 -134.4 528 -110.8 508.8 c 128,-1,18
 -87.2002 489.6 -87.2002 489.6 -54.4004 489.6 c 2,19,-1
 13.5996 489.6 l 1,20,-1
 13.5996 435.2 l 1,21,-1
 -54.4004 435.2 l 2,22,23
 -114.4 435.2 -114.4 435.2 -157.2 470.4 c 128,-1,24
 -200 505.6 -200 505.6 -200 555.2 c 0,25,26
 -200 612.8 -200 612.8 -143.6 653.2 c 128,-1,27
 -87.2002 693.6 -87.2002 693.6 -8 693.6 c 0,28,29
 44 693.6 44 693.6 83.5996 681.2 c 128,-1,30
 123.2 668.8 123.2 668.8 142.4 645.6 c 1,31,32
 161.6 668.8 161.6 668.8 184 681.2 c 128,-1,33
 206.4 693.6 206.4 693.6 227.2 693.6 c 2,34,-1
 345.6 693.6 l 1,35,-1
 379.2 689.6 l 1,36,-1
 382.4 693.6 l 1,37,38
 369.6 704 369.6 704 362.8 721.2 c 128,-1,39
 356 738.4 356 738.4 356 759.2 c 0,40,41
 356 796.8 356 796.8 388.4 823.2 c 128,-1,42
 420.8 849.6 420.8 849.6 466.4 849.6 c 256,43,44
 512 849.6 512 849.6 542.8 814.4 c 128,-1,45
 573.6 779.2 573.6 779.2 569.6 732 c 1,46,-1
 516.8 732 l 1,47,48
 519.2 758.4 519.2 758.4 504 778.4 c 128,-1,49
 488.8 798.4 488.8 798.4 466.4 798.4 c 0,50,51
 444.8 798.4 444.8 798.4 429.6 784.8 c 128,-1,52
 414.4 771.2 414.4 771.2 414.4 752 c 0,53,54
 414.4 729.6 414.4 729.6 428 712.8 c 128,-1,55
 441.6 696 441.6 696 462.4 692 c 0,56,57
 512 683.2 512 683.2 544.8 646.4 c 128,-1,58
 577.6 609.6 577.6 609.6 577.6 561.6 c 256,59,60
 577.6 513.6 577.6 513.6 542.8 479.2 c 128,-1,61
 508 444.8 508 444.8 459.2 444.8 c 0,62,63
 411.2 444.8 411.2 444.8 376.8 479.2 c 128,-1,64
 342.4 513.6 342.4 513.6 342.4 561.6 c 1,65,-1
 342.4 561.6 l 1,0,1
394.4 561.6 m 1,66,67
 394.4 534.4 394.4 534.4 413.2 515.2 c 128,-1,68
 432 496 432 496 459.2 496 c 0,69,70
 487.2 496 487.2 496 506.8 515.2 c 128,-1,71
 526.4 534.4 526.4 534.4 526.4 561.6 c 256,72,73
 526.4 588.8 526.4 588.8 506.8 608.4 c 128,-1,74
 487.2 628 487.2 628 459.2 628 c 0,75,76
 432 628 432 628 413.2 608.4 c 128,-1,77
 394.4 588.8 394.4 588.8 394.4 561.6 c 1,78,-1
 394.4 561.6 l 1,66,67
EndSplineSet
Validated: 37
EndChar

StartChar: U0C4C
Encoding: 3148 3148 71
Width: 614
VWidth: 819
GlyphClass: 2
Flags: W
LayerCount: 2
Fore
SplineSet
-192 656.8 m 1,0,-1
 470.4 656.8 l 2,1,2
 530.4 656.8 530.4 656.8 572.4 618.8 c 128,-1,3
 614.4 580.8 614.4 580.8 614.4 526.4 c 0,4,5
 614.4 478.4 614.4 478.4 579.6 444 c 128,-1,6
 544.8 409.6 544.8 409.6 496 409.6 c 0,7,8
 444.8 409.6 444.8 409.6 408.8 444 c 128,-1,9
 372.8 478.4 372.8 478.4 372.8 526.4 c 0,10,11
 372.8 548.8 372.8 548.8 379.2 566 c 128,-1,12
 385.6 583.2 385.6 583.2 396.8 591.2 c 1,13,-1
 394.4 596 l 1,14,-1
 349.6 591.2 l 1,15,-1
 264.8 591.2 l 1,16,-1
 229.6 596 l 1,17,-1
 227.2 591.2 l 1,18,19
 237.6 582.4 237.6 582.4 243.2 570.8 c 128,-1,20
 248.8 559.2 248.8 559.2 248.8 546.4 c 0,21,22
 248.8 500 248.8 500 218.4 467.6 c 128,-1,23
 188 435.2 188 435.2 145.6 435.2 c 2,24,-1
 -42.4004 435.2 l 1,25,-1
 -42.4004 500.8 l 1,26,-1
 144 500.8 l 2,27,28
 160 500.8 160 500.8 171.6 514 c 128,-1,29
 183.2 527.2 183.2 527.2 183.2 546.4 c 0,30,31
 183.2 564.8 183.2 564.8 171.2 578 c 128,-1,32
 159.2 591.2 159.2 591.2 142.4 591.2 c 2,33,-1
 -192 591.2 l 1,34,-1
 -192 656.8 l 1,35,-1
 -192 656.8 l 1,0,-1
431.2 526.4 m 1,36,37
 431.2 499.2 431.2 499.2 450 480 c 128,-1,38
 468.8 460.8 468.8 460.8 496 460.8 c 256,39,40
 523.2 460.8 523.2 460.8 542.4 480 c 128,-1,41
 561.6 499.2 561.6 499.2 561.6 526.4 c 256,42,43
 561.6 553.6 561.6 553.6 542.4 572.4 c 128,-1,44
 523.2 591.2 523.2 591.2 496 591.2 c 256,45,46
 468.8 591.2 468.8 591.2 450 572.4 c 128,-1,47
 431.2 553.6 431.2 553.6 431.2 526.4 c 1,48,-1
 431.2 526.4 l 1,36,37
EndSplineSet
Validated: 5
EndChar

StartChar: U0C4D
Encoding: 3149 3149 72
Width: 0
VWidth: 819
GlyphClass: 2
Flags: W
LayerCount: 2
Fore
SplineSet
235.2 444.8 m 1,0,-1
 130.4 444.8 l 1,1,2
 85.5996 452.8 85.5996 452.8 56.4004 482.4 c 128,-1,3
 27.2002 512 27.2002 512 27.2002 549.6 c 0,4,5
 27.2002 572.8 27.2002 572.8 38 592.8 c 128,-1,6
 48.7998 612.8 48.7998 612.8 68 624 c 1,7,-1
 68 628 l 1,8,9
 48.7998 641.6 48.7998 641.6 38 662.4 c 128,-1,10
 27.2002 683.2 27.2002 683.2 27.2002 705.6 c 0,11,12
 27.2002 754.4 27.2002 754.4 62 789.2 c 128,-1,13
 96.7998 824 96.7998 824 145.6 824 c 2,14,-1
 440.8 824 l 1,15,-1
 440.8 759.2 l 1,16,-1
 147.2 759.2 l 2,17,18
 124.8 759.2 124.8 759.2 108.8 743.6 c 128,-1,19
 92.7998 728 92.7998 728 92.7998 705.6 c 0,20,21
 92.7998 684 92.7998 684 104.4 669.2 c 128,-1,22
 116 654.4 116 654.4 132 654.4 c 2,23,-1
 273.6 654.4 l 1,24,-1
 273.6 588.8 l 1,25,-1
 133.6 588.8 l 2,26,27
 116.8 588.8 116.8 588.8 104.8 577.2 c 128,-1,28
 92.7998 565.6 92.7998 565.6 92.7998 549.6 c 0,29,30
 92.7998 532.8 92.7998 532.8 104.4 521.2 c 128,-1,31
 116 509.6 116 509.6 132 509.6 c 2,32,-1
 235.2 509.6 l 1,33,-1
 235.2 444.8 l 1,34,-1
 235.2 444.8 l 1,0,-1
EndSplineSet
Validated: 5
EndChar

StartChar: U0C55
Encoding: 3157 3157 73
Width: 387
VWidth: 819
GlyphClass: 2
Flags: W
LayerCount: 2
Fore
SplineSet
114.4 473.6 m 1,0,1
 92 492 92 492 80 518.8 c 128,-1,2
 68 545.6 68 545.6 68 575.2 c 0,3,4
 68 618.4 68 618.4 106 649.2 c 128,-1,5
 144 680 144 680 198.4 680 c 0,6,7
 237.6 680 237.6 680 270.8 654.4 c 128,-1,8
 304 628.8 304 628.8 319.2 586.4 c 1,9,-1
 262.4 561.6 l 1,10,11
 248 586.4 248 586.4 230.8 600.4 c 128,-1,12
 213.6 614.4 213.6 614.4 198.4 614.4 c 0,13,14
 171.2 614.4 171.2 614.4 152.4 598.8 c 128,-1,15
 133.6 583.2 133.6 583.2 133.6 561.6 c 0,16,17
 133.6 542.4 133.6 542.4 146 522 c 128,-1,18
 158.4 501.6 158.4 501.6 180.8 482.4 c 1,19,-1
 114.4 473.6 l 1,20,-1
 114.4 473.6 l 1,0,1
EndSplineSet
Validated: 5
EndChar

StartChar: U0C56
Encoding: 3158 3158 74
Width: 0
VWidth: 819
GlyphClass: 2
Flags: W
LayerCount: 2
Fore
SplineSet
-493.6 -163.2 m 5,0,1
 -493.6 -190.4 -493.6 -190.4 -474.8 -209.6 c 132,-1,2
 -456 -228.8 -456 -228.8 -428.8 -228.8 c 260,3,4
 -401.6 -228.8 -401.6 -228.8 -382.4 -209.6 c 132,-1,5
 -363.2 -190.4 -363.2 -190.4 -363.2 -163.2 c 260,6,7
 -363.2 -136 -363.2 -136 -382.4 -116.8 c 132,-1,8
 -401.6 -97.5996 -401.6 -97.5996 -428.8 -97.5996 c 260,9,10
 -456 -97.5996 -456 -97.5996 -474.8 -116.8 c 132,-1,11
 -493.6 -136 -493.6 -136 -493.6 -163.2 c 5,12,-1
 -493.6 -163.2 l 5,0,1
-545.6 -163.2 m 5,13,14
 -545.6 -115.2 -545.6 -115.2 -511.2 -80.7998 c 132,-1,15
 -476.8 -46.4004 -476.8 -46.4004 -428.8 -46.4004 c 4,16,17
 -380 -46.4004 -380 -46.4004 -345.2 -80.7998 c 132,-1,18
 -310.4 -115.2 -310.4 -115.2 -310.4 -163.2 c 4,19,20
 -310.4 -178.4 -310.4 -178.4 -318 -195.2 c 132,-1,21
 -325.6 -212 -325.6 -212 -339.2 -228.8 c 5,22,-1
 -337.6 -233.6 l 5,23,-1
 -281.6 -228.8 l 5,24,-1
 18.4004 -228.8 l 5,25,-1
 18.4004 -295.2 l 5,26,-1
 -416.8 -295.2 l 6,27,28
 -470.4 -295.2 -470.4 -295.2 -508 -256.4 c 132,-1,29
 -545.6 -217.6 -545.6 -217.6 -545.6 -163.2 c 5,30,-1
 -545.6 -163.2 l 5,13,14
EndSplineSet
Validated: 5
EndChar

StartChar: U0C60
Encoding: 3168 3168 75
Width: 1747
VWidth: 819
GlyphClass: 2
Flags: W
LayerCount: 2
Fore
SplineSet
441.6 65.5996 m 1,0,1
 483.2 65.5996 483.2 65.5996 512.4 118 c 128,-1,2
 541.6 170.4 541.6 170.4 541.6 244.8 c 0,3,4
 541.6 320 541.6 320 502.4 372.8 c 128,-1,5
 463.2 425.6 463.2 425.6 408 425.6 c 1,6,-1
 428 489.6 l 1,7,8
 501.6 489.6 501.6 489.6 554 418 c 128,-1,9
 606.4 346.4 606.4 346.4 606.4 244.8 c 0,10,11
 616 168 616 168 665.2 116.8 c 128,-1,12
 714.4 65.5996 714.4 65.5996 779.2 65.5996 c 0,13,14
 836 65.5996 836 65.5996 876.4 115.6 c 128,-1,15
 916.8 165.6 916.8 165.6 916.8 236.8 c 0,16,17
 916.8 314.4 916.8 314.4 868 368.8 c 128,-1,18
 819.2 423.2 819.2 423.2 749.6 423.2 c 1,19,-1
 764 488 l 1,20,21
 854.4 488 854.4 488 918 414 c 128,-1,22
 981.6 340 981.6 340 981.6 235.2 c 0,23,24
 990.4 162.4 990.4 162.4 1035.6 114 c 128,-1,25
 1080.8 65.5996 1080.8 65.5996 1140 65.5996 c 0,26,27
 1200 65.5996 1200 65.5996 1242 115.2 c 128,-1,28
 1284 164.8 1284 164.8 1284 235.2 c 0,29,30
 1284 324 1284 324 1238 387.2 c 128,-1,31
 1192 450.4 1192 450.4 1127.2 450.4 c 1,32,-1
 1127.2 509.6 l 1,33,-1
 1581.6 509.6 l 2,34,35
 1641.6 509.6 1641.6 509.6 1683.6 471.6 c 128,-1,36
 1725.6 433.6 1725.6 433.6 1725.6 379.2 c 0,37,38
 1725.6 330.4 1725.6 330.4 1690.8 295.6 c 128,-1,39
 1656 260.8 1656 260.8 1607.2 260.8 c 256,40,41
 1558.4 260.8 1558.4 260.8 1523.6 295.6 c 128,-1,42
 1488.8 330.4 1488.8 330.4 1488.8 379.2 c 0,43,44
 1488.8 395.2 1488.8 395.2 1496 412 c 128,-1,45
 1503.2 428.8 1503.2 428.8 1516 444.8 c 1,46,-1
 1513.6 448.8 l 1,47,-1
 1468.8 444.8 l 1,48,-1
 1298.4 444.8 l 1,49,-1
 1264.8 448.8 l 1,50,-1
 1262.4 444.8 l 1,51,52
 1300 418.4 1300 418.4 1321.2 362.8 c 128,-1,53
 1342.4 307.2 1342.4 307.2 1342.4 235.2 c 0,54,55
 1342.4 137.6 1342.4 137.6 1283.2 68.7998 c 128,-1,56
 1224 0 1224 0 1140 0 c 0,57,58
 1077.6 0 1077.6 0 1027.6 36.4004 c 128,-1,59
 977.6 72.7998 977.6 72.7998 960 132 c 1,60,61
 932.8 72 932.8 72 882 36 c 128,-1,62
 831.2 0 831.2 0 772.8 0 c 0,63,64
 709.6 0 709.6 0 658.4 34.7998 c 128,-1,65
 607.2 69.5996 607.2 69.5996 586.4 126.4 c 1,66,67
 564.8 69.5996 564.8 69.5996 524.8 34.7998 c 128,-1,68
 484.8 0 484.8 0 441.6 0 c 0,69,70
 400 0 400 0 366 23.2002 c 128,-1,71
 332 46.4004 332 46.4004 318.4 84 c 1,72,-1
 312.8 83.2002 l 1,73,74
 290.4 44.7998 290.4 44.7998 257.2 22.4004 c 128,-1,75
 224 0 224 0 188 0 c 0,76,77
 128 0 128 0 85.5996 42 c 128,-1,78
 43.2002 84 43.2002 84 43.2002 144 c 0,79,80
 43.2002 186.4 43.2002 186.4 74.7998 224 c 128,-1,81
 106.4 261.6 106.4 261.6 157.6 280 c 0,82,83
 200.8 296 200.8 296 226.8 319.2 c 128,-1,84
 252.8 342.4 252.8 342.4 252.8 365.6 c 0,85,86
 252.8 390.4 252.8 390.4 231.6 408 c 128,-1,87
 210.4 425.6 210.4 425.6 180.8 425.6 c 256,88,89
 151.2 425.6 151.2 425.6 130 408 c 128,-1,90
 108.8 390.4 108.8 390.4 108.8 365.6 c 0,91,92
 108.8 353.6 108.8 353.6 114.4 340.4 c 128,-1,93
 120 327.2 120 327.2 130.4 314.4 c 1,94,-1
 74.4004 293.6 l 1,95,96
 59.2002 308.8 59.2002 308.8 51.2002 327.6 c 128,-1,97
 43.2002 346.4 43.2002 346.4 43.2002 365.6 c 0,98,99
 43.2002 414.4 43.2002 414.4 84.4004 449.2 c 128,-1,100
 125.6 484 125.6 484 183.2 484 c 0,101,102
 239.2 484 239.2 484 278.8 449.2 c 128,-1,103
 318.4 414.4 318.4 414.4 318.4 365.6 c 0,104,105
 318.4 326.4 318.4 326.4 287.2 290.8 c 128,-1,106
 256 255.2 256 255.2 205.6 236.8 c 0,107,108
 162.4 220.8 162.4 220.8 135.6 195.2 c 128,-1,109
 108.8 169.6 108.8 169.6 108.8 144 c 0,110,111
 108.8 111.2 108.8 111.2 132 88.4004 c 128,-1,112
 155.2 65.5996 155.2 65.5996 188 65.5996 c 0,113,114
 232.8 65.5996 232.8 65.5996 264 103.6 c 128,-1,115
 295.2 141.6 295.2 141.6 295.2 196 c 1,116,-1
 342.4 196 l 1,117,118
 342.4 141.6 342.4 141.6 371.6 103.6 c 128,-1,119
 400.8 65.5996 400.8 65.5996 441.6 65.5996 c 1,120,-1
 441.6 65.5996 l 1,0,1
1542.4 379.2 m 1,121,122
 1542.4 352 1542.4 352 1561.2 333.2 c 128,-1,123
 1580 314.4 1580 314.4 1607.2 314.4 c 256,124,125
 1634.4 314.4 1634.4 314.4 1653.6 333.2 c 128,-1,126
 1672.8 352 1672.8 352 1672.8 379.2 c 256,127,128
 1672.8 406.4 1672.8 406.4 1653.6 425.6 c 128,-1,129
 1634.4 444.8 1634.4 444.8 1607.2 444.8 c 256,130,131
 1580 444.8 1580 444.8 1561.2 425.6 c 128,-1,132
 1542.4 406.4 1542.4 406.4 1542.4 379.2 c 1,133,-1
 1542.4 379.2 l 1,121,122
EndSplineSet
Validated: 5
EndChar

StartChar: U0C61
Encoding: 3169 3169 76
Width: 1160
VWidth: 819
GlyphClass: 2
Flags: W
LayerCount: 2
Fore
SplineSet
954.4 342.4 m 5,0,1
 954.4 315.2 954.4 315.2 973.6 296.4 c 132,-1,2
 992.8 277.6 992.8 277.6 1020 277.6 c 260,3,4
 1047.2 277.6 1047.2 277.6 1066.4 296.4 c 132,-1,5
 1085.6 315.2 1085.6 315.2 1085.6 342.4 c 260,6,7
 1085.6 369.6 1085.6 369.6 1066.4 388.8 c 132,-1,8
 1047.2 408 1047.2 408 1020 408 c 260,9,10
 992.8 408 992.8 408 973.6 388.8 c 132,-1,11
 954.4 369.6 954.4 369.6 954.4 342.4 c 5,12,-1
 954.4 342.4 l 5,0,1
903.2 342.4 m 5,13,14
 903.2 365.6 903.2 365.6 910 383.2 c 132,-1,15
 916.8 400.8 916.8 400.8 928.8 408 c 5,16,-1
 927.2 413.6 l 5,17,-1
 880 408 l 5,18,-1
 740.8 408 l 5,19,-1
 695.2 412 l 5,20,-1
 692 408 l 5,21,22
 719.2 356 719.2 356 733.6 297.2 c 132,-1,23
 748 238.4 748 238.4 748 176.8 c 4,24,25
 748 38.4004 748 38.4004 672 -59.5996 c 132,-1,26
 596 -157.6 596 -157.6 488 -157.6 c 4,27,28
 408.8 -157.6 408.8 -157.6 353.2 -105.2 c 132,-1,29
 297.6 -52.7998 297.6 -52.7998 297.6 21.5996 c 4,30,31
 297.6 64.7998 297.6 64.7998 329.2 109.6 c 132,-1,32
 360.8 154.4 360.8 154.4 416 190.4 c 4,33,34
 458.4 218.4 458.4 218.4 482.8 256 c 132,-1,35
 507.2 293.6 507.2 293.6 507.2 332 c 4,36,37
 507.2 364.8 507.2 364.8 484 387.6 c 132,-1,38
 460.8 410.4 460.8 410.4 428 410.4 c 4,39,40
 383.2 410.4 383.2 410.4 352 372.4 c 132,-1,41
 320.8 334.4 320.8 334.4 320.8 280 c 5,42,-1
 273.6 280 l 5,43,44
 273.6 334.4 273.6 334.4 242.4 372.4 c 132,-1,45
 211.2 410.4 211.2 410.4 167.2 410.4 c 4,46,47
 134.4 410.4 134.4 410.4 111.2 387.6 c 132,-1,48
 88 364.8 88 364.8 88 332 c 4,49,50
 88 311.2 88 311.2 93.2002 291.6 c 132,-1,51
 98.4004 272 98.4004 272 108.8 254.4 c 5,52,-1
 40.7998 254.4 l 5,53,54
 32 269.6 32 269.6 27.5996 289.2 c 132,-1,55
 23.2002 308.8 23.2002 308.8 23.2002 332 c 4,56,57
 23.2002 392 23.2002 392 65.2002 434 c 132,-1,58
 107.2 476 107.2 476 167.2 476 c 4,59,60
 207.2 476 207.2 476 241.6 456.8 c 132,-1,61
 276 437.6 276 437.6 295.2 404 c 5,62,-1
 299.2 405.6 l 5,63,64
 318.4 438.4 318.4 438.4 352.8 457.2 c 132,-1,65
 387.2 476 387.2 476 428 476 c 4,66,67
 488 476 488 476 530.4 434 c 132,-1,68
 572.8 392 572.8 392 572.8 332 c 4,69,70
 572.8 276 572.8 276 541.2 224.4 c 132,-1,71
 509.6 172.8 509.6 172.8 454.4 138.4 c 4,72,73
 412 112 412 112 387.6 79.2002 c 132,-1,74
 363.2 46.4004 363.2 46.4004 363.2 15.2002 c 4,75,76
 363.2 -29.5996 363.2 -29.5996 400.4 -61.2002 c 132,-1,77
 437.6 -92.7998 437.6 -92.7998 489.6 -92.7998 c 4,78,79
 570.4 -92.7998 570.4 -92.7998 627.2 -13.2002 c 132,-1,80
 684 66.4004 684 66.4004 684 178.4 c 4,81,82
 684 256 684 256 663.2 321.6 c 132,-1,83
 642.4 387.2 642.4 387.2 604 433.6 c 5,84,-1
 616 466.4 l 5,85,-1
 994.4 466.4 l 6,86,87
 1054.4 466.4 1054.4 466.4 1096.4 430 c 132,-1,88
 1138.4 393.6 1138.4 393.6 1138.4 342.4 c 4,89,90
 1138.4 293.6 1138.4 293.6 1103.6 258.8 c 132,-1,91
 1068.8 224 1068.8 224 1020 224 c 4,92,93
 972 224 972 224 937.6 258.8 c 132,-1,94
 903.2 293.6 903.2 293.6 903.2 342.4 c 5,95,-1
 903.2 342.4 l 5,13,14
EndSplineSet
Validated: 5
EndChar

StartChar: U0C66
Encoding: 3174 3174 77
Width: 738
VWidth: 819
GlyphClass: 2
Flags: W
LayerCount: 2
Fore
SplineSet
368.8 -19.2002 m 1,0,1
 243.2 -19.2002 243.2 -19.2002 154.8 82.4004 c 128,-1,2
 66.4004 184 66.4004 184 66.4004 328 c 0,3,4
 66.4004 468.8 66.4004 468.8 154.8 568.4 c 128,-1,5
 243.2 668 243.2 668 368.8 668 c 256,6,7
 494.4 668 494.4 668 583.2 568.4 c 128,-1,8
 672 468.8 672 468.8 672 328 c 0,9,10
 672 184 672 184 583.2 82.4004 c 128,-1,11
 494.4 -19.2002 494.4 -19.2002 368.8 -19.2002 c 1,12,-1
 368.8 -19.2002 l 1,0,1
368.8 44.7998 m 1,13,14
 468.8 44.7998 468.8 44.7998 539.2 127.6 c 128,-1,15
 609.6 210.4 609.6 210.4 609.6 328 c 0,16,17
 609.6 442.4 609.6 442.4 539.2 523.2 c 128,-1,18
 468.8 604 468.8 604 368.8 604 c 0,19,20
 272 604 272 604 203.2 523.2 c 128,-1,21
 134.4 442.4 134.4 442.4 134.4 328 c 0,22,23
 134.4 210.4 134.4 210.4 203.2 127.6 c 128,-1,24
 272 44.7998 272 44.7998 368.8 44.7998 c 1,25,-1
 368.8 44.7998 l 1,13,14
EndSplineSet
Validated: 5
EndChar

StartChar: U0C67
Encoding: 3175 3175 78
Width: 740
VWidth: 819
GlyphClass: 2
Flags: W
LayerCount: 2
Fore
SplineSet
239.2 -16 m 1,0,1
 162.4 37.5996 162.4 37.5996 119.2 130.8 c 128,-1,2
 76 224 76 224 76 336 c 0,3,4
 76 473.6 76 473.6 162 570.8 c 128,-1,5
 248 668 248 668 369.6 668 c 256,6,7
 491.2 668 491.2 668 577.6 570.8 c 128,-1,8
 664 473.6 664 473.6 664 336 c 0,9,10
 664 234.4 664 234.4 620 141.2 c 128,-1,11
 576 48 576 48 496 -19.2002 c 1,12,-1
 455.2 25.5996 l 1,13,14
 522.4 92.7998 522.4 92.7998 558.4 173.2 c 128,-1,15
 594.4 253.6 594.4 253.6 594.4 336 c 0,16,17
 594.4 447.2 594.4 447.2 528.4 525.6 c 128,-1,18
 462.4 604 462.4 604 369.6 604 c 256,19,20
 276.8 604 276.8 604 211.2 525.6 c 128,-1,21
 145.6 447.2 145.6 447.2 145.6 336 c 0,22,23
 145.6 241.6 145.6 241.6 182 160 c 128,-1,24
 218.4 78.4004 218.4 78.4004 284 25.5996 c 1,25,-1
 239.2 -16 l 1,26,-1
 239.2 -16 l 1,0,1
EndSplineSet
Validated: 1
EndChar

StartChar: U0C68
Encoding: 3176 3176 79
Width: 738
VWidth: 819
GlyphClass: 2
Flags: W
LayerCount: 2
Fore
SplineSet
72 -5.59961 m 1,0,-1
 72 58.4004 l 1,1,-1
 293.6 58.4004 l 2,2,3
 421.6 58.4004 421.6 58.4004 512 142.8 c 128,-1,4
 602.4 227.2 602.4 227.2 602.4 346.4 c 0,5,6
 602.4 441.6 602.4 441.6 547.2 508.8 c 128,-1,7
 492 576 492 576 408 583.2 c 1,8,9
 420.8 572 420.8 572 428 552.4 c 128,-1,10
 435.2 532.8 435.2 532.8 435.2 507.2 c 0,11,12
 435.2 454.4 435.2 454.4 397.6 416.8 c 128,-1,13
 360 379.2 360 379.2 307.2 379.2 c 0,14,15
 253.6 379.2 253.6 379.2 216 416.8 c 128,-1,16
 178.4 454.4 178.4 454.4 178.4 507.2 c 0,17,18
 178.4 568 178.4 568 224 604.8 c 128,-1,19
 269.6 641.6 269.6 641.6 345.6 641.6 c 0,20,21
 478.4 641.6 478.4 641.6 572.4 555.2 c 128,-1,22
 666.4 468.8 666.4 468.8 666.4 346.4 c 0,23,24
 666.4 200.8 666.4 200.8 557.6 97.5996 c 128,-1,25
 448.8 -5.59961 448.8 -5.59961 295.2 -5.59961 c 2,26,-1
 72 -5.59961 l 1,27,-1
 72 -5.59961 l 1,0,-1
307.2 443.2 m 1,28,29
 333.6 443.2 333.6 443.2 352.4 462 c 128,-1,30
 371.2 480.8 371.2 480.8 371.2 507.2 c 0,31,32
 371.2 534.4 371.2 534.4 352.4 553.6 c 128,-1,33
 333.6 572.8 333.6 572.8 307.2 572.8 c 256,34,35
 280.8 572.8 280.8 572.8 262 553.6 c 128,-1,36
 243.2 534.4 243.2 534.4 243.2 507.2 c 0,37,38
 243.2 480.8 243.2 480.8 262 462 c 128,-1,39
 280.8 443.2 280.8 443.2 307.2 443.2 c 1,40,-1
 307.2 443.2 l 1,28,29
EndSplineSet
Validated: 5
EndChar

StartChar: U0C69
Encoding: 3177 3177 80
Width: 740
VWidth: 819
GlyphClass: 2
Flags: W
LayerCount: 2
Fore
SplineSet
375.2 -32.7998 m 1,0,1
 270.4 -32.7998 270.4 -32.7998 196.4 34.7998 c 128,-1,2
 122.4 102.4 122.4 102.4 122.4 198.4 c 1,3,-1
 192 198.4 l 1,4,5
 192 132 192 132 245.6 85.2002 c 128,-1,6
 299.2 38.4004 299.2 38.4004 375.2 38.4004 c 0,7,8
 452.8 38.4004 452.8 38.4004 499.2 78.7998 c 128,-1,9
 545.6 119.2 545.6 119.2 545.6 186.4 c 0,10,11
 545.6 241.6 545.6 241.6 508.4 278 c 128,-1,12
 471.2 314.4 471.2 314.4 414.4 314.4 c 2,13,-1
 276 314.4 l 1,14,-1
 276 379.2 l 1,15,-1
 413.6 379.2 l 2,16,17
 473.6 379.2 473.6 379.2 509.6 408.8 c 128,-1,18
 545.6 438.4 545.6 438.4 545.6 488 c 0,19,20
 545.6 536 545.6 536 495.6 570 c 128,-1,21
 445.6 604 445.6 604 375.2 604 c 0,22,23
 298.4 604 298.4 604 244.4 566 c 128,-1,24
 190.4 528 190.4 528 190.4 474.4 c 1,25,-1
 122.4 474.4 l 1,26,27
 122.4 554.4 122.4 554.4 196.4 611.2 c 128,-1,28
 270.4 668 270.4 668 375.2 668 c 0,29,30
 476 668 476 668 546.8 615.2 c 128,-1,31
 617.6 562.4 617.6 562.4 617.6 488 c 0,32,33
 617.6 439.2 617.6 439.2 588.8 400 c 128,-1,34
 560 360.8 560 360.8 514.4 348 c 1,35,-1
 514.4 341.6 l 1,36,37
 560.8 319.2 560.8 319.2 588.4 277.2 c 128,-1,38
 616 235.2 616 235.2 616 186.4 c 0,39,40
 616 82.4004 616 82.4004 552.8 24.7998 c 128,-1,41
 489.6 -32.7998 489.6 -32.7998 375.2 -32.7998 c 1,42,-1
 375.2 -32.7998 l 1,0,1
EndSplineSet
Validated: 5
EndChar

StartChar: U0C6A
Encoding: 3178 3178 81
Width: 738
VWidth: 819
GlyphClass: 2
Flags: W
LayerCount: 2
Fore
SplineSet
376.8 -32.7998 m 1,0,1
 293.6 -32.7998 293.6 -32.7998 235.2 20 c 128,-1,2
 176.8 72.7998 176.8 72.7998 176.8 148 c 0,3,4
 176.8 196 176.8 196 204.8 239.6 c 128,-1,5
 232.8 283.2 232.8 283.2 281.6 311.2 c 1,6,7
 194.4 343.2 194.4 343.2 140.8 397.2 c 128,-1,8
 87.2002 451.2 87.2002 451.2 87.2002 507.2 c 0,9,10
 87.2002 560.8 87.2002 560.8 118.8 607.2 c 128,-1,11
 150.4 653.6 150.4 653.6 204 678.4 c 1,12,-1
 247.2 635.2 l 1,13,14
 205.6 611.2 205.6 611.2 181.6 576.8 c 128,-1,15
 157.6 542.4 157.6 542.4 157.6 507.2 c 0,16,17
 157.6 461.6 157.6 461.6 216.8 417.2 c 128,-1,18
 276 372.8 276 372.8 369.6 348 c 1,19,20
 461.6 364 461.6 364 522 409.2 c 128,-1,21
 582.4 454.4 582.4 454.4 582.4 507.2 c 0,22,23
 582.4 542.4 582.4 542.4 558.8 576 c 128,-1,24
 535.2 609.6 535.2 609.6 493.6 633.6 c 1,25,-1
 526.4 678.4 l 1,26,27
 582.4 657.6 582.4 657.6 616.8 610.8 c 128,-1,28
 651.2 564 651.2 564 651.2 507.2 c 0,29,30
 651.2 449.6 651.2 449.6 600.4 395.6 c 128,-1,31
 549.6 341.6 549.6 341.6 466.4 311.2 c 1,32,33
 516.8 282.4 516.8 282.4 546 240 c 128,-1,34
 575.2 197.6 575.2 197.6 575.2 153.6 c 0,35,36
 575.2 76 575.2 76 517.2 21.5996 c 128,-1,37
 459.2 -32.7998 459.2 -32.7998 376.8 -32.7998 c 1,38,-1
 376.8 -32.7998 l 1,0,1
376.8 38.4004 m 1,39,40
 429.6 38.4004 429.6 38.4004 467.2 72 c 128,-1,41
 504.8 105.6 504.8 105.6 504.8 153.6 c 0,42,43
 504.8 197.6 504.8 197.6 469.2 235.2 c 128,-1,44
 433.6 272.8 433.6 272.8 376.8 288 c 1,45,46
 319.2 272.8 319.2 272.8 283.2 233.6 c 128,-1,47
 247.2 194.4 247.2 194.4 247.2 148 c 0,48,49
 247.2 102.4 247.2 102.4 285.2 70.4004 c 128,-1,50
 323.2 38.4004 323.2 38.4004 376.8 38.4004 c 1,51,-1
 376.8 38.4004 l 1,39,40
EndSplineSet
Validated: 5
EndChar

StartChar: U0C6B
Encoding: 3179 3179 82
Width: 740
VWidth: 819
GlyphClass: 2
Flags: W
LayerCount: 2
Fore
SplineSet
60 -19.2002 m 1,0,-1
 62.4004 47.2002 l 1,1,2
 188.8 58.4004 188.8 58.4004 253.6 127.6 c 128,-1,3
 318.4 196.8 318.4 196.8 318.4 320.8 c 0,4,5
 318.4 435.2 318.4 435.2 252 510 c 128,-1,6
 185.6 584.8 185.6 584.8 76 594.4 c 1,7,-1
 76 664 l 1,8,9
 204.8 664 204.8 664 295.6 563.6 c 128,-1,10
 386.4 463.2 386.4 463.2 386.4 320.8 c 0,11,12
 386.4 266.4 386.4 266.4 371.6 216.4 c 128,-1,13
 356.8 166.4 356.8 166.4 328.8 126.4 c 1,14,-1
 332.8 122.4 l 1,15,16
 390.4 162.4 390.4 162.4 436.4 212 c 128,-1,17
 482.4 261.6 482.4 261.6 515.2 318.4 c 1,18,19
 456.8 359.2 456.8 359.2 423.6 414.4 c 128,-1,20
 390.4 469.6 390.4 469.6 390.4 526.4 c 0,21,22
 390.4 584.8 390.4 584.8 433.6 626.4 c 128,-1,23
 476.8 668 476.8 668 538.4 668 c 0,24,25
 596.8 668 596.8 668 638.4 623.2 c 128,-1,26
 680 578.4 680 578.4 680 514.4 c 0,27,28
 680 476 680 476 660.8 428.4 c 128,-1,29
 641.6 380.8 641.6 380.8 604.8 328 c 1,30,31
 632 296 632 296 646.4 257.6 c 128,-1,32
 660.8 219.2 660.8 219.2 660.8 179.2 c 0,33,34
 660.8 96 660.8 96 605.2 37.2002 c 128,-1,35
 549.6 -21.5996 549.6 -21.5996 470.4 -21.5996 c 1,36,-1
 460 33.5996 l 1,37,38
 516.8 43.2002 516.8 43.2002 553.6 84.7998 c 128,-1,39
 590.4 126.4 590.4 126.4 590.4 179.2 c 0,40,41
 590.4 212 590.4 212 583.6 236.8 c 128,-1,42
 576.8 261.6 576.8 261.6 564 274.4 c 1,43,44
 467.2 136 467.2 136 333.6 58.4004 c 128,-1,45
 200 -19.2002 200 -19.2002 60 -19.2002 c 1,46,-1
 60 -19.2002 l 1,0,-1
555.2 371.2 m 1,47,48
 581.6 408.8 581.6 408.8 595.6 445.6 c 128,-1,49
 609.6 482.4 609.6 482.4 609.6 514.4 c 0,50,51
 609.6 553.6 609.6 553.6 589.6 578.8 c 128,-1,52
 569.6 604 569.6 604 538.4 604 c 0,53,54
 504.8 604 504.8 604 482.8 582 c 128,-1,55
 460.8 560 460.8 560 460.8 526.4 c 0,56,57
 460.8 484.8 460.8 484.8 486 443.6 c 128,-1,58
 511.2 402.4 511.2 402.4 555.2 371.2 c 1,59,-1
 555.2 371.2 l 1,47,48
EndSplineSet
Validated: 5
EndChar

StartChar: U0C6C
Encoding: 3180 3180 83
Width: 740
VWidth: 819
GlyphClass: 2
Flags: W
LayerCount: 2
Fore
SplineSet
264.8 -12 m 1,0,1
 180.8 -12 180.8 -12 130 38.4004 c 128,-1,2
 79.2002 88.7998 79.2002 88.7998 79.2002 172.8 c 0,3,4
 79.2002 227.2 79.2002 227.2 112 270 c 128,-1,5
 144.8 312.8 144.8 312.8 196.8 326.4 c 1,6,-1
 196.8 332 l 1,7,8
 147.2 345.6 147.2 345.6 115.6 385.2 c 128,-1,9
 84 424.8 84 424.8 84 474.4 c 0,10,11
 84 552 84 552 151.6 606.4 c 128,-1,12
 219.2 660.8 219.2 660.8 315.2 660.8 c 2,13,-1
 400 660.8 l 1,14,-1
 400 596.8 l 1,15,-1
 316.8 596.8 l 2,16,17
 247.2 596.8 247.2 596.8 198.4 560.8 c 128,-1,18
 149.6 524.8 149.6 524.8 149.6 474.4 c 0,19,20
 149.6 429.6 149.6 429.6 190.8 397.6 c 128,-1,21
 232 365.6 232 365.6 289.6 365.6 c 2,22,-1
 386.4 365.6 l 1,23,-1
 386.4 295.2 l 1,24,-1
 295.2 295.2 l 2,25,26
 225.6 295.2 225.6 295.2 184 261.6 c 128,-1,27
 142.4 228 142.4 228 142.4 172.8 c 0,28,29
 142.4 120.8 142.4 120.8 176 89.5996 c 128,-1,30
 209.6 58.4004 209.6 58.4004 264.8 58.4004 c 2,31,-1
 660.8 58.4004 l 1,32,-1
 660.8 -12 l 1,33,-1
 264.8 -12 l 1,34,-1
 264.8 -12 l 1,0,1
EndSplineSet
Validated: 5
EndChar

StartChar: U0C6D
Encoding: 3181 3181 84
Width: 738
VWidth: 819
GlyphClass: 2
Flags: W
LayerCount: 2
Fore
SplineSet
353.6 -19.2002 m 1,0,1
 241.6 -19.2002 241.6 -19.2002 162.8 44.4004 c 128,-1,2
 84 108 84 108 84 198.4 c 0,3,4
 84 271.2 84 271.2 153.6 327.2 c 128,-1,5
 223.2 383.2 223.2 383.2 326.4 392 c 0,6,7
 406.4 399.2 406.4 399.2 460.4 426.8 c 128,-1,8
 514.4 454.4 514.4 454.4 514.4 488 c 0,9,10
 514.4 532.8 514.4 532.8 465.6 564.8 c 128,-1,11
 416.8 596.8 416.8 596.8 348 596.8 c 0,12,13
 296.8 596.8 296.8 596.8 246.4 570.4 c 128,-1,14
 196 544 196 544 156 496 c 1,15,-1
 96.7998 544 l 1,16,17
 137.6 602.4 137.6 602.4 204 635.2 c 128,-1,18
 270.4 668 270.4 668 348 668 c 0,19,20
 455.2 668 455.2 668 520 618.8 c 128,-1,21
 584.8 569.6 584.8 569.6 584.8 488 c 0,22,23
 584.8 429.6 584.8 429.6 513.2 383.6 c 128,-1,24
 441.6 337.6 441.6 337.6 336 328 c 0,25,26
 259.2 321.6 259.2 321.6 207.2 284 c 128,-1,27
 155.2 246.4 155.2 246.4 155.2 198.4 c 0,28,29
 155.2 137.6 155.2 137.6 213.2 94.7998 c 128,-1,30
 271.2 52 271.2 52 353.6 52 c 0,31,32
 438.4 52 438.4 52 503.2 104.4 c 128,-1,33
 568 156.8 568 156.8 582.4 237.6 c 1,34,-1
 654.4 237.6 l 1,35,36
 644.8 128.8 644.8 128.8 558.4 54.7998 c 128,-1,37
 472 -19.2002 472 -19.2002 353.6 -19.2002 c 1,38,-1
 353.6 -19.2002 l 1,0,1
EndSplineSet
Validated: 5
EndChar

StartChar: U0C6E
Encoding: 3182 3182 85
Width: 740
VWidth: 819
GlyphClass: 2
Flags: W
LayerCount: 2
Fore
SplineSet
344 -25.5996 m 1,0,1
 224 -25.5996 224 -25.5996 139.2 68 c 128,-1,2
 54.4004 161.6 54.4004 161.6 54.4004 293.6 c 0,3,4
 54.4004 417.6 54.4004 417.6 110.4 517.2 c 128,-1,5
 166.4 616.8 166.4 616.8 260.8 660.8 c 1,6,-1
 288 598.4 l 1,7,8
 211.2 559.2 211.2 559.2 166 476.8 c 128,-1,9
 120.8 394.4 120.8 394.4 120.8 293.6 c 0,10,11
 120.8 189.6 120.8 189.6 186 116 c 128,-1,12
 251.2 42.4004 251.2 42.4004 344 42.4004 c 0,13,14
 434.4 42.4004 434.4 42.4004 498 116 c 128,-1,15
 561.6 189.6 561.6 189.6 561.6 293.6 c 0,16,17
 561.6 400 561.6 400 515.6 481.6 c 128,-1,18
 469.6 563.2 469.6 563.2 394.4 590.4 c 1,19,-1
 394.4 655.2 l 1,20,-1
 685.6 655.2 l 1,21,-1
 685.6 590.4 l 1,22,-1
 560 590.4 l 1,23,-1
 519.2 596 l 1,24,-1
 515.2 590.4 l 1,25,26
 568.8 536.8 568.8 536.8 598 459.6 c 128,-1,27
 627.2 382.4 627.2 382.4 627.2 293.6 c 0,28,29
 627.2 161.6 627.2 161.6 544.4 68 c 128,-1,30
 461.6 -25.5996 461.6 -25.5996 344 -25.5996 c 1,31,-1
 344 -25.5996 l 1,0,1
EndSplineSet
Validated: 5
EndChar

StartChar: U0C6F
Encoding: 3183 3183 86
Width: 740
VWidth: 819
GlyphClass: 2
Flags: W
LayerCount: 2
Fore
SplineSet
247.2 -25.5996 m 1,0,1
 172.8 -25.5996 172.8 -25.5996 120.4 25.2002 c 128,-1,2
 68 76 68 76 68 148 c 0,3,4
 68 197.6 68 197.6 102.8 240.8 c 128,-1,5
 137.6 284 137.6 284 194.4 304.8 c 1,6,-1
 194.4 310.4 l 1,7,8
 138.4 325.6 138.4 325.6 103.2 371.2 c 128,-1,9
 68 416.8 68 416.8 68 474.4 c 0,10,11
 68 549.6 68 549.6 120.4 602.4 c 128,-1,12
 172.8 655.2 172.8 655.2 247.2 655.2 c 2,13,-1
 672 655.2 l 1,14,-1
 672 587.2 l 1,15,-1
 248.8 587.2 l 2,16,17
 202.4 587.2 202.4 587.2 169.2 554 c 128,-1,18
 136 520.8 136 520.8 136 474.4 c 0,19,20
 136 420 136 420 182 382 c 128,-1,21
 228 344 228 344 293.6 344 c 2,22,-1
 388.8 344 l 1,23,-1
 388.8 276 l 1,24,-1
 293.6 276 l 2,25,26
 228 276 228 276 182 238.4 c 128,-1,27
 136 200.8 136 200.8 136 148 c 0,28,29
 136 103.2 136 103.2 168.4 72 c 128,-1,30
 200.8 40.7998 200.8 40.7998 247.2 40.7998 c 2,31,-1
 344 40.7998 l 1,32,-1
 344 -25.5996 l 1,33,-1
 247.2 -25.5996 l 1,34,-1
 247.2 -25.5996 l 1,0,1
EndSplineSet
Validated: 5
EndChar

StartChar: afii61664
Encoding: 8204 8204 87
Width: 0
VWidth: 819
GlyphClass: 2
Flags: W
LayerCount: 2
Fore
SplineSet
0 -414.4 m 1,0,-1
 0 938.4 l 1,1,-1
 54.4004 938.4 l 1,2,-1
 54.4004 -414.4 l 1,3,-1
 0 -414.4 l 1,4,-1
 0 -414.4 l 1,0,-1
EndSplineSet
Validated: 5
EndChar

StartChar: afii301
Encoding: 8205 8205 88
Width: 0
VWidth: 819
GlyphClass: 2
Flags: W
LayerCount: 2
Fore
SplineSet
0 -414.4 m 1,0,-1
 0 938.4 l 1,1,-1
 231.2 938.4 l 1,2,-1
 231.2 884 l 1,3,-1
 54.4004 884 l 1,4,-1
 54.4004 -414.4 l 1,5,-1
 0 -414.4 l 1,6,-1
 0 -414.4 l 1,0,-1
EndSplineSet
Validated: 5
EndChar

StartChar: minus
Encoding: 8722 8722 89
Width: 640
VWidth: 819
GlyphClass: 2
Flags: W
LayerCount: 2
Fore
SplineSet
80 -248 m 1,0,-1
 80 312 l 1,1,-1
 560 312 l 1,2,-1
 560 -248 l 1,3,-1
 80 -248 l 1,4,-1
 80 -248 l 1,0,-1
120 -208 m 1,5,-1
 520 -208 l 1,6,-1
 520 272 l 1,7,-1
 120 272 l 1,8,-1
 120 -208 l 1,9,-1
 120 -208 l 1,5,-1
EndSplineSet
Validated: 5
EndChar

StartChar: uni25CC
Encoding: 9676 9676 90
Width: 870
VWidth: 819
GlyphClass: 2
Flags: W
LayerCount: 2
Fore
SplineSet
386.4 576.8 m 1,0,1
 386.4 596.8 386.4 596.8 400.8 611.2 c 128,-1,2
 415.2 625.6 415.2 625.6 435.2 625.6 c 256,3,4
 455.2 625.6 455.2 625.6 469.6 611.2 c 128,-1,5
 484 596.8 484 596.8 484 576.8 c 256,6,7
 484 556.8 484 556.8 469.6 542.4 c 128,-1,8
 455.2 528 455.2 528 435.2 528 c 256,9,10
 415.2 528 415.2 528 400.8 542.4 c 128,-1,11
 386.4 556.8 386.4 556.8 386.4 576.8 c 1,12,-1
 386.4 576.8 l 1,0,1
386.4 -60 m 1,13,14
 386.4 -40 386.4 -40 400.8 -25.5996 c 128,-1,15
 415.2 -11.2002 415.2 -11.2002 435.2 -11.2002 c 256,16,17
 455.2 -11.2002 455.2 -11.2002 469.6 -25.5996 c 128,-1,18
 484 -40 484 -40 484 -60 c 256,19,20
 484 -80 484 -80 469.6 -94.4004 c 128,-1,21
 455.2 -108.8 455.2 -108.8 435.2 -108.8 c 256,22,23
 415.2 -108.8 415.2 -108.8 400.8 -94.4004 c 128,-1,24
 386.4 -80 386.4 -80 386.4 -60 c 1,25,-1
 386.4 -60 l 1,13,14
68 258.4 m 1,26,27
 68 278.4 68 278.4 82.4004 292.8 c 128,-1,28
 96.7998 307.2 96.7998 307.2 116.8 307.2 c 256,29,30
 136.8 307.2 136.8 307.2 151.2 292.8 c 128,-1,31
 165.6 278.4 165.6 278.4 165.6 258.4 c 256,32,33
 165.6 238.4 165.6 238.4 151.2 224 c 128,-1,34
 136.8 209.6 136.8 209.6 116.8 209.6 c 256,35,36
 96.7998 209.6 96.7998 209.6 82.4004 224 c 128,-1,37
 68 238.4 68 238.4 68 258.4 c 1,38,-1
 68 258.4 l 1,26,27
704.8 258.4 m 1,39,40
 704.8 278.4 704.8 278.4 719.2 292.8 c 128,-1,41
 733.6 307.2 733.6 307.2 753.6 307.2 c 256,42,43
 773.6 307.2 773.6 307.2 788 292.8 c 128,-1,44
 802.4 278.4 802.4 278.4 802.4 258.4 c 256,45,46
 802.4 238.4 802.4 238.4 788 224 c 128,-1,47
 773.6 209.6 773.6 209.6 753.6 209.6 c 256,48,49
 733.6 209.6 733.6 209.6 719.2 224 c 128,-1,50
 704.8 238.4 704.8 238.4 704.8 258.4 c 1,51,-1
 704.8 258.4 l 1,39,40
111.2 99.2002 m 1,52,53
 111.2 119.2 111.2 119.2 125.6 133.6 c 128,-1,54
 140 148 140 148 160.8 148 c 0,55,56
 180.8 148 180.8 148 195.2 133.6 c 128,-1,57
 209.6 119.2 209.6 119.2 209.6 99.2002 c 256,58,59
 209.6 79.2002 209.6 79.2002 195.2 64.7998 c 128,-1,60
 180.8 50.4004 180.8 50.4004 160.8 50.4004 c 0,61,62
 140 50.4004 140 50.4004 125.6 64.7998 c 128,-1,63
 111.2 79.2002 111.2 79.2002 111.2 99.2002 c 1,64,-1
 111.2 99.2002 l 1,52,53
662.4 417.6 m 1,65,66
 662.4 437.6 662.4 437.6 676.8 452 c 128,-1,67
 691.2 466.4 691.2 466.4 711.2 466.4 c 256,68,69
 731.2 466.4 731.2 466.4 745.6 452 c 128,-1,70
 760 437.6 760 437.6 760 417.6 c 256,71,72
 760 397.6 760 397.6 745.6 383.2 c 128,-1,73
 731.2 368.8 731.2 368.8 711.2 368.8 c 256,74,75
 691.2 368.8 691.2 368.8 676.8 383.2 c 128,-1,76
 662.4 397.6 662.4 397.6 662.4 417.6 c 1,77,-1
 662.4 417.6 l 1,65,66
545.6 534.4 m 1,78,79
 545.6 554.4 545.6 554.4 560 568.8 c 128,-1,80
 574.4 583.2 574.4 583.2 594.4 583.2 c 256,81,82
 614.4 583.2 614.4 583.2 628.8 568.8 c 128,-1,83
 643.2 554.4 643.2 554.4 643.2 534.4 c 256,84,85
 643.2 514.4 643.2 514.4 628.8 500 c 128,-1,86
 614.4 485.6 614.4 485.6 594.4 485.6 c 256,87,88
 574.4 485.6 574.4 485.6 560 500 c 128,-1,89
 545.6 514.4 545.6 514.4 545.6 534.4 c 1,90,-1
 545.6 534.4 l 1,78,79
227.2 -16 m 1,91,92
 227.2 4 227.2 4 241.6 18.4004 c 128,-1,93
 256 32.7998 256 32.7998 276 32.7998 c 256,94,95
 296 32.7998 296 32.7998 310.4 18.4004 c 128,-1,96
 324.8 4 324.8 4 324.8 -16 c 0,97,98
 324.8 -36.7998 324.8 -36.7998 310.4 -51.5996 c 128,-1,99
 296 -66.4004 296 -66.4004 276 -66.4004 c 256,100,101
 256 -66.4004 256 -66.4004 241.6 -51.5996 c 128,-1,102
 227.2 -36.7998 227.2 -36.7998 227.2 -16 c 1,103,-1
 227.2 -16 l 1,91,92
111.2 417.6 m 1,104,105
 111.2 437.6 111.2 437.6 125.6 452 c 128,-1,106
 140 466.4 140 466.4 160.8 466.4 c 0,107,108
 180.8 466.4 180.8 466.4 195.2 452 c 128,-1,109
 209.6 437.6 209.6 437.6 209.6 417.6 c 256,110,111
 209.6 397.6 209.6 397.6 195.2 383.2 c 128,-1,112
 180.8 368.8 180.8 368.8 160.8 368.8 c 0,113,114
 140 368.8 140 368.8 125.6 383.2 c 128,-1,115
 111.2 397.6 111.2 397.6 111.2 417.6 c 1,116,-1
 111.2 417.6 l 1,104,105
662.4 99.2002 m 1,117,118
 662.4 119.2 662.4 119.2 676.8 133.6 c 128,-1,119
 691.2 148 691.2 148 711.2 148 c 256,120,121
 731.2 148 731.2 148 745.6 133.6 c 128,-1,122
 760 119.2 760 119.2 760 99.2002 c 256,123,124
 760 79.2002 760 79.2002 745.6 64.7998 c 128,-1,125
 731.2 50.4004 731.2 50.4004 711.2 50.4004 c 256,126,127
 691.2 50.4004 691.2 50.4004 676.8 64.7998 c 128,-1,128
 662.4 79.2002 662.4 79.2002 662.4 99.2002 c 1,129,-1
 662.4 99.2002 l 1,117,118
227.2 534.4 m 1,130,131
 227.2 554.4 227.2 554.4 241.6 568.8 c 128,-1,132
 256 583.2 256 583.2 276 583.2 c 256,133,134
 296 583.2 296 583.2 310.4 568.8 c 128,-1,135
 324.8 554.4 324.8 554.4 324.8 534.4 c 256,136,137
 324.8 514.4 324.8 514.4 310.4 500 c 128,-1,138
 296 485.6 296 485.6 276 485.6 c 256,139,140
 256 485.6 256 485.6 241.6 500 c 128,-1,141
 227.2 514.4 227.2 514.4 227.2 534.4 c 1,142,-1
 227.2 534.4 l 1,130,131
545.6 -16 m 1,143,144
 545.6 4 545.6 4 560 18.4004 c 128,-1,145
 574.4 32.7998 574.4 32.7998 594.4 32.7998 c 256,146,147
 614.4 32.7998 614.4 32.7998 628.8 18.4004 c 128,-1,148
 643.2 4 643.2 4 643.2 -16 c 0,149,150
 643.2 -36.7998 643.2 -36.7998 628.8 -51.5996 c 128,-1,151
 614.4 -66.4004 614.4 -66.4004 594.4 -66.4004 c 256,152,153
 574.4 -66.4004 574.4 -66.4004 560 -51.5996 c 128,-1,154
 545.6 -36.7998 545.6 -36.7998 545.6 -16 c 1,155,-1
 545.6 -16 l 1,143,144
EndSplineSet
Validated: 5
EndChar

StartChar: glyph86
Encoding: 65539 -1 91
Width: 640
VWidth: 819
GlyphClass: 2
Flags: W
LayerCount: 2
Fore
SplineSet
80 -248 m 1,0,-1
 80 312 l 1,1,-1
 560 312 l 1,2,-1
 560 -248 l 1,3,-1
 80 -248 l 1,4,-1
 80 -248 l 1,0,-1
120 -208 m 1,5,-1
 520 -208 l 1,6,-1
 520 272 l 1,7,-1
 120 272 l 1,8,-1
 120 -208 l 1,9,-1
 120 -208 l 1,5,-1
EndSplineSet
Validated: 5
EndChar

StartChar: glyph88
Encoding: 65540 -1 92
Width: 640
VWidth: 819
GlyphClass: 2
Flags: W
LayerCount: 2
Fore
SplineSet
80 -248 m 1,0,-1
 80 312 l 1,1,-1
 560 312 l 1,2,-1
 560 -248 l 1,3,-1
 80 -248 l 1,4,-1
 80 -248 l 1,0,-1
120 -208 m 1,5,-1
 520 -208 l 1,6,-1
 520 272 l 1,7,-1
 120 272 l 1,8,-1
 120 -208 l 1,9,-1
 120 -208 l 1,5,-1
EndSplineSet
Validated: 5
EndChar

StartChar: glyph89
Encoding: 65541 -1 93
Width: 640
VWidth: 819
GlyphClass: 2
Flags: W
LayerCount: 2
Fore
SplineSet
80 -248 m 1,0,-1
 80 312 l 1,1,-1
 560 312 l 1,2,-1
 560 -248 l 1,3,-1
 80 -248 l 1,4,-1
 80 -248 l 1,0,-1
120 -208 m 1,5,-1
 520 -208 l 1,6,-1
 520 272 l 1,7,-1
 120 272 l 1,8,-1
 120 -208 l 1,9,-1
 120 -208 l 1,5,-1
EndSplineSet
Validated: 5
EndChar

StartChar: glyph91
Encoding: 65542 -1 94
Width: 640
VWidth: 819
GlyphClass: 2
Flags: W
LayerCount: 2
Fore
SplineSet
80 -248 m 1,0,-1
 80 312 l 1,1,-1
 560 312 l 1,2,-1
 560 -248 l 1,3,-1
 80 -248 l 1,4,-1
 80 -248 l 1,0,-1
120 -208 m 1,5,-1
 520 -208 l 1,6,-1
 520 272 l 1,7,-1
 120 272 l 1,8,-1
 120 -208 l 1,9,-1
 120 -208 l 1,5,-1
EndSplineSet
Validated: 5
EndChar

StartChar: glyph92
Encoding: 65543 -1 95
Width: 640
VWidth: 819
GlyphClass: 2
Flags: W
LayerCount: 2
Fore
SplineSet
80 -248 m 1,0,-1
 80 312 l 1,1,-1
 560 312 l 1,2,-1
 560 -248 l 1,3,-1
 80 -248 l 1,4,-1
 80 -248 l 1,0,-1
120 -208 m 1,5,-1
 520 -208 l 1,6,-1
 520 272 l 1,7,-1
 120 272 l 1,8,-1
 120 -208 l 1,9,-1
 120 -208 l 1,5,-1
EndSplineSet
Validated: 5
EndChar

StartChar: glyph94
Encoding: 65544 -1 96
Width: 640
VWidth: 819
GlyphClass: 2
Flags: W
LayerCount: 2
Fore
SplineSet
80 -248 m 1,0,-1
 80 312 l 1,1,-1
 560 312 l 1,2,-1
 560 -248 l 1,3,-1
 80 -248 l 1,4,-1
 80 -248 l 1,0,-1
120 -208 m 1,5,-1
 520 -208 l 1,6,-1
 520 272 l 1,7,-1
 120 272 l 1,8,-1
 120 -208 l 1,9,-1
 120 -208 l 1,5,-1
EndSplineSet
Validated: 5
EndChar

StartChar: glyph95
Encoding: 65545 -1 97
Width: 640
VWidth: 819
GlyphClass: 2
Flags: W
LayerCount: 2
Fore
SplineSet
80 -248 m 1,0,-1
 80 312 l 1,1,-1
 560 312 l 1,2,-1
 560 -248 l 1,3,-1
 80 -248 l 1,4,-1
 80 -248 l 1,0,-1
120 -208 m 1,5,-1
 520 -208 l 1,6,-1
 520 272 l 1,7,-1
 120 272 l 1,8,-1
 120 -208 l 1,9,-1
 120 -208 l 1,5,-1
EndSplineSet
Validated: 5
EndChar

StartChar: glyph96
Encoding: 65546 -1 98
Width: 640
VWidth: 819
GlyphClass: 2
Flags: W
LayerCount: 2
Fore
SplineSet
80 -248 m 1,0,-1
 80 312 l 1,1,-1
 560 312 l 1,2,-1
 560 -248 l 1,3,-1
 80 -248 l 1,4,-1
 80 -248 l 1,0,-1
120 -208 m 1,5,-1
 520 -208 l 1,6,-1
 520 272 l 1,7,-1
 120 272 l 1,8,-1
 120 -208 l 1,9,-1
 120 -208 l 1,5,-1
EndSplineSet
Validated: 5
EndChar

StartChar: glyph97
Encoding: 65547 -1 99
Width: 640
VWidth: 819
GlyphClass: 2
Flags: W
LayerCount: 2
Fore
SplineSet
80 -248 m 1,0,-1
 80 312 l 1,1,-1
 560 312 l 1,2,-1
 560 -248 l 1,3,-1
 80 -248 l 1,4,-1
 80 -248 l 1,0,-1
120 -208 m 1,5,-1
 520 -208 l 1,6,-1
 520 272 l 1,7,-1
 120 272 l 1,8,-1
 120 -208 l 1,9,-1
 120 -208 l 1,5,-1
EndSplineSet
Validated: 5
EndChar

StartChar: glyph98
Encoding: 65548 -1 100
Width: 640
VWidth: 819
GlyphClass: 2
Flags: W
LayerCount: 2
Fore
SplineSet
80 -248 m 1,0,-1
 80 312 l 1,1,-1
 560 312 l 1,2,-1
 560 -248 l 1,3,-1
 80 -248 l 1,4,-1
 80 -248 l 1,0,-1
120 -208 m 1,5,-1
 520 -208 l 1,6,-1
 520 272 l 1,7,-1
 120 272 l 1,8,-1
 120 -208 l 1,9,-1
 120 -208 l 1,5,-1
EndSplineSet
Validated: 5
EndChar

StartChar: glyph99
Encoding: 65549 -1 101
Width: 640
VWidth: 819
GlyphClass: 2
Flags: W
LayerCount: 2
Fore
SplineSet
80 -248 m 1,0,-1
 80 312 l 1,1,-1
 560 312 l 1,2,-1
 560 -248 l 1,3,-1
 80 -248 l 1,4,-1
 80 -248 l 1,0,-1
120 -208 m 1,5,-1
 520 -208 l 1,6,-1
 520 272 l 1,7,-1
 120 272 l 1,8,-1
 120 -208 l 1,9,-1
 120 -208 l 1,5,-1
EndSplineSet
Validated: 5
EndChar

StartChar: glyph100
Encoding: 65550 -1 102
Width: 640
VWidth: 819
GlyphClass: 2
Flags: W
LayerCount: 2
Fore
SplineSet
80 -248 m 1,0,-1
 80 312 l 1,1,-1
 560 312 l 1,2,-1
 560 -248 l 1,3,-1
 80 -248 l 1,4,-1
 80 -248 l 1,0,-1
120 -208 m 1,5,-1
 520 -208 l 1,6,-1
 520 272 l 1,7,-1
 120 272 l 1,8,-1
 120 -208 l 1,9,-1
 120 -208 l 1,5,-1
EndSplineSet
Validated: 5
EndChar

StartChar: glyph101
Encoding: 65551 -1 103
Width: 640
VWidth: 819
GlyphClass: 2
Flags: W
LayerCount: 2
Fore
SplineSet
80 -248 m 1,0,-1
 80 312 l 1,1,-1
 560 312 l 1,2,-1
 560 -248 l 1,3,-1
 80 -248 l 1,4,-1
 80 -248 l 1,0,-1
120 -208 m 1,5,-1
 520 -208 l 1,6,-1
 520 272 l 1,7,-1
 120 272 l 1,8,-1
 120 -208 l 1,9,-1
 120 -208 l 1,5,-1
EndSplineSet
Validated: 5
EndChar

StartChar: U0C15_U0C3E.abvs
Encoding: 65552 -1 104
Width: 800
VWidth: 819
GlyphClass: 2
Flags: W
LayerCount: 2
Fore
SplineSet
124 353.6 m 1,0,1
 124 324 124 324 162 302.8 c 128,-1,2
 200 281.6 200 281.6 254.4 281.6 c 0,3,4
 336 281.6 336 281.6 393.6 241.2 c 128,-1,5
 451.2 200.8 451.2 200.8 451.2 144 c 0,6,7
 451.2 84 451.2 84 391.6 42 c 128,-1,8
 332 0 332 0 247.2 0 c 0,9,10
 180 0 180 0 120.4 27.2002 c 128,-1,11
 60.7998 54.4004 60.7998 54.4004 20 103.2 c 1,12,-1
 65.5996 148 l 1,13,14
 98.4004 108.8 98.4004 108.8 146 87.2002 c 128,-1,15
 193.6 65.5996 193.6 65.5996 247.2 65.5996 c 0,16,17
 304.8 65.5996 304.8 65.5996 345.6 88.4004 c 128,-1,18
 386.4 111.2 386.4 111.2 386.4 144 c 0,19,20
 386.4 179.2 386.4 179.2 342 204 c 128,-1,21
 297.6 228.8 297.6 228.8 235.2 228.8 c 0,22,23
 161.6 228.8 161.6 228.8 110 265.2 c 128,-1,24
 58.4004 301.6 58.4004 301.6 58.4004 353.6 c 0,25,26
 58.4004 375.2 58.4004 375.2 69.5996 396.8 c 128,-1,27
 80.7998 418.4 80.7998 418.4 100.8 435.2 c 1,28,-1
 19.2002 435.2 l 1,29,-1
 19.2002 500.8 l 1,30,-1
 635.2 500.8 l 2,31,32
 695.2 500.8 695.2 500.8 737.2 462.4 c 128,-1,33
 779.2 424 779.2 424 779.2 369.6 c 0,34,35
 779.2 320.8 779.2 320.8 744.8 286 c 128,-1,36
 710.4 251.2 710.4 251.2 662.4 251.2 c 0,37,38
 613.6 251.2 613.6 251.2 578.8 286 c 128,-1,39
 544 320.8 544 320.8 544 369.6 c 0,40,41
 544 389.6 544 389.6 549.2 406.8 c 128,-1,42
 554.4 424 554.4 424 564 435.2 c 1,43,-1
 561.6 441.6 l 1,44,-1
 509.6 435.2 l 1,45,-1
 404 435.2 l 1,46,47
 409.6 434.4 409.6 434.4 416.4 430.4 c 128,-1,48
 423.2 426.4 423.2 426.4 431.2 420 c 1,49,-1
 400 361.6 l 1,50,51
 366.4 389.6 366.4 389.6 326 404.4 c 128,-1,52
 285.6 419.2 285.6 419.2 242.4 419.2 c 0,53,54
 193.6 419.2 193.6 419.2 158.8 400 c 128,-1,55
 124 380.8 124 380.8 124 353.6 c 1,56,-1
 124 353.6 l 1,0,1
596.8 369.6 m 1,57,58
 596.8 342.4 596.8 342.4 616 323.6 c 128,-1,59
 635.2 304.8 635.2 304.8 662.4 304.8 c 256,60,61
 689.6 304.8 689.6 304.8 708.4 323.6 c 128,-1,62
 727.2 342.4 727.2 342.4 727.2 369.6 c 256,63,64
 727.2 396.8 727.2 396.8 708.4 416 c 128,-1,65
 689.6 435.2 689.6 435.2 662.4 435.2 c 256,66,67
 635.2 435.2 635.2 435.2 616 416 c 128,-1,68
 596.8 396.8 596.8 396.8 596.8 369.6 c 1,69,-1
 596.8 369.6 l 1,57,58
EndSplineSet
Validated: 5
Ligature2: "'abvs' Above Base Substitutions in Telugu lookup 1" U0C15 U0C3E
EndChar

StartChar: U0C16_U0C3E.abvs
Encoding: 65553 -1 105
Width: 967
VWidth: 819
GlyphClass: 2
Flags: W
LayerCount: 2
Fore
SplineSet
133.6 365.6 m 1,0,1
 133.6 338.4 133.6 338.4 152.4 319.6 c 128,-1,2
 171.2 300.8 171.2 300.8 198.4 300.8 c 256,3,4
 225.6 300.8 225.6 300.8 244.8 319.6 c 128,-1,5
 264 338.4 264 338.4 264 365.6 c 256,6,7
 264 392.8 264 392.8 244.8 412 c 128,-1,8
 225.6 431.2 225.6 431.2 198.4 431.2 c 256,9,10
 171.2 431.2 171.2 431.2 152.4 412 c 128,-1,11
 133.6 392.8 133.6 392.8 133.6 365.6 c 1,12,-1
 133.6 365.6 l 1,0,1
84 104.8 m 1,13,14
 84 88.7998 84 88.7998 107.6 77.2002 c 128,-1,15
 131.2 65.5996 131.2 65.5996 164.8 65.5996 c 0,16,17
 200 65.5996 200 65.5996 226.8 72 c 128,-1,18
 253.6 78.4004 253.6 78.4004 268 91.2002 c 1,19,-1
 268 95.2002 l 1,20,21
 239.2 120 239.2 120 208.8 132.8 c 128,-1,22
 178.4 145.6 178.4 145.6 151.2 145.6 c 0,23,24
 123.2 145.6 123.2 145.6 103.6 133.6 c 128,-1,25
 84 121.6 84 121.6 84 104.8 c 1,26,-1
 84 104.8 l 1,13,14
460 0 m 1,27,28
 430.4 0 430.4 0 402.4 10 c 128,-1,29
 374.4 20 374.4 20 352 39.2002 c 1,30,-1
 346.4 36.7998 l 1,31,-1
 368.8 -65.5996 l 1,32,-1
 368.8 -118.4 l 1,33,-1
 289.6 -118.4 l 1,34,-1
 289.6 -65.5996 l 1,35,-1
 310.4 38.4004 l 1,36,-1
 305.6 40.7998 l 1,37,38
 282.4 20.7998 282.4 20.7998 246 10.4004 c 128,-1,39
 209.6 0 209.6 0 164.8 0 c 0,40,41
 104.8 0 104.8 0 62 30.7998 c 128,-1,42
 19.2002 61.5996 19.2002 61.5996 19.2002 104.8 c 0,43,44
 19.2002 148.8 19.2002 148.8 58 179.6 c 128,-1,45
 96.7998 210.4 96.7998 210.4 151.2 210.4 c 0,46,47
 196 210.4 196 210.4 238 190 c 128,-1,48
 280 169.6 280 169.6 311.2 132 c 1,49,-1
 316.8 132 l 1,50,51
 329.6 153.6 329.6 153.6 336 180 c 128,-1,52
 342.4 206.4 342.4 206.4 342.4 235.2 c 0,53,54
 342.4 261.6 342.4 261.6 335.6 289.6 c 128,-1,55
 328.8 317.6 328.8 317.6 315.2 346.4 c 1,56,57
 308 304 308 304 274.8 276.4 c 128,-1,58
 241.6 248.8 241.6 248.8 198.4 248.8 c 0,59,60
 149.6 248.8 149.6 248.8 114.8 283.2 c 128,-1,61
 80 317.6 80 317.6 80 365.6 c 0,62,63
 80 414.4 80 414.4 114.8 449.2 c 128,-1,64
 149.6 484 149.6 484 198.4 484 c 0,65,66
 285.6 484 285.6 484 346.8 413.2 c 128,-1,67
 408 342.4 408 342.4 408 242.4 c 0,68,69
 408 204 408 204 395.6 166.4 c 128,-1,70
 383.2 128.8 383.2 128.8 360 95.2002 c 1,71,-1
 360 91.2002 l 1,72,73
 374.4 78.4004 374.4 78.4004 400.4 72 c 128,-1,74
 426.4 65.5996 426.4 65.5996 460 65.5996 c 0,75,76
 520 65.5996 520 65.5996 562.4 119.2 c 128,-1,77
 604.8 172.8 604.8 172.8 604.8 248.8 c 0,78,79
 604.8 326.4 604.8 326.4 556.8 380.8 c 128,-1,80
 508.8 435.2 508.8 435.2 440.8 435.2 c 2,81,-1
 392.8 435.2 l 1,82,-1
 392.8 493.6 l 1,83,-1
 800.8 493.6 l 2,84,85
 860.8 493.6 860.8 493.6 902.8 457.2 c 128,-1,86
 944.8 420.8 944.8 420.8 944.8 369.6 c 0,87,88
 944.8 320.8 944.8 320.8 910.4 286 c 128,-1,89
 876 251.2 876 251.2 827.2 251.2 c 256,90,91
 778.4 251.2 778.4 251.2 744 286 c 128,-1,92
 709.6 320.8 709.6 320.8 709.6 369.6 c 0,93,94
 709.6 392.8 709.6 392.8 716.8 410.4 c 128,-1,95
 724 428 724 428 736 435.2 c 1,96,-1
 732.8 439.2 l 1,97,-1
 691.2 435.2 l 1,98,-1
 586.4 435.2 l 1,99,100
 626.4 400.8 626.4 400.8 648.4 352 c 128,-1,101
 670.4 303.2 670.4 303.2 670.4 248.8 c 0,102,103
 670.4 145.6 670.4 145.6 608.8 72.7998 c 128,-1,104
 547.2 0 547.2 0 460 0 c 1,105,-1
 460 0 l 1,27,28
761.6 369.6 m 1,106,107
 761.6 342.4 761.6 342.4 780.8 323.6 c 128,-1,108
 800 304.8 800 304.8 827.2 304.8 c 256,109,110
 854.4 304.8 854.4 304.8 873.2 323.6 c 128,-1,111
 892 342.4 892 342.4 892 369.6 c 256,112,113
 892 396.8 892 396.8 873.2 416 c 128,-1,114
 854.4 435.2 854.4 435.2 827.2 435.2 c 256,115,116
 800 435.2 800 435.2 780.8 416 c 128,-1,117
 761.6 396.8 761.6 396.8 761.6 369.6 c 1,118,-1
 761.6 369.6 l 1,106,107
EndSplineSet
Validated: 5
Ligature2: "'abvs' Above Base Substitutions in Telugu lookup 1" U0C16 U0C3E
EndChar

StartChar: U0C17_U0C3E.abvs
Encoding: 65554 -1 106
Width: 843
VWidth: 819
GlyphClass: 2
Flags: W
LayerCount: 2
Fore
SplineSet
40.7998 0 m 1,0,1
 40.7998 145.6 40.7998 145.6 72 258 c 128,-1,2
 103.2 370.4 103.2 370.4 161.6 435.2 c 1,3,-1
 40.7998 435.2 l 1,4,-1
 40.7998 500.8 l 1,5,-1
 677.6 500.8 l 2,6,7
 737.6 500.8 737.6 500.8 779.6 462.4 c 128,-1,8
 821.6 424 821.6 424 821.6 369.6 c 0,9,10
 821.6 320.8 821.6 320.8 787.2 286 c 128,-1,11
 752.8 251.2 752.8 251.2 704.8 251.2 c 0,12,13
 656 251.2 656 251.2 621.2 286 c 128,-1,14
 586.4 320.8 586.4 320.8 586.4 369.6 c 0,15,16
 586.4 389.6 586.4 389.6 591.6 406.8 c 128,-1,17
 596.8 424 596.8 424 606.4 435.2 c 1,18,-1
 604 441.6 l 1,19,-1
 552 435.2 l 1,20,-1
 367.2 435.2 l 1,21,22
 425.6 368.8 425.6 368.8 456.4 256.4 c 128,-1,23
 487.2 144 487.2 144 487.2 0 c 1,24,-1
 421.6 0 l 1,25,26
 421.6 173.6 421.6 173.6 375.6 296.4 c 128,-1,27
 329.6 419.2 329.6 419.2 264 419.2 c 256,28,29
 198.4 419.2 198.4 419.2 152.4 296.4 c 128,-1,30
 106.4 173.6 106.4 173.6 106.4 0 c 1,31,-1
 40.7998 0 l 1,32,-1
 40.7998 0 l 1,0,1
639.2 369.6 m 1,33,34
 639.2 342.4 639.2 342.4 658.4 323.6 c 128,-1,35
 677.6 304.8 677.6 304.8 704.8 304.8 c 256,36,37
 732 304.8 732 304.8 750.8 323.6 c 128,-1,38
 769.6 342.4 769.6 342.4 769.6 369.6 c 256,39,40
 769.6 396.8 769.6 396.8 750.8 416 c 128,-1,41
 732 435.2 732 435.2 704.8 435.2 c 256,42,43
 677.6 435.2 677.6 435.2 658.4 416 c 128,-1,44
 639.2 396.8 639.2 396.8 639.2 369.6 c 1,45,-1
 639.2 369.6 l 1,33,34
EndSplineSet
Validated: 5
Ligature2: "'abvs' Above Base Substitutions in Telugu lookup 1" U0C17 U0C3E
EndChar

StartChar: U0C18_U0C3E.abvs
Encoding: 65555 -1 107
Width: 1312
VWidth: 819
GlyphClass: 2
Flags: W
LayerCount: 2
Fore
SplineSet
76 118.4 m 1,0,1
 76 91.2002 76 91.2002 95.2002 71.5996 c 128,-1,2
 114.4 52 114.4 52 141.6 52 c 256,3,4
 168.8 52 168.8 52 187.6 71.5996 c 128,-1,5
 206.4 91.2002 206.4 91.2002 206.4 118.4 c 256,6,7
 206.4 145.6 206.4 145.6 187.6 164.4 c 128,-1,8
 168.8 183.2 168.8 183.2 141.6 183.2 c 256,9,10
 114.4 183.2 114.4 183.2 95.2002 164.4 c 128,-1,11
 76 145.6 76 145.6 76 118.4 c 1,12,-1
 76 118.4 l 1,0,1
369.6 65.5996 m 1,13,14
 416 65.5996 416 65.5996 448.8 117.6 c 128,-1,15
 481.6 169.6 481.6 169.6 481.6 243.2 c 0,16,17
 481.6 324 481.6 324 430.8 381.6 c 128,-1,18
 380 439.2 380 439.2 308.8 439.2 c 1,19,-1
 324 496 l 1,20,21
 413.6 496 413.6 496 476.8 422 c 128,-1,22
 540 348 540 348 540 243.2 c 0,23,24
 540 232 540 232 538.4 219.2 c 128,-1,25
 536.8 206.4 536.8 206.4 534.4 192 c 1,26,27
 560 134.4 560 134.4 606.4 100 c 128,-1,28
 652.8 65.5996 652.8 65.5996 704.8 65.5996 c 0,29,30
 764.8 65.5996 764.8 65.5996 806.8 115.2 c 128,-1,31
 848.8 164.8 848.8 164.8 848.8 235.2 c 0,32,33
 848.8 324 848.8 324 802.8 387.2 c 128,-1,34
 756.8 450.4 756.8 450.4 692 450.4 c 1,35,-1
 692 509.6 l 1,36,-1
 1146.4 509.6 l 2,37,38
 1206.4 509.6 1206.4 509.6 1248.4 471.6 c 128,-1,39
 1290.4 433.6 1290.4 433.6 1290.4 379.2 c 0,40,41
 1290.4 330.4 1290.4 330.4 1255.6 295.6 c 128,-1,42
 1220.8 260.8 1220.8 260.8 1172 260.8 c 256,43,44
 1123.2 260.8 1123.2 260.8 1088.4 295.6 c 128,-1,45
 1053.6 330.4 1053.6 330.4 1053.6 379.2 c 0,46,47
 1053.6 395.2 1053.6 395.2 1060.8 412 c 128,-1,48
 1068 428.8 1068 428.8 1080.8 444.8 c 1,49,-1
 1078.4 448.8 l 1,50,-1
 1033.6 444.8 l 1,51,-1
 863.2 444.8 l 1,52,-1
 829.6 448.8 l 1,53,-1
 827.2 444.8 l 1,54,55
 865.6 406.4 865.6 406.4 886.4 352 c 128,-1,56
 907.2 297.6 907.2 297.6 907.2 235.2 c 0,57,58
 907.2 137.6 907.2 137.6 848 68.7998 c 128,-1,59
 788.8 0 788.8 0 704.8 0 c 0,60,61
 648 0 648 0 598 33.5996 c 128,-1,62
 548 67.2002 548 67.2002 518.4 124.8 c 1,63,64
 495.2 68 495.2 68 452.8 34 c 128,-1,65
 410.4 0 410.4 0 363.2 0 c 0,66,67
 336.8 0 336.8 0 312 10.7998 c 128,-1,68
 287.2 21.5996 287.2 21.5996 268 40.7998 c 1,69,-1
 264 35.2002 l 1,70,-1
 289.6 -104.8 l 1,71,-1
 289.6 -157.6 l 1,72,-1
 210.4 -157.6 l 1,73,-1
 210.4 -104.8 l 1,74,-1
 236.8 33.5996 l 1,75,-1
 231.2 39.2002 l 1,76,77
 215.2 20.7998 215.2 20.7998 192 10.4004 c 128,-1,78
 168.8 0 168.8 0 141.6 0 c 0,79,80
 92.7998 0 92.7998 0 58 34.7998 c 128,-1,81
 23.2002 69.5996 23.2002 69.5996 23.2002 118.4 c 0,82,83
 23.2002 166.4 23.2002 166.4 58 200.8 c 128,-1,84
 92.7998 235.2 92.7998 235.2 141.6 235.2 c 0,85,86
 188 235.2 188 235.2 223.2 207.6 c 128,-1,87
 258.4 180 258.4 180 264.8 137.6 c 0,88,89
 269.6 106.4 269.6 106.4 299.6 86 c 128,-1,90
 329.6 65.5996 329.6 65.5996 369.6 65.5996 c 1,91,-1
 369.6 65.5996 l 1,13,14
11.2002 633.6 m 1,92,-1
 60.7998 633.6 l 1,93,94
 60.7998 584.8 60.7998 584.8 84.4004 550 c 128,-1,95
 108 515.2 108 515.2 141.6 515.2 c 0,96,97
 158.4 515.2 158.4 515.2 176.4 521.6 c 128,-1,98
 194.4 528 194.4 528 212 540 c 2,99,-1
 427.2 685.6 l 1,100,-1
 458.4 641.6 l 1,101,-1
 239.2 492 l 2,102,103
 214.4 475.2 214.4 475.2 189.6 466 c 128,-1,104
 164.8 456.8 164.8 456.8 141.6 456.8 c 0,105,106
 87.2002 456.8 87.2002 456.8 49.2002 508.4 c 128,-1,107
 11.2002 560 11.2002 560 11.2002 633.6 c 1,108,-1
 11.2002 633.6 l 1,92,-1
1107.2 379.2 m 1,109,110
 1107.2 352 1107.2 352 1126 333.2 c 128,-1,111
 1144.8 314.4 1144.8 314.4 1172 314.4 c 256,112,113
 1199.2 314.4 1199.2 314.4 1218.4 333.2 c 128,-1,114
 1237.6 352 1237.6 352 1237.6 379.2 c 256,115,116
 1237.6 406.4 1237.6 406.4 1218.4 425.6 c 128,-1,117
 1199.2 444.8 1199.2 444.8 1172 444.8 c 256,118,119
 1144.8 444.8 1144.8 444.8 1126 425.6 c 128,-1,120
 1107.2 406.4 1107.2 406.4 1107.2 379.2 c 1,121,-1
 1107.2 379.2 l 1,109,110
EndSplineSet
Validated: 5
Ligature2: "'abvs' Above Base Substitutions in Telugu lookup 1" U0C18 U0C3E
EndChar

StartChar: U0C19_U0C3E.abvs
Encoding: 65556 -1 108
Width: 930
VWidth: 819
GlyphClass: 2
Flags: W
LayerCount: 2
Fore
SplineSet
43.2002 144 m 1,0,1
 43.2002 188.8 43.2002 188.8 76.7998 228 c 128,-1,2
 110.4 267.2 110.4 267.2 164.8 287.2 c 0,3,4
 204.8 301.6 204.8 301.6 228.8 323.2 c 128,-1,5
 252.8 344.8 252.8 344.8 252.8 365.6 c 0,6,7
 252.8 388 252.8 388 231.6 403.6 c 128,-1,8
 210.4 419.2 210.4 419.2 180.8 419.2 c 256,9,10
 151.2 419.2 151.2 419.2 130 403.6 c 128,-1,11
 108.8 388 108.8 388 108.8 365.6 c 0,12,13
 108.8 357.6 108.8 357.6 114.4 348 c 128,-1,14
 120 338.4 120 338.4 130.4 328 c 1,15,-1
 76 300.8 l 1,16,17
 60 320 60 320 51.5996 336.4 c 128,-1,18
 43.2002 352.8 43.2002 352.8 43.2002 365.6 c 0,19,20
 43.2002 414.4 43.2002 414.4 84 449.2 c 128,-1,21
 124.8 484 124.8 484 182.4 484 c 0,22,23
 232 484 232 484 268.8 458 c 128,-1,24
 305.6 432 305.6 432 312.8 392 c 1,25,-1
 436.8 392 l 1,26,-1
 436.8 435.2 l 1,27,-1
 356 435.2 l 1,28,-1
 356 493.6 l 1,29,-1
 764 493.6 l 2,30,31
 824 493.6 824 493.6 866.4 457.2 c 128,-1,32
 908.8 420.8 908.8 420.8 908.8 369.6 c 0,33,34
 908.8 320.8 908.8 320.8 874 286 c 128,-1,35
 839.2 251.2 839.2 251.2 790.4 251.2 c 256,36,37
 741.6 251.2 741.6 251.2 707.2 286 c 128,-1,38
 672.8 320.8 672.8 320.8 672.8 369.6 c 0,39,40
 672.8 392.8 672.8 392.8 680 410.4 c 128,-1,41
 687.2 428 687.2 428 699.2 435.2 c 1,42,-1
 696 439.2 l 1,43,-1
 654.4 435.2 l 1,44,-1
 488 435.2 l 1,45,-1
 488 392 l 1,46,-1
 567.2 392 l 1,47,-1
 567.2 340 l 1,48,-1
 314.4 340 l 1,49,50
 308.8 308.8 308.8 308.8 279.6 280.8 c 128,-1,51
 250.4 252.8 250.4 252.8 205.6 236.8 c 0,52,53
 162.4 220.8 162.4 220.8 135.6 195.2 c 128,-1,54
 108.8 169.6 108.8 169.6 108.8 144 c 0,55,56
 108.8 111.2 108.8 111.2 132 88.4004 c 128,-1,57
 155.2 65.5996 155.2 65.5996 188 65.5996 c 0,58,59
 232.8 65.5996 232.8 65.5996 264 96 c 128,-1,60
 295.2 126.4 295.2 126.4 295.2 168.8 c 1,61,-1
 342.4 168.8 l 1,62,63
 342.4 126.4 342.4 126.4 373.6 96 c 128,-1,64
 404.8 65.5996 404.8 65.5996 448.8 65.5996 c 0,65,66
 481.6 65.5996 481.6 65.5996 504.8 88.4004 c 128,-1,67
 528 111.2 528 111.2 528 144 c 0,68,69
 528 152 528 152 523.6 167.6 c 128,-1,70
 519.2 183.2 519.2 183.2 509.6 209.6 c 1,71,-1
 575.2 209.6 l 1,72,73
 583.2 196 583.2 196 587.2 179.2 c 128,-1,74
 591.2 162.4 591.2 162.4 591.2 144 c 0,75,76
 591.2 84 591.2 84 549.6 42 c 128,-1,77
 508 0 508 0 448.8 0 c 0,78,79
 408 0 408 0 373.6 18.4004 c 128,-1,80
 339.2 36.7998 339.2 36.7998 320.8 68 c 1,81,-1
 316.8 65.5996 l 1,82,83
 299.2 35.2002 299.2 35.2002 264.8 17.5996 c 128,-1,84
 230.4 0 230.4 0 188 0 c 0,85,86
 128 0 128 0 85.5996 42 c 128,-1,87
 43.2002 84 43.2002 84 43.2002 144 c 1,88,-1
 43.2002 144 l 1,0,1
724.8 369.6 m 1,89,90
 724.8 342.4 724.8 342.4 744 323.6 c 128,-1,91
 763.2 304.8 763.2 304.8 790.4 304.8 c 256,92,93
 817.6 304.8 817.6 304.8 836.4 323.6 c 128,-1,94
 855.2 342.4 855.2 342.4 855.2 369.6 c 256,95,96
 855.2 396.8 855.2 396.8 836.4 416 c 128,-1,97
 817.6 435.2 817.6 435.2 790.4 435.2 c 256,98,99
 763.2 435.2 763.2 435.2 744 416 c 128,-1,100
 724.8 396.8 724.8 396.8 724.8 369.6 c 1,101,-1
 724.8 369.6 l 1,89,90
EndSplineSet
Validated: 5
Ligature2: "'abvs' Above Base Substitutions in Telugu lookup 1" U0C19 U0C3E
EndChar

StartChar: U0C1A_U0C3E.abvs
Encoding: 65557 -1 109
Width: 936
VWidth: 819
GlyphClass: 2
Flags: W
LayerCount: 2
Fore
SplineSet
428 0 m 1,0,1
 396 0 396 0 370 16.4004 c 128,-1,2
 344 32.7998 344 32.7998 334.4 60 c 1,3,-1
 328.8 58.4004 l 1,4,5
 319.2 32 319.2 32 292.8 16 c 128,-1,6
 266.4 0 266.4 0 232.8 0 c 0,7,8
 178.4 0 178.4 0 140 38 c 128,-1,9
 101.6 76 101.6 76 101.6 130.4 c 0,10,11
 101.6 146.4 101.6 146.4 106.8 161.6 c 128,-1,12
 112 176.8 112 176.8 122.4 188.8 c 1,13,-1
 115.2 196 l 1,14,-1
 9.59961 196 l 1,15,-1
 9.59961 260.8 l 1,16,-1
 219.2 260.8 l 1,17,-1
 219.2 216 l 1,18,19
 196 207.2 196 207.2 181.6 184 c 128,-1,20
 167.2 160.8 167.2 160.8 167.2 130.4 c 0,21,22
 167.2 103.2 167.2 103.2 186.4 84.4004 c 128,-1,23
 205.6 65.5996 205.6 65.5996 232.8 65.5996 c 256,24,25
 260 65.5996 260 65.5996 278.8 84.4004 c 128,-1,26
 297.6 103.2 297.6 103.2 297.6 130.4 c 2,27,-1
 297.6 169.6 l 1,28,-1
 363.2 169.6 l 1,29,-1
 363.2 130.4 l 2,30,31
 363.2 103.2 363.2 103.2 382 84.4004 c 128,-1,32
 400.8 65.5996 400.8 65.5996 428 65.5996 c 0,33,34
 474.4 65.5996 474.4 65.5996 507.2 113.6 c 128,-1,35
 540 161.6 540 161.6 540 229.6 c 0,36,37
 540 308 540 308 487.2 366.8 c 128,-1,38
 434.4 425.6 434.4 425.6 356 435.2 c 2,39,-1
 106.4 435.2 l 1,40,-1
 106.4 500.8 l 1,41,-1
 769.6 500.8 l 2,42,43
 829.6 500.8 829.6 500.8 871.6 462.4 c 128,-1,44
 913.6 424 913.6 424 913.6 369.6 c 0,45,46
 913.6 320.8 913.6 320.8 879.2 286 c 128,-1,47
 844.8 251.2 844.8 251.2 796.8 251.2 c 0,48,49
 748 251.2 748 251.2 713.2 286 c 128,-1,50
 678.4 320.8 678.4 320.8 678.4 369.6 c 0,51,52
 678.4 389.6 678.4 389.6 683.6 406.4 c 128,-1,53
 688.8 423.2 688.8 423.2 699.2 435.2 c 1,54,-1
 696 441.6 l 1,55,-1
 644.8 435.2 l 1,56,-1
 500.8 435.2 l 1,57,58
 549.6 398.4 549.6 398.4 577.2 344 c 128,-1,59
 604.8 289.6 604.8 289.6 604.8 229.6 c 0,60,61
 604.8 134.4 604.8 134.4 553.2 67.2002 c 128,-1,62
 501.6 0 501.6 0 428 0 c 1,63,-1
 428 0 l 1,0,1
732 369.6 m 1,64,65
 732 342.4 732 342.4 750.8 323.6 c 128,-1,66
 769.6 304.8 769.6 304.8 796.8 304.8 c 256,67,68
 824 304.8 824 304.8 843.2 323.6 c 128,-1,69
 862.4 342.4 862.4 342.4 862.4 369.6 c 256,70,71
 862.4 396.8 862.4 396.8 843.2 416 c 128,-1,72
 824 435.2 824 435.2 796.8 435.2 c 256,73,74
 769.6 435.2 769.6 435.2 750.8 416 c 128,-1,75
 732 396.8 732 396.8 732 369.6 c 1,76,-1
 732 369.6 l 1,64,65
EndSplineSet
Validated: 5
Ligature2: "'abvs' Above Base Substitutions in Telugu lookup 1" U0C1A U0C3E
EndChar

